<svg width="1043" height="1043" fill="none" xmlns="http://www.w3.org/2000/svg"><path d="M521.985.964a520.999 520.999 0 01260.5 69.8l-260.5 451.2v-521zm-451.199 260.5a521 521 0 01190.699-190.7l260.5 451.2-451.2-260.5zm-.301 521a521 521 0 01-69.8-260.5h520.999l-451.2 260.5zm451.5 260.496c-91.455 0-181.372-23.99-260.574-69.717l260.574-451.279v520.996z" fill="#842828"/><path d="M973.184 782.464a520.994 520.994 0 01-190.699 190.699l-260.5-451.199 451.199 260.5zm-.301-521a520.998 520.998 0 0169.797 260.5H521.684l451.199-260.5z" fill="#842828"/><path d="M521.985.964a520.999 520.999 0 00-260.5 69.8l260.5 451.2v-521zm-451.199 260.5a520.999 520.999 0 00-69.8 260.5h520.999l-451.199-260.5zm-.301 521a520.993 520.993 0 00190.699 190.699l260.5-451.199-451.199 260.5zm451.5 260.496a520.998 520.998 0 00260.5-69.797l-260.5-451.199v520.996z" fill="#AA432D"/><path d="M973.184 782.464a521.01 521.01 0 0069.796-260.5H521.985l451.199 260.5zm-.301-521a520.998 520.998 0 00-190.699-190.7l-260.5 451.2 451.199-260.5z" fill="#AA432D"/><g filter="url(#filter0_i)"><circle cx="521.985" cy="521.964" r="386" fill="#000" fill-opacity=".32"/></g><path d="M639.219 119.645l-15.304-4.1 13.054-48.72-16.209.365 3.106-11.591 31.614-2.254 1.403.376-17.664 65.924zM377.962 979.467l40.112-51.174 16.119 4.319-39.187 47.54 31.423 8.42-3.154 11.768-47.497-12.723 2.184-8.15zm58.048-867.252l-46.002 12.326-2.67-9.961 15.221-27.954c3.629-7.346 4.974-12.77 4.036-16.271-.76-2.838-1.957-4.83-3.591-5.978-1.634-1.147-3.628-1.405-5.983-.774-2.324.622-3.944 2.124-4.859 4.504-.923 2.35-.988 5.005-.195 7.963l-15.304 4.1c-1.084-4.044-1.072-8.043.037-11.996 1.1-3.983 3.187-7.421 6.262-10.316 3.074-2.894 6.83-4.936 11.267-6.125 7.124-1.908 13.043-1.731 17.758.532 4.746 2.255 7.943 6.46 9.593 12.619.696 2.596.892 5.26.59 7.995-.311 2.703-1.129 5.689-2.454 8.955-1.302 3.229-3.611 7.713-6.925 13.454l-5.88 12.106 25.944-6.951 3.155 11.772zm185.873 867.466c-.858-3.199-.814-6.236.131-9.11.914-2.865 2.562-5.41 4.942-7.633-3.551-.698-6.608-2.144-9.169-4.337-2.553-2.163-4.319-5.07-5.298-8.723-1.577-5.886-.785-11.08 2.376-15.583 3.131-4.495 8.258-7.697 15.382-9.605 7.154-1.917 13.256-1.724 18.305.578 5.057 2.334 8.371 6.428 9.94 12.284.946 3.532.878 6.898-.206 10.1-1.083 3.202-3.074 6.033-5.974 8.492 3.203.727 5.933 2.099 8.188 4.115 2.255 2.016 3.811 4.624 4.668 7.824 1.537 5.735.803 10.785-2.201 15.148-3.004 4.364-7.812 7.432-14.422 9.203-6.671 1.787-12.398 1.543-17.182-.734-4.784-2.277-7.944-6.283-9.48-12.019zM628.121 947c.728 2.717 1.995 4.609 3.802 5.678 1.785 1.107 3.825 1.353 6.119.739 2.294-.615 3.952-1.852 4.974-3.711 1.031-1.829 1.182-4.102.454-6.819-.704-2.626-1.971-4.519-3.802-5.678-1.853-1.121-3.942-1.37-6.267-.747-2.263.606-3.887 1.85-4.872 3.732-.984 1.881-1.12 4.15-.408 6.806zm17.269 33.662c2.053-.55 3.441-1.65 4.163-3.3.701-1.611.732-3.609.093-5.993-.631-2.355-1.684-4.111-3.159-5.269-1.475-1.157-3.269-1.453-5.382-.887-2.082.558-3.443 1.699-4.081 3.423-.668 1.732-.687 3.775-.056 6.13.631 2.354 1.672 4.065 3.122 5.132 1.421 1.075 3.187 1.33 5.3.764zm186.536-141.129c.243-4.574 1.856-8.353 4.84-11.336 4.375-4.375 9.324-6.364 14.849-5.966 5.524.398 10.761 3.071 15.711 8.021 3.093 3.094 5.248 6.685 6.463 10.772 1.216 4.088 1.304 8.198.265 12.331-1.06 4.154-3.16 7.8-6.297 10.938-3.182 3.182-6.861 5.248-11.038 6.198-4.176.994-8.452.74-12.827-.762-4.353-1.481-8.463-4.11-12.33-7.889l-4.276-4.276c-5.326-5.325-8.894-10.993-10.706-17.004-1.834-5.988-1.867-11.965-.1-17.931 1.768-5.967 5.226-11.524 10.375-16.673l.696-.696 8.949 8.95-2.088 2.154c-7.314 8.066-8.143 15.788-2.486 23.169zm9.878-.265c-2.431 2.43-3.127 5.226-2.089 8.386l4.641 4.64c3.093 3.094 5.9 4.861 8.419 5.303 2.519.442 4.662-.221 6.43-1.988 1.569-1.569 2.044-3.724 1.425-6.464-.618-2.74-2.121-5.303-4.507-7.69-2.52-2.519-5.072-3.988-7.657-4.408-2.563-.398-4.784.343-6.662 2.221zm-35.096-624.721l-11.203-11.203 35.664-35.665-14.219-7.789 8.485-8.485 28.506 13.855 1.027 1.027-48.26 48.26zm48.227 48.227l-33.676-33.676 7.292-7.292 31.82-.795c8.176-.531 13.545-2.077 16.109-4.641 2.077-2.077 3.204-4.11 3.38-6.099.177-1.988-.596-3.844-2.32-5.568-1.701-1.701-3.812-2.353-6.331-1.956-2.497.376-4.828 1.647-6.993 3.812l-11.204-11.203c2.961-2.961 6.431-4.95 10.408-5.966 4-1.039 8.021-.95 12.065.265 4.044 1.215 7.69 3.447 10.938 6.695 5.215 5.215 8.021 10.43 8.419 15.645.42 5.237-1.624 10.109-6.132 14.617a21.476 21.476 0 01-6.629 4.508c-2.497 1.083-5.491 1.867-8.982 2.353-3.447.487-8.486.73-15.115.73l-13.424.961 18.993 18.992-8.618 8.618zM166.154 855.93l8.784-8.783.497.497c4.176 4.176 8.618 6.607 13.325 7.292 4.662.685 9.082-.442 13.258-3.381-4.994-.044-9.413-1.989-13.258-5.833-4.177-4.177-5.978-9.027-5.403-14.551.574-5.525 3.337-10.762 8.286-15.711 3.072-3.072 6.618-5.16 10.64-6.265 4-1.127 8.032-1.116 12.098.033 4.022 1.149 7.613 3.304 10.773 6.464 3.425 3.425 5.712 7.259 6.861 11.501 1.127 4.265.994 8.596-.398 12.993-1.392 4.398-3.955 8.508-7.69 12.33l-4.475 4.475c-4.971 4.972-10.496 8.375-16.572 10.209-6.121 1.834-12.286 1.9-18.496.199-6.209-1.702-11.722-4.961-16.539-9.778l-1.691-1.691zm35.035-14.882c1.481 1.481 3.061 2.375 4.74 2.685 1.679.309 3.259.21 4.74-.298l3.348-3.348c6.098-6.099 7.038-11.259 2.817-15.479-1.702-1.702-3.878-2.354-6.53-1.956-2.673.376-5.159 1.713-7.457 4.011-2.365 2.364-3.702 4.872-4.011 7.524-.354 2.652.431 4.939 2.353 6.861zM917.816 395.77l-4.1-15.304 48.719-13.054-8.42-13.856 11.591-3.105 17.759 26.251.376 1.403-65.925 17.665zm14.389 53.699l-4.101-15.304 48.719-13.054-8.42-13.855 11.592-3.106 17.758 26.251.377 1.404-65.925 17.664zM95.333 662.046l-34.766 4.997-10.325-38.532 11.863-3.178 7 26.125 13.486-2.012c-.925-.917-1.864-2.186-2.816-3.807-.96-1.652-1.666-3.323-2.12-5.013-1.754-6.55-1.154-12.098 1.802-16.643 2.917-4.567 7.877-7.788 14.88-9.665 4.226-1.132 8.314-1.208 12.265-.229 3.912.958 7.246 2.895 10.001 5.813 2.756 2.917 4.756 6.7 6.002 11.349 1.108 4.135 1.302 8.241.582 12.316-.75 4.083-2.329 7.547-4.737 10.392-2.439 2.854-5.533 4.767-9.284 5.74l-4.101-15.304c2.374-.798 4.085-2.082 5.132-3.85 1.046-1.769 1.266-3.785.66-6.049-1.375-5.132-5.866-6.678-13.473-4.64-7.033 1.885-9.708 5.966-8.026 12.245.954 3.561 2.813 5.91 5.576 7.046l.4 12.899zm93.93-453.286l5.271-5.27c4.176-4.176 4.22-8.308.132-12.396-1.591-1.591-3.381-2.387-5.369-2.387-2.011-.022-3.923.873-5.735 2.685-1.48 1.481-2.342 3.204-2.585 5.171-.221 1.944.309 3.557 1.591 4.839l-11.17 11.17c-2.541-2.541-4.099-5.513-4.674-8.916-.574-3.403-.165-6.905 1.227-10.507 1.392-3.646 3.591-6.972 6.596-9.977 5.369-5.37 10.816-8.364 16.341-8.983 5.524-.618 10.429 1.216 14.716 5.503 2.077 2.077 3.403 4.684 3.978 7.822.574 3.094.221 6.43-1.061 10.01 3.491-1.635 6.916-2.232 10.275-1.79 3.337.42 6.397 2.022 9.182 4.806 4.309 4.309 6.098 9.414 5.369 15.314-.729 5.899-3.789 11.545-9.181 16.937-3.16 3.16-6.696 5.502-10.607 7.027-3.911 1.48-7.623 1.856-11.137 1.127-3.535-.752-6.662-2.486-9.38-5.204l11.236-11.236c1.481 1.48 3.359 2.165 5.635 2.055 2.276-.111 4.287-1.039 6.033-2.785 1.966-1.966 2.994-4.077 3.082-6.331.067-2.276-.751-4.264-2.453-5.966-2.43-2.43-4.761-3.546-6.993-3.347-2.232.198-4.42 1.37-6.563 3.513l-5.436 5.436-8.32-8.32zM95.8 391.786l1.796-6.701 11.772 3.154-1.796 6.701 13.991 3.749-4.088 15.258-13.991-3.748-6.83 25.491-9.57-1.594-35.398-37.777-.136-.036 4.089-15.259L95.8 391.786zm-7.267 27.121l3.179-11.863-20.285-5.435 1.285 1.363 15.821 15.935zm843.752 193.185l4.101-15.304 48.719 13.054-.364-16.209 11.591 3.106 2.254 31.613-.376 1.404-65.925-17.664zm9.349 72.871c-8.905-2.386-15.234-6.233-18.988-11.542-3.762-5.279-4.668-11.555-2.719-18.83 1.965-7.335 5.916-12.359 11.851-15.071 5.936-2.712 13.326-2.884 22.17-.514l12.044 3.227c8.904 2.386 15.238 6.218 19 11.497 3.754 5.309 4.652 11.615 2.695 18.92-1.958 7.305-5.904 12.314-11.84 15.026-5.935 2.713-13.34 2.88-22.215.502l-11.998-3.215zm18.079-11.51c4.739 1.27 8.437 1.598 11.093.983 2.686-.607 4.389-2.254 5.108-4.94.704-2.626.131-4.834-1.719-6.624-1.858-1.759-4.978-3.275-9.361-4.546l-16.843-4.514c-4.92-1.318-8.693-1.666-11.319-1.043-2.595.631-4.253 2.29-4.973 4.976-.695 2.596-.107 4.808 1.765 6.636 1.902 1.837 5.218 3.405 9.949 4.705l16.3 4.367zM591.252 262.837l-4.68 6.996-4.33-1.16 8.426-11.072 3.764 1.008 1.761 13.802-4.329-1.16-.612-8.414zm3.981-14.856l-4.68 6.995-4.33-1.16 8.426-11.072 3.764 1.008 1.761 13.803-4.33-1.161-.611-8.413zm3.981-14.857l-4.681 6.996-4.329-1.16 8.426-11.073 3.764 1.009 1.761 13.802-4.33-1.16-.611-8.414zm3.98-14.857l-4.68 6.996-4.329-1.16 8.426-11.073 3.764 1.009 1.761 13.802-4.33-1.16-.612-8.414zm3.981-14.857l-4.68 6.996-4.329-1.16 8.426-11.072 3.764 1.008 1.761 13.802-4.33-1.16-.612-8.414zm3.981-14.856l-4.68 6.995-4.33-1.16 8.427-11.072 3.763 1.008 1.762 13.802-4.33-1.16-.612-8.413zm3.981-14.857l-4.68 6.996-4.33-1.161 8.427-11.072 3.763 1.009 1.761 13.802-4.329-1.16-.612-8.414zm-154.298 565.01c-1.416-.451-2.581-1.177-3.496-2.181-.904-1-1.486-2.223-1.746-3.667-.263-1.436-.174-2.974.266-4.615.725-2.707 2.178-4.603 4.359-5.687 2.181-1.084 4.88-1.194 8.096-.333l1.019.273c2.019.541 3.689 1.363 5.012 2.465 1.329 1.115 2.227 2.442 2.693 3.983.477 1.543.482 3.182.017 4.918-.67 2.499-1.868 4.332-3.596 5.497-1.718 1.167-3.76 1.545-6.127 1.133l1.327-4.952c1.265.298 2.25.224 2.957-.224.706-.448 1.222-1.28 1.548-2.497.331-1.236.112-2.265-.659-3.088-.77-.823-2.165-1.521-4.186-2.092l-1.457-.391c-2.198-.589-3.842-.736-4.932-.442-1.092.304-1.819 1.13-2.18 2.479-.306 1.142-.271 2.086.105 2.834.376.748 1.143 1.297 2.303 1.648l-1.323 4.939zm-2.508 8.169l7.949 4.86-1.369 5.107-16.198-11.028-.579-.443c-1.743-1.418-2.314-3.249-1.713-5.494a7.731 7.731 0 01.81-1.891l3.41.914-.167.623c-.179.669-.217 1.205-.112 1.607.093.409.366.766.821 1.069l.916.655 16.877-1.18-1.365 5.094-9.28.107zm-12.733 20.807l1.285-4.797 11.631 3.117 1.13-4.217-11.631-3.116 1.278-4.768 15.309 4.102-3.692 13.781-15.31-4.102zm-2.952 9.885c.629-2.349 1.837-4.062 3.622-5.141 1.795-1.076 3.815-1.313 6.06-.712l.396.107c1.566.419 2.871 1.077 3.914 1.974 1.042.905 1.739 2.002 2.091 3.289.362 1.29.339 2.7-.071 4.228-.576 2.15-1.701 3.669-3.374 4.555-1.664.889-3.689 1.013-6.075.374l-1.854-.497 2.54-9.48c-.904-.06-1.678.132-2.323.576-.644.444-1.089 1.123-1.334 2.038-.405 1.51-.192 2.83.637 3.962l-3.159 1.489c-.662-.814-1.091-1.834-1.289-3.059-.19-1.214-.117-2.448.219-3.703zm12.341 2.731c.374-1.396-.328-2.474-2.106-3.234l-1.289 4.811.368.099c.759.223 1.4.188 1.924-.107.533-.291.901-.815 1.103-1.569zm-10.571 21.962c-2.377-.637-4.134-1.684-5.27-3.141-1.129-1.445-1.45-3.078-.962-4.898.376-1.406 1.2-2.423 2.471-3.053l-7.146-1.915 1.278-4.768 21.196 5.679-1.194 4.457-1.453-.238c.886 1.219 1.13 2.573.731 4.063-.506 1.887-1.597 3.167-3.273 3.84-1.668.675-3.718.687-6.152.035l-.226-.061zm1.575-4.688c2.716.727 4.287.299 4.712-1.286.303-1.132.1-1.995-.611-2.59l-6.027-1.615c-.96.188-1.59.838-1.888 1.951-.407 1.519.695 2.653 3.304 3.403l.51.137zm.688 23.918c-.536 1.999-1.616 3.408-3.24 4.227-1.628.827-3.573.938-5.837.331l-.198-.053c-1.434-.384-2.623-1.021-3.567-1.911a6.33 6.33 0 01-1.843-3.254c-.296-1.272-.243-2.658.159-4.158.606-2.264 1.817-3.876 3.631-4.835 1.811-.95 3.991-1.084 6.537-.402l.453.121c3.485.954 6.076 2.265 7.773 3.933 1.696 1.668 2.492 3.736 2.386 6.205-.045 1.11-.002 1.855.13 2.234.137.391.442.649.914.776l-1.028 3.834c-1.179-.316-2.026-.74-2.54-1.272-.517-.523-.872-1.235-1.066-2.136-.186-.889-.22-2.081-.103-3.576.093-1.178-.118-2.165-.632-2.96-.508-.783-1.337-1.445-2.486-1.985.819 1.584 1.005 3.211.557 4.881zm-3.44-1.878c.468-1.745-.506-2.941-2.921-3.588l-.226-.06c-2.368-.635-3.788-.07-4.26 1.694-.458 1.707.44 2.883 2.694 3.527l.453.122c2.367.634 3.788.069 4.26-1.695zm-1.709 24.489L426.221 840l1.277-4.768 11.631 3.116.766-2.858-4.615-1.51c-2.273-.801-3.868-1.789-4.786-2.965-.919-1.177-1.154-2.62-.706-4.329l.402-1.5 3.666.921-.076.511c-.094.652.201 1.231.884 1.738.69.518 1.802 1.029 3.335 1.531l6.769 2.132-3.238 12.083zm-3.082 11.504l-1.281 4.782-15.31-4.102 1.281-4.783 8.915 2.389-7.789-6.591 1.286-4.797 15.309 4.103-1.285 4.796-8.886-2.381 7.76 6.584zm-1.941 7.244l-1.278 4.768-11.631-3.116-1.129 4.216 11.63 3.117-1.285 4.796-11.659-3.124-.675 2.519-8.116-2.478 1.205-4.5 4.542 1.217 3.086-11.517 15.31 4.102zm152.155-84.239l.555-8.398 4.33-1.16-1.761 13.802-3.764 1.008-8.426-11.072 4.329-1.16 4.737 6.98zm3.981 14.857l.555-8.398 4.33-1.161-1.761 13.803-3.764 1.008-8.426-11.072 4.329-1.16 4.737 6.98zm3.981 14.857l.555-8.399 4.33-1.16-1.762 13.802-3.763 1.009-8.427-11.073 4.33-1.16 4.737 6.981zm3.981 14.857l.555-8.399 4.33-1.16-1.762 13.802-3.763 1.009-8.427-11.073 4.33-1.16 4.737 6.981zm3.981 14.857l.555-8.399 4.329-1.16-1.761 13.802-3.764 1.008-8.426-11.072 4.33-1.16 4.737 6.981zm3.98 14.856l.556-8.398 4.329-1.16-1.761 13.802-3.764 1.008-8.426-11.072 4.33-1.16 4.736 6.98z" fill="#fff"/><g clip-path="url(#clip0)"><path d="M431.089 171.642c-2.965 2.069-4.952 7.965-5.108 15.163-.064 3.228.195 5.935.878 9.166.82 3.847 2.186 7.181 7.901 19.315l.504 1.062-1.822 3.329c-4.27 7.812-5.884 11.048-7.524 15.121-2.67 6.633-3.675 12.199-3.171 17.604.466 5.019 2.775 10.998 5.985 15.515 5.572 7.819 13.346 11.995 21.942 11.799 2.228-.044 3.732-.262 6.287-.899 2.556-.637 4.665-1.407 6.725-2.444.768-.388 1.176-.559 1.218-.489.182.277 3.095 6.544 4.3 9.211 3.366 7.484 4.253 10.309 4.1 13.129-.202 3.745-2.208 6.914-5.624 8.91-1.246.73-3.627 1.447-4.914 1.477-1.844.043-3.417-.537-4.383-1.624-.301-.326-.516-.639-.492-.681.023-.042.343-.235.723-.422 1.959-1.021 3.461-3.059 3.854-5.268.214-1.25.188-1.978-.154-3.214-.807-2.917-3.258-4.982-6.329-5.323-4.541-.506-8.41 3.016-8.546 7.757-.06 2.27.659 5.164 1.625 6.589 2.898 4.23 10.088 6.255 16.78 4.707 6.497-1.494 10.502-5.964 10.823-12.099.121-2.391-.339-5.276-1.271-7.843-1.038-2.864-3.585-8.486-6.701-14.767l-1.152-2.308.294-.245c2.657-2.252 3.982-3.751 5.286-5.956.5-.851 1.116-2.083 1.367-2.737 2.97-7.533 1.02-16.775-4.807-22.855-1.179-1.226-2.646-2.35-4.293-3.283-2.838-1.608-5.589-2.271-8.814-2.114-1.464.067-4.47.805-5.943 1.47-.591.268-1.094.477-1.122.462-.027-.016-4.022-7.829-5.569-10.891l-.937-1.865.935-1.811c3.254-6.212 4.779-11.501 5.073-17.524.276-5.586-.421-10.634-2.355-17.161-1.27-4.294-2.363-6.98-4.092-10.062-3.922-7.004-8.363-10.059-11.477-7.901zm7.506 11.183c1.572.324 2.881 2.016 3.828 4.976 1.044 3.224 1.166 6.365.437 10.267-.739 3.87-2.266 7.97-4.995 13.335l-.996 1.969-.326-.669c-.546-1.133-1.986-4.563-2.483-5.896-.518-1.41-1.137-4.11-1.443-6.313-.835-5.885-.231-11.212 1.654-14.652 1.222-2.205 2.815-3.323 4.324-3.017zm3.632 47.635c.459.9 1.764 3.504 2.907 5.779 2.099 4.17 2.149 4.308 1.761 4.427-.054.015-.553.445-1.114.95-3.497 3.139-5.674 7.337-6.169 11.874-.336 3.175.468 6.629 2.157 9.232.627.959 1.904 2.368 2.868 3.152 1.538 1.255 4.046 2.557 6.269 3.249 1.111.347 3.732.917 3.949.857.086-.024.218-.224.3-.433l.138-.388-1.495-.847c-3.23-1.803-5.37-3.966-6.599-6.637-.522-1.128-.725-1.819-.853-2.916-.39-3.137.544-6.174 2.614-8.521.571-.636 1.907-1.8 2.167-1.872.054-.015.414.61.791 1.381.39.779 1.93 3.855 3.435 6.847 3.642 7.256 8.101 16.283 8.058 16.341-.012.039-.453.301-.978.598-3.165 1.809-6.981 2.865-10.572 2.925-6.493.116-12.007-2.094-15.864-6.373-2.361-2.627-4.045-6.013-5.083-10.231-.96-3.89-1.054-6.677-.372-10.286.592-3.175 1.502-5.54 3.566-9.262.707-1.282 2.036-3.482 2.95-4.902 3.838-5.918 4.298-6.617 4.325-6.601.014.007.396.754.844 1.657zm14.56 16.212c3.091-.05 6.114 1.215 8.559 3.597 1.949 1.9 3.293 4.224 4.073 7.043 1.024 3.744.71 7.123-.992 10.337-.647 1.206-2.256 3.32-2.464 3.203-.069-.039-.499-.877-3.998-7.742-2.939-5.77-7.959-15.517-8.123-15.775-.119-.177-.079-.2.958-.417a12.174 12.174 0 011.987-.246z" fill="#fff"/></g><path d="M330.916 331.724l3.718 7.55-3.169 3.17-5.376-12.834 2.755-2.755 12.834 5.376-3.17 3.17-7.592-3.677zm-10.876-10.876l3.718 7.551-3.169 3.169-5.376-12.833 2.755-2.756 12.834 5.376-3.17 3.17-7.592-3.677zm-10.876-10.876l3.718 7.551-3.169 3.169-5.376-12.833 2.755-2.756 12.834 5.376-3.17 3.17-7.592-3.677zm-10.876-10.876l3.718 7.551-3.169 3.169-5.376-12.833 2.755-2.755 12.834 5.375-3.17 3.17-7.592-3.677zm-10.876-10.876l3.719 7.551-3.17 3.169-5.376-12.833 2.755-2.755 12.834 5.375-3.17 3.17-7.592-3.677zm-10.876-10.876l3.719 7.551-3.17 3.169-5.376-12.833 2.755-2.755 12.834 5.375-3.169 3.17-7.593-3.677zM713.25 713.4l-3.719-7.551 3.17-3.17 5.375 12.834-2.755 2.755-12.833-5.376 3.169-3.169 7.593 3.677zm10.876 10.876l-3.719-7.551 3.17-3.17 5.375 12.834-2.755 2.755-12.833-5.376 3.169-3.169 7.593 3.677zm10.875 10.876l-3.718-7.551 3.17-3.17 5.375 12.834-2.755 2.755-12.833-5.376 3.169-3.17 7.592 3.678zm10.876 10.875l-3.718-7.551 3.169-3.169 5.376 12.833-2.755 2.756-12.834-5.376 3.17-3.17 7.592 3.677zm10.876 10.876l-3.718-7.551 3.169-3.169 5.376 12.833-2.755 2.756-12.834-5.376 3.17-3.17 7.592 3.677zm10.876 10.876l-3.718-7.551 3.169-3.169 5.376 12.833-2.755 2.756-12.834-5.376 3.17-3.17 7.592 3.677zM232.743 453.694l8.928 2.393.872-3.255-2.561-.686c-1.632-.437-3.001-1.102-4.106-1.995-1.106-.893-1.857-1.938-2.253-3.136-.409-1.192-.438-2.443-.087-3.754.544-2.028 1.74-3.472 3.587-4.332 1.839-.862 4.027-.953 6.564-.273l7.471 2.002-5.52 20.601-13.923-3.73 1.028-3.835zm10.823-4.682l1.574-5.872-2.547-.682c-1.009-.271-1.882-.202-2.619.208-.746.406-1.239 1.058-1.479 1.954-.227.849-.118 1.611.328 2.287.446.675 1.187 1.152 2.225 1.43l2.518.675zm-28.077-1.503l4.102-15.309 4.768 1.277-3.116 11.631 2.858.766 1.51-4.615c.801-2.273 1.789-3.868 2.966-4.786 1.176-.919 2.619-1.154 4.329-.706l1.499.402-.921 3.666-.51-.076c-.653-.094-1.232.2-1.739.884-.518.69-1.028 1.802-1.53 3.335l-2.133 6.769-12.083-3.238zm-11.503-3.082l-4.783-1.282 4.102-15.309 4.783 1.281-2.389 8.914 6.591-7.788 4.797 1.286-4.102 15.309-4.797-1.285 2.381-8.886-6.583 7.76zm-7.245-1.941l-4.768-1.278 3.116-11.631-4.216-1.13-3.117 11.631-4.796-1.285 3.124-11.659-2.519-.675 2.478-8.117 4.5 1.206-1.217 4.542 11.517 3.086-4.102 15.31zm500.444 113.398l-5.52 20.601-4.953-1.327 2.04-7.612-1.507-.207-1.855-.376c-2.773-.743-4.735-1.91-5.886-3.503-1.148-1.601-1.436-3.508-.863-5.721l1.706-6.367 4.966 1.331-1.687 6.296c-.3 1.123-.249 2.006.155 2.65.415.637 1.293 1.135 2.632 1.494l.429.1c1.175.254 2.152.42 2.93.497l2.46-9.183 4.953 1.327zm4.69 23.64c-2.348-.629-4.062-1.836-5.141-3.622-1.076-1.794-1.313-3.814-.712-6.059l.107-.396c.419-1.566 1.077-2.871 1.974-3.915.905-1.041 2.002-1.738 3.29-2.091 1.29-.362 2.699-.338 4.227.071 2.15.577 3.669 1.701 4.555 3.374.889 1.664 1.014 3.689.374 6.076l-.497 1.853-9.48-2.54c-.06.904.132 1.678.576 2.323.444.645 1.123 1.09 2.038 1.335 1.51.404 2.83.192 3.962-.637l1.489 3.159c-.814.661-1.834 1.091-3.059 1.288a8.855 8.855 0 01-3.703-.219zm2.731-12.34c-1.396-.374-2.474.328-3.234 2.106l4.811 1.289.099-.368c.223-.759.188-1.401-.107-1.924-.291-.534-.815-.901-1.569-1.103zm-4.508-9.155c.139-.519.46-.908.965-1.167.513-.257 1.072-.304 1.676-.142.603.162 1.059.481 1.366.957.316.479.405.978.266 1.497-.139.519-.465.907-.979 1.163-.504.26-1.058.308-1.662.146-.604-.161-1.064-.482-1.38-.961-.307-.476-.391-.974-.252-1.493zm7.343 1.968c.139-.519.461-.908.965-1.167.514-.257 1.072-.304 1.676-.143.604.162 1.059.481 1.366.958.317.479.405.978.266 1.497-.139.519-.465.906-.979 1.163-.504.259-1.058.308-1.661.146-.604-.162-1.064-.482-1.381-.961-.307-.477-.391-.974-.252-1.493zm19.127 17.757c-.637 2.378-1.684 4.134-3.141 5.27-1.445 1.13-3.077 1.451-4.898.963-1.405-.377-2.423-1.201-3.053-2.471l-1.915 7.145-4.768-1.278 5.679-21.195 4.457 1.194-.237 1.453c1.218-.887 2.572-1.131 4.063-.731 1.886.505 3.166 1.596 3.839 3.273.675 1.667.687 3.717.035 6.151l-.061.226zm-4.688-1.574c.728-2.717.299-4.288-1.286-4.712-1.131-.304-1.995-.1-2.589.61l-1.616 6.028c.188.96.838 1.589 1.951 1.887 1.519.407 2.653-.694 3.403-3.304l.137-.509zm18.416 13.336l-4.783-1.282 1.521-5.674-4.174-1.118-1.521 5.674-4.768-1.278 4.102-15.309 4.768 1.277-1.6 5.971 4.175 1.119 1.599-5.971 4.783 1.281-4.102 15.31zm10.701-9.037l2.448.656c1.415.379 2.598.943 3.55 1.694.951.75 1.596 1.626 1.935 2.626.338 1.001.357 2.062.056 3.185-.442 1.651-1.44 2.809-2.993 3.474-1.541.659-3.416.693-5.623.101l-7.145-1.914 4.102-15.31 4.796 1.285-1.126 4.203zm13.579 15.543l-4.797-1.286 4.103-15.309 4.796 1.285-4.102 15.31zm-14.561-11.879l-1.016 3.792 2.42.649c.726.194 1.336.181 1.831-.041.506-.228.836-.63.99-1.205.152-.566.091-1.078-.18-1.535-.272-.457-.814-.794-1.625-1.011l-2.42-.649zm30.605-.231l4.783 1.281-4.103 15.31-4.782-1.281 2.388-8.915-6.59 7.788-4.797-1.285 4.102-15.309 4.797 1.285-2.381 8.886 6.583-7.76zm4.969-5.584c-.346 1.292-1.103 2.212-2.271 2.758-1.167.547-2.543.608-4.128.183-1.585-.424-2.746-1.165-3.484-2.222s-.934-2.232-.587-3.524l3.24.868c-.152.566-.096 1.056.167 1.47.275.407.724.694 1.346.861.623.167 1.145.145 1.565-.066.432-.218.727-.619.884-1.204l3.268.876zm22.905 13.053l-4.102 15.309-4.754-1.274 1.357-5.065-1.839-.493-4.06 4.341-4.754-1.273 4.714-5.031c-.798-.679-1.352-1.444-1.659-2.295-.299-.848-.327-1.725-.084-2.63.417-1.557 1.377-2.649 2.88-3.278 1.505-.638 3.262-.703 5.269-.195l7.032 1.884zm-10.458 3.036c-.124.462-.043.914.243 1.354.299.434.747.741 1.346.922l2.193.588.944-3.524-2.122-.568c-.623-.167-1.179-.129-1.669.114s-.801.614-.935 1.114zm18.198-.962l-3.116 11.63 3.579.96 3.117-11.631 4.796 1.285-3.116 11.631 3.58.959 3.116-11.631 4.768 1.278-3.124 11.659 3.495.936-2.478 8.117-4.485-1.202 1.217-4.542-20.22-5.417 4.103-15.31 4.768 1.278zm31.341 8.397l4.782 1.282-4.102 15.309-4.783-1.281 2.389-8.914-6.591 7.788-4.796-1.285 4.102-15.31 4.796 1.285-2.381 8.886 6.584-7.76zm11.197 13.677l-1.429-.383-1.433 5.348-4.783-1.281 4.102-15.31 4.783 1.282-1.475 5.504 1.373.368 3.908-4.852 6.113 1.638-6.367 5.876.014.004 2.703 9.55-6.466-1.732-1.043-6.012zM715.048 329.895l-7.551 3.718-3.169-3.169 12.833-5.376 2.756 2.755-5.376 12.834-3.17-3.17 3.677-7.592zm10.876-10.876l-7.551 3.718-3.169-3.169 12.833-5.376 2.755 2.755-5.375 12.834-3.17-3.17 3.677-7.592zm10.876-10.876l-7.551 3.718-3.169-3.169 12.833-5.376 2.755 2.755-5.375 12.834-3.17-3.17 3.677-7.592zm10.876-10.876l-7.551 3.718-3.17-3.169 12.834-5.376 2.755 2.755-5.376 12.834-3.169-3.17 3.677-7.592zm10.876-10.876l-7.551 3.718-3.17-3.169 12.834-5.376 2.755 2.755-5.376 12.834-3.169-3.17 3.677-7.592zm10.876-10.876l-7.551 3.719-3.17-3.17 12.834-5.376 2.755 2.755-5.376 12.834-3.169-3.17 3.677-7.592zM328.745 708.856l7.551-3.718 3.169 3.169-12.833 5.376-2.756-2.755 5.376-12.834 3.17 3.17-3.677 7.592zm-10.876 10.876l7.551-3.718 3.169 3.169-12.833 5.376-2.756-2.755 5.376-12.834 3.17 3.17-3.677 7.592zm-10.876 10.876l7.551-3.719 3.169 3.17-12.833 5.376-2.755-2.755 5.375-12.834 3.17 3.17-3.677 7.592zm-10.876 10.876l7.551-3.719 3.169 3.17-12.833 5.376-2.755-2.755 5.375-12.834 3.17 3.17-3.677 7.592zm-10.876 10.876l7.551-3.719 3.17 3.17-12.834 5.376-2.755-2.756 5.376-12.833 3.169 3.169-3.677 7.593zm-10.876 10.876l7.551-3.719 3.17 3.17-12.834 5.376-2.755-2.756 5.376-12.833 3.169 3.169-3.677 7.593zm510.96-312.484l-8.399-.555-1.16-4.33 13.802 1.761 1.008 3.764-11.072 8.426-1.16-4.329 6.981-4.737zm14.856-3.981l-8.398-.555-1.16-4.33 13.802 1.762 1.008 3.763-11.072 8.427-1.16-4.33 6.98-4.737zm14.857-3.981l-8.399-.555-1.16-4.33 13.802 1.762 1.009 3.763-11.072 8.427-1.161-4.33 6.981-4.737zm14.857-3.981l-8.399-.555-1.16-4.329 13.802 1.761 1.009 3.764-11.073 8.426-1.16-4.33 6.981-4.737zm14.857-3.98l-8.399-.556-1.16-4.329 13.802 1.761 1.008 3.764-11.072 8.426-1.16-4.33 6.981-4.736zm14.856-3.981l-8.398-.555-1.16-4.33 13.802 1.761 1.008 3.764-11.072 8.426-1.16-4.33 6.98-4.736zM257.99 590.194l8.398.555 1.161 4.33-13.803-1.762-1.008-3.763 11.072-8.427 1.16 4.33-6.98 4.737zm-14.857 3.981l8.399.555 1.16 4.329-13.802-1.761-1.009-3.764 11.073-8.426 1.16 4.33-6.981 4.737zm-14.857 3.98l8.399.556 1.16 4.329-13.802-1.761-1.009-3.764 11.073-8.426 1.16 4.33-6.981 4.736zm-14.857 3.981l8.399.555 1.16 4.33-13.802-1.761-1.008-3.764 11.072-8.426 1.16 4.33-6.981 4.736zm-14.856 3.981l8.398.555 1.16 4.33-13.802-1.761-1.008-3.764 11.072-8.426 1.16 4.329-6.98 4.737zm-14.857 3.981l8.399.555 1.16 4.33-13.802-1.761-1.009-3.764 11.072-8.426 1.161 4.329-6.981 4.737z" fill="#fff"/><defs><clipPath id="clip0"><path fill="#fff" transform="rotate(-15.466 866.862 -1352.238)" d="M0 0h72v144H0z"/></clipPath><filter id="filter0_i" x="135.985" y="135.964" width="772" height="772" filterUnits="userSpaceOnUse" color-interpolation-filters="sRGB"><feFlood flood-opacity="0" result="BackgroundImageFix"/><feBlend in="SourceGraphic" in2="BackgroundImageFix" result="shape"/><feColorMatrix in="SourceAlpha" values="0 0 0 0 0 0 0 0 0 0 0 0 0 0 0 0 0 0 127 0" result="hardAlpha"/><feMorphology radius="4" in="SourceAlpha" result="effect1_innerShadow"/><feOffset/><feGaussianBlur stdDeviation="8"/><feComposite in2="hardAlpha" operator="arithmetic" k2="-1" k3="1"/><feColorMatrix values="0 0 0 0 0 0 0 0 0 0 0 0 0 0 0 0 0 0 0.5 0"/><feBlend in2="shape" result="effect1_innerShadow"/></filter></defs></svg>