<svg width="1043" height="1043" fill="none" xmlns="http://www.w3.org/2000/svg"><path d="M656.84 17.792a521.009 521.009 0 01233.558 134.844L521.995 521.039 656.84 17.792zM153.592 152.637A520.998 520.998 0 01387.15 17.792l134.845 503.247-368.403-368.402zM18.457 655.806a520.998 520.998 0 010-269.689l503.247 134.844L18.457 655.806zM387.15 1024.29c-88.338-23.67-168.982-70.122-233.65-134.79l368.495-368.461L387.15 1024.29zm503.247-134.848a521.002 521.002 0 01-233.558 134.848L521.995 521.039l368.402 368.403z" fill="#842828"/><path d="M1024.95 386.116a521.006 521.006 0 010 269.69L521.704 520.961l503.246-134.845z" fill="#842828"/><path d="M656.84 17.792a521.002 521.002 0 00-269.69 0l134.845 503.247L656.84 17.792zM153.593 152.636A521.004 521.004 0 0018.748 386.194l503.247 134.845-368.402-368.403z" fill="#AA432D"/><path d="M18.457 655.806a521 521 0 00134.845 233.558l368.402-368.403L18.457 655.806zM387.15 1024.29a521.006 521.006 0 00269.69 0L521.995 521.039 387.15 1024.29zm503.247-134.848a521.003 521.003 0 00134.843-233.558L521.995 521.039l368.402 368.403z" fill="#AA432D"/><path d="M1024.95 386.116a520.995 520.995 0 00-134.843-233.557L521.704 520.961l503.246-134.845z" fill="#AA2D69"/><circle cx="521.995" cy="521.039" r="386" fill="#000" fill-opacity=".32"/><path d="M740.434 171.332L699.19 147.52l5.156-8.931 30.53-9.004c7.76-2.628 12.546-5.512 14.359-8.652 1.468-2.544 2.031-4.799 1.687-6.766-.344-1.966-1.572-3.559-3.682-4.778-2.084-1.203-4.291-1.286-6.622-.25-2.314 1.009-4.237 2.839-5.769 5.492l-13.721-7.922c2.094-3.627 4.93-6.446 8.509-8.457 3.595-2.038 7.502-2.994 11.723-2.866 4.22.127 8.32 1.34 12.298 3.636 6.387 3.687 10.447 7.998 12.181 12.933 1.761 4.95 1.048 10.185-2.139 15.706a21.501 21.501 0 01-5.237 6.07c-2.132 1.692-4.821 3.225-8.067 4.598-3.204 1.362-8.008 2.9-14.411 4.616l-12.718 4.403 23.261 13.43-6.094 10.554zm-464.797 740.75c1.656-2.868 3.834-4.985 6.534-6.349 2.673-1.379 5.637-2.013 8.893-1.902-2.018-3.005-3.157-6.189-3.417-9.55-.276-3.335.531-6.64 2.422-9.915 3.047-5.277 7.28-8.39 12.699-9.339 5.392-.964 11.282.397 17.669 4.085 6.414 3.703 10.592 8.154 12.534 13.353 1.926 5.226 1.374 10.464-1.658 15.714-1.828 3.166-4.257 5.499-7.287 6.997-3.03 1.498-6.44 2.091-10.229 1.78 1.751 2.779 2.711 5.679 2.88 8.699.169 3.02-.575 5.965-2.231 8.834-2.969 5.142-7.059 8.193-12.268 9.155-5.21.961-10.779-.269-16.706-3.691-5.981-3.453-9.857-7.676-11.63-12.669-1.772-4.992-1.174-10.06 1.795-15.202zm27.52-18.698c-1.406 2.436-1.848 4.671-1.326 6.704.479 2.045 1.747 3.661 3.804 4.849 2.057 1.187 4.104 1.485 6.142.893 2.021-.564 3.736-2.065 5.142-4.5 1.359-2.355 1.801-4.589 1.326-6.704-.518-2.103-1.818-3.756-3.902-4.959-2.03-1.172-4.058-1.441-6.084-.807-2.026.635-3.727 2.143-5.102 4.524zm-11.591 36.014c1.84 1.063 3.599 1.266 5.277.611 1.634-.644 3.069-2.035 4.303-4.173 1.219-2.111 1.716-4.097 1.492-5.959-.224-1.861-1.284-3.339-3.178-4.433-1.867-1.078-3.636-1.233-5.306-.465-1.698.752-3.156 2.184-4.374 4.295-1.219 2.111-1.693 4.056-1.422 5.837.244 1.764 1.314 3.193 3.208 4.287zm238.96-814.476h-15.844V64.484l-15.562 4.547v-12l29.953-10.36h1.453v68.251zm-33.775 869.272l25.5-59.813h16.688l-25.547 56.063h32.531v12.187h-49.172v-8.437zM293.959 170.196l-13.721 7.922-25.219-43.681-11.204 11.719-6-10.392 20.761-23.948 1.258-.727 34.125 59.107zm59.066-34.102l-41.245 23.813-5.156-8.931 7.467-30.942c1.604-8.034 1.5-13.621-.313-16.761-1.469-2.544-3.141-4.158-5.016-4.844-1.875-.685-3.868-.419-5.979.8-2.084 1.203-3.26 3.073-3.527 5.609-.284 2.509.34 5.09 1.871 7.742l-13.721 7.922c-2.094-3.627-3.117-7.492-3.069-11.597.032-4.132 1.158-7.994 3.379-11.586 2.22-3.591 5.32-6.535 9.298-8.832 6.387-3.688 12.151-5.048 17.291-4.083 5.167.95 9.344 4.185 12.532 9.706a21.479 21.479 0 012.638 7.57c.4 2.692.383 5.787-.051 9.286-.423 3.455-1.492 8.385-3.208 14.788l-2.546 13.215 23.261-13.43 6.094 10.555zm400.539 808.441l-6.211-10.758.609-.352c5.115-2.953 8.612-6.614 10.492-10.983 1.869-4.326 1.924-8.887.166-13.681-1.335 4.812-4.357 8.578-9.066 11.296-5.115 2.953-10.266 3.438-15.454 1.453-5.187-1.985-9.531-6.008-13.031-12.07-2.172-3.762-3.271-7.728-3.297-11.899-.053-4.155 1.001-8.047 3.163-11.677 2.151-3.588 5.162-6.498 9.032-8.733 4.194-2.422 8.49-3.638 12.885-3.65 4.411.015 8.56 1.264 12.447 3.747 3.888 2.483 7.194 6.022 9.92 10.619l3.164 5.48c3.516 6.089 5.373 12.306 5.572 18.65.187 6.387-1.344 12.36-4.595 17.917-3.251 5.557-7.826 10.039-13.726 13.445l-2.07 1.196zm-5.307-37.693c1.813-1.047 3.086-2.342 3.82-3.884.733-1.542 1.046-3.094.938-4.655l-2.367-4.1c-4.312-7.47-9.053-9.712-14.222-6.728-2.084 1.203-3.277 3.137-3.579 5.801-.329 2.68.318 5.427 1.943 8.242 1.672 2.895 3.749 4.836 6.23 5.821 2.47 1.028 4.882.862 7.237-.497zm159.286-620.793l3.726 6.455c2.953 5.115 6.933 6.227 11.94 3.336 1.948-1.125 3.18-2.648 3.695-4.569.542-1.936.172-4.014-1.109-6.233-1.047-1.813-2.489-3.092-4.326-3.836-1.821-.717-3.516-.622-5.086.285l-7.898-13.681c3.112-1.797 6.386-2.532 9.822-2.207 3.435.326 6.713 1.628 9.831 3.904 3.162 2.289 5.805 5.273 7.93 8.954 3.797 6.576 5.279 12.613 4.447 18.109-.832 5.496-3.873 9.76-9.124 12.791-2.543 1.469-5.405 2.074-8.585 1.817-3.137-.246-6.268-1.451-9.394-3.615.676 3.796.365 7.258-.931 10.388-1.269 3.114-3.608 5.656-7.018 7.625-5.278 3.047-10.671 3.454-16.182 1.223-5.51-2.231-10.171-6.649-13.984-13.252-2.234-3.87-3.581-7.892-4.042-12.064-.418-4.161.18-7.844 1.794-11.049 1.641-3.221 4.126-5.792 7.454-7.714l7.946 13.762c-1.814 1.047-2.961 2.684-3.444 4.911-.482 2.227-.106 4.409 1.128 6.547 1.391 2.409 3.163 3.948 5.318 4.616 2.181.653 4.313.378 6.397-.825 2.977-1.719 4.659-3.682 5.044-5.889.386-2.207-.179-4.623-1.695-7.248l-3.844-6.658 10.19-5.883zM136.235 731.63c4.355 1.419 7.588 3.955 9.697 7.608 3.094 5.359 3.734 10.655 1.92 15.888-1.814 5.233-5.752 9.599-11.815 13.099-3.788 2.188-7.814 3.339-12.078 3.455-4.263.116-8.256-.862-11.978-2.935-3.739-2.099-6.717-5.071-8.936-8.914-2.25-3.897-3.293-7.985-3.13-12.265.12-4.292 1.472-8.356 4.056-12.193 2.557-3.822 6.161-7.111 10.811-9.869l5.237-3.023c6.522-3.766 12.921-5.746 19.195-5.941 6.259-.221 12.042 1.294 17.347 4.546 5.305 3.251 9.778 8.03 13.419 14.336l.492.852-10.96 6.328-1.541-2.574c-5.898-9.153-13.143-11.952-21.736-8.398zm-2.3 9.609c-1.719-2.977-4.239-4.372-7.56-4.187l-5.683 3.281c-3.789 2.188-6.223 4.441-7.302 6.76-1.079 2.319-.993 4.561.257 6.726 1.109 1.921 3.067 2.938 5.874 3.049 2.807.112 5.672-.676 8.595-2.364 3.085-1.781 5.165-3.866 6.239-6.255 1.048-2.373.908-4.709-.42-7.01zm819.567-207.38v6.937h-12.188v-6.937H926.83v-15.797h14.484v-26.391l9.657-.937 43.968 27.328h.141v15.797h-41.578zm0-28.078v12.281h21l-1.594-.984-19.406-11.297zm-840.633 34.163v15.844H62.431l4.547 15.562h-12l-10.36-29.953v-1.453h68.251zm-27.891-67.969c9.219 0 16.328 2.078 21.328 6.235 5 4.125 7.5 9.953 7.5 17.484 0 7.594-2.515 13.469-7.547 17.625-5.031 4.156-12.125 6.234-21.281 6.234H72.509c-9.218 0-16.328-2.062-21.328-6.187-5-4.156-7.5-10.016-7.5-17.578 0-7.563 2.516-13.422 7.547-17.578 5.031-4.157 12.14-6.235 21.328-6.235h12.422zm-14.484 15.797c-4.907 0-8.563.641-10.97 1.922-2.437 1.281-3.655 3.313-3.655 6.094 0 2.719 1.125 4.703 3.375 5.953 2.25 1.219 5.656 1.875 10.218 1.969H86.9c5.094 0 8.828-.641 11.203-1.922 2.344-1.281 3.516-3.313 3.516-6.094 0-2.687-1.141-4.672-3.422-5.953-2.313-1.281-5.922-1.938-10.828-1.969H70.494zm83.929-151.179l-7.921 13.722-43.681-25.219-3.843 15.751-10.392-6 6.005-31.12.726-1.259 59.106 34.125zm27.797-48.145l-7.922 13.721-43.68-25.219-3.843 15.751-10.393-6 6.006-31.12.726-1.258 59.106 34.125zm735.1 425.509l28.117 21.051-19.946 34.546-10.635-6.141 13.523-23.423-10.959-8.113c.006 1.302-.227 2.863-.701 4.683-.489 1.847-1.17 3.528-2.045 5.044-3.391 5.872-7.738 9.371-13.042 10.494-5.292 1.167-11.078-.063-17.356-3.688-3.789-2.187-6.734-5.024-8.835-8.51-2.089-3.444-3.077-7.171-2.962-11.183.115-4.011 1.376-8.1 3.782-12.268 2.14-3.708 4.906-6.748 8.297-9.12 3.417-2.357 6.983-3.69 10.698-3.999 3.742-.294 7.283.542 10.623 2.506l-7.922 13.721c-2.243-1.114-4.36-1.416-6.351-.906-1.99.511-3.572 1.781-4.744 3.811-2.656 4.6-.574 8.869 6.246 12.807 6.306 3.641 11.083 2.646 14.333-2.983 1.844-3.193 2.191-6.169 1.04-8.926l8.839-9.403zM592.651 401.824c1.252.802 2.189 1.805 2.812 3.011.615 1.201.861 2.532.738 3.995-.118 1.454-.601 2.917-1.451 4.389-1.401 2.427-3.296 3.882-5.683 4.364-2.387.482-5.023-.109-7.906-1.774l-.914-.527c-1.81-1.045-3.211-2.271-4.202-3.678-.996-1.421-1.52-2.935-1.572-4.544-.06-1.614.358-3.199 1.257-4.755 1.294-2.241 2.926-3.701 4.896-4.379 1.962-.683 4.032-.519 6.212.491l-2.564 4.44c-1.144-.615-2.115-.798-2.913-.549-.799.25-1.513.92-2.143 2.011-.639 1.108-.693 2.159-.163 3.154.531.994 1.699 2.029 3.502 3.104l1.307.754c1.971 1.138 3.52 1.706 4.649 1.704 1.134-.011 2.05-.621 2.748-1.831.591-1.023.802-1.944.632-2.764-.169-.82-.769-1.549-1.798-2.188l2.556-4.428zm11.821-6.03c-.367-.009-.855-.111-1.465-.305.535 1.358.395 2.743-.42 4.156-.747 1.294-1.771 2.168-3.071 2.624-1.309.451-2.556.335-3.74-.349-1.488-.859-2.296-2.058-2.422-3.597-.127-1.539.416-3.357 1.627-5.455l.761-1.319-.723-.418c-1.26-.727-2.205-.545-2.835.546-.586 1.014-.38 1.81.618 2.386l-2.468 4.275c-1.328-.766-2.082-1.951-2.261-3.555-.174-1.611.244-3.293 1.254-5.043 1.011-1.751 2.237-2.887 3.677-3.409 1.44-.522 2.911-.365 4.415.469l6.076 3.508c1.27.71 2.346 1.073 3.229 1.086l.216.125-2.468 4.275zm-4.336 1.065c.307-.533.447-1.038.419-1.517-.024-.487-.135-.889-.335-1.208l-2.194-1.267-.718 1.243c-.859 1.489-.621 2.619.715 3.39.389.225.782.277 1.179.156.388-.125.699-.391.934-.797zm14.897-19.358l-2.475 4.288-5.087-2.937-2.161 3.742 5.087 2.937-2.468 4.275-13.726-7.925 2.468-4.275 5.353 3.091 2.161-3.742-5.353-3.091 2.475-4.288 13.726 7.925zm-.063-10.964l-.74 1.281 4.795 2.769-2.476 4.288-13.726-7.925 2.476-4.288 4.935 2.849.71-1.23-3.675-5.031 3.164-5.481 4.029 7.671.007-.012 9.925-.14-3.347 5.798-6.077-.549zm6.5-24.325l-2.498 4.326 10.453 6.035-2.482 4.301-10.454-6.036-2.461 4.263-3.273-1.89 7.442-12.889 3.273 1.89zm9.898-7.564l-4.402 7.625-3.311-1.912 4.402-7.624 3.311 1.911zm17.306-15.414l-2.571 4.453-15.033-8.679-3.831 6.635 15.033 8.679-2.571 4.453-18.47-10.664 8.972-15.541 18.471 10.664zm5.578-9.076c-1.216 2.106-2.826 3.449-4.829 4.029-2.012.575-4.025.281-6.038-.881l-.355-.205c-1.404-.811-2.494-1.784-3.27-2.92-.771-1.145-1.161-2.384-1.168-3.719-.016-1.34.372-2.695 1.163-4.065 1.113-1.928 2.592-3.104 4.438-3.527 1.837-.428 3.825-.024 5.965 1.211l1.662.96-4.908 8.499c.858.293 1.656.308 2.393.046.738-.262 1.343-.804 1.817-1.624.781-1.353.918-2.684.41-3.992l3.437-.62c.428.957.579 2.054.452 3.289-.13 1.221-.52 2.394-1.169 3.519zm-11.214-5.831c-.722 1.251-.323 2.474 1.198 3.668l2.49-4.313-.33-.191c-.675-.412-1.304-.544-1.886-.395-.59.144-1.081.554-1.472 1.231zm11.698-19.735l-2.497 4.326 10.453 6.036-2.483 4.3-10.453-6.035-2.461 4.262-3.273-1.889 7.441-12.889 3.273 1.889zm14.999-1.252c-1.215 2.106-2.825 3.449-4.829 4.029-2.012.574-4.024.281-6.037-.881l-.355-.205c-1.404-.811-2.494-1.784-3.271-2.92-.771-1.145-1.16-2.384-1.168-3.719-.016-1.34.372-2.695 1.163-4.065 1.113-1.928 2.593-3.104 4.438-3.527 1.837-.428 3.826-.024 5.965 1.211l1.662.96-4.907 8.499c.857.293 1.655.308 2.393.046.737-.262 1.343-.804 1.816-1.624.782-1.353.918-2.684.411-3.992l3.436-.62c.429.957.579 2.054.453 3.289-.13 1.221-.52 2.394-1.17 3.519zm-11.213-5.831c-.723 1.251-.324 2.474 1.197 3.668l2.49-4.313-.329-.191c-.676-.412-1.304-.544-1.886-.395-.591.144-1.082.554-1.472 1.231zm15.895-18.479c2.131 1.231 3.557 2.697 4.277 4.398.717 1.688.604 3.349-.338 4.981-.728 1.26-1.787 2.03-3.177 2.31l6.406 3.698-2.468 4.275-19.004-10.971 2.308-3.996 1.341.605c-.541-1.406-.426-2.777.346-4.114.976-1.691 2.361-2.645 4.155-2.861 1.785-.221 3.769.299 5.951 1.558l.203.117zm-2.735 4.122c-2.436-1.406-4.064-1.399-4.884.022-.586 1.015-.613 1.901-.081 2.659l5.404 3.12c.976.068 1.753-.398 2.329-1.396.786-1.361.016-2.742-2.311-4.142l-.457-.263zm1.79-16.812c1.035-1.793 2.443-2.874 4.224-3.244 1.786-.378 3.694.018 5.724 1.19l.178.103c1.285.742 2.269 1.665 2.951 2.769a6.332 6.332 0 01.937 3.62c-.043 1.306-.453 2.631-1.229 3.975-1.172 2.03-2.758 3.274-4.759 3.731-1.996.449-4.135.015-6.419-1.304l-.406-.234c-3.119-1.824-5.282-3.761-6.489-5.811-1.207-2.05-1.441-4.253-.7-6.611.331-1.061.482-1.791.453-2.191-.032-.413-.259-.742-.682-.986l1.985-3.438c1.057.611 1.765 1.239 2.125 1.887.364.638.523 1.418.476 2.338-.05.907-.325 2.068-.826 3.481-.395 1.114-.446 2.122-.155 3.023.288.888.917 1.742 1.887 2.561-.381-1.742-.139-3.362.725-4.859zm2.837 2.704c-.903 1.565-.272 2.972 1.893 4.222l.203.117c2.122 1.226 3.64 1.048 4.553-.534.884-1.531.321-2.899-1.689-4.105l-.406-.234c-2.123-1.226-3.641-1.048-4.554.534zm11.816-11.97l-6.42-6.751 2.644-4.58 12.793 14.845.444.578c1.317 1.82 1.394 3.737.232 5.75a7.727 7.727 0 01-1.271 1.617l-3.058-1.765.323-.559c.346-.6.521-1.108.524-1.524.017-.419-.155-.834-.516-1.245l-.715-.87-16.607-3.228 2.636-4.567 8.991 2.299zm11.194-21.176c2.131 1.231 3.557 2.697 4.278 4.398.716 1.688.604 3.348-.339 4.981-.727 1.26-1.786 2.03-3.177 2.309l6.406 3.699-2.468 4.275-19.003-10.971 2.307-3.996 1.342.605c-.542-1.406-.426-2.777.345-4.114.977-1.691 2.362-2.645 4.155-2.861 1.786-.221 3.769.298 5.951 1.558l.203.117zm-2.735 4.122c-2.435-1.407-4.063-1.399-4.884.022-.585 1.014-.612 1.901-.08 2.659l5.404 3.12c.976.068 1.752-.398 2.328-1.396.786-1.361.016-2.742-2.311-4.142l-.457-.263zm5.712-17.744l-3.12 5.404 10.428 6.02-2.476 4.288-13.726-7.925 5.596-9.692 3.298 1.905zM448.993 641.551c-1.251-.802-2.188-1.805-2.812-3.011-.615-1.201-.861-2.532-.738-3.995.118-1.454.602-2.917 1.452-4.389 1.401-2.427 3.295-3.882 5.682-4.364 2.388-.483 5.023.109 7.907 1.774l.913.527c1.81 1.045 3.211 2.271 4.203 3.678.995 1.421 1.519 2.935 1.571 4.544.061 1.614-.358 3.199-1.256 4.755-1.294 2.241-2.926 3.701-4.896 4.379-1.962.683-4.033.519-6.212-.491l2.563-4.44c1.145.615 2.116.798 2.914.549.798-.25 1.512-.92 2.142-2.011.64-1.108.694-2.159.163-3.154-.531-.994-1.698-2.029-3.502-3.104l-1.307-.755c-1.97-1.137-3.52-1.705-4.649-1.703-1.134.011-2.05.621-2.748 1.83-.591 1.024-.801 1.945-.632 2.765.17.819.769 1.549 1.798 2.188l-2.556 4.428zm-11.82 6.03c.367.009.855.11 1.465.304-.536-1.357-.396-2.742.42-4.155.747-1.294 1.77-2.169 3.071-2.624 1.309-.451 2.556-.335 3.74.349 1.488.859 2.295 2.058 2.422 3.597.126 1.539-.416 3.357-1.627 5.455l-.762 1.319.723.418c1.261.727 2.206.545 2.835-.546.586-1.015.38-1.81-.618-2.386l2.469-4.275c1.327.766 2.081 1.951 2.26 3.555.175 1.611-.243 3.293-1.254 5.043-1.011 1.751-2.236 2.887-3.676 3.409-1.44.521-2.912.365-4.415-.469l-6.077-3.508c-1.27-.711-2.346-1.073-3.229-1.086l-.216-.125 2.469-4.275zm4.336-1.065c-.308.532-.447 1.038-.419 1.517.023.487.135.889.334 1.208l2.195 1.267.718-1.244c.859-1.488.621-2.618-.716-3.389-.389-.225-.782-.277-1.178-.157-.388.126-.7.392-.934.798zm-14.898 19.358l2.476-4.288 5.087 2.937 2.16-3.742-5.087-2.937 2.469-4.275 13.726 7.925-2.468 4.275-5.354-3.091-2.161 3.742 5.354 3.091-2.476 4.288-13.726-7.925zm.064 10.964l.74-1.282-4.796-2.768 2.476-4.288 13.726 7.925-2.475 4.288-4.935-2.849-.711 1.23 3.675 5.031-3.164 5.481-4.028-7.671-.007.012-9.925.14 3.347-5.798 6.077.549zm-6.5 24.325l2.497-4.326-10.453-6.035 2.483-4.301 10.453 6.036 2.461-4.263 3.273 1.89-7.441 12.889-3.273-1.89zm-9.898 7.563l4.402-7.624 3.311 1.912-4.402 7.624-3.311-1.912zm-17.306 15.414l2.571-4.452 15.033 8.679 3.83-6.635-15.033-8.679 2.571-4.453 18.471 10.664-8.972 15.541-18.471-10.665zm-5.578 9.077c1.215-2.106 2.825-3.449 4.829-4.029 2.012-.575 4.024-.281 6.037.881l.355.205c1.404.811 2.494 1.784 3.271 2.92.771 1.144 1.16 2.384 1.168 3.719.015 1.34-.372 2.695-1.163 4.065-1.113 1.928-2.593 3.104-4.438 3.527-1.837.428-3.826.024-5.965-1.212l-1.662-.959 4.907-8.5c-.857-.292-1.655-.307-2.393-.045-.737.262-1.343.803-1.817 1.624-.781 1.353-.918 2.684-.41 3.992l-3.437.62c-.428-.957-.578-2.054-.452-3.289a8.844 8.844 0 011.17-3.519zm11.213 5.831c.723-1.252.324-2.474-1.197-3.668l-2.49 4.313.329.19c.676.413 1.304.545 1.886.396.591-.144 1.082-.554 1.472-1.231zm-11.698 19.734l2.498-4.326-10.454-6.035 2.483-4.3 10.454 6.035 2.46-4.263 3.273 1.89-7.441 12.889-3.273-1.89zm-14.999 1.253c1.216-2.106 2.826-3.449 4.829-4.029 2.012-.575 4.025-.281 6.038.881l.355.205c1.404.811 2.494 1.784 3.27 2.92.771 1.144 1.161 2.384 1.168 3.719.016 1.34-.372 2.695-1.163 4.065-1.113 1.928-2.592 3.104-4.438 3.527-1.837.428-3.825.024-5.965-1.212l-1.662-.959 4.908-8.5c-.858-.292-1.655-.307-2.393-.045-.738.262-1.343.803-1.817 1.624-.781 1.353-.918 2.684-.41 3.992l-3.437.62c-.428-.957-.579-2.054-.452-3.289.13-1.221.52-2.394 1.169-3.519zm11.214 5.831c.722-1.252.323-2.474-1.198-3.668l-2.49 4.313.33.19c.675.413 1.304.545 1.886.396.591-.144 1.081-.554 1.472-1.231zm-15.895 18.478c-2.132-1.23-3.557-2.696-4.278-4.397-.717-1.689-.604-3.349.339-4.981.727-1.26 1.786-2.03 3.177-2.31l-6.407-3.698 2.469-4.276 19.003 10.972-2.307 3.996-1.342-.605c.541 1.406.426 2.777-.345 4.113-.977 1.692-2.362 2.646-4.156 2.862-1.785.221-3.768-.299-5.95-1.558l-.203-.118zm2.734-4.121c2.436 1.406 4.064 1.399 4.884-.022.586-1.015.613-1.901.081-2.659l-5.404-3.121c-.976-.067-1.752.398-2.328 1.396-.786 1.362-.016 2.743 2.311 4.142l.456.264zm-1.79 16.811c-1.035 1.793-2.443 2.875-4.224 3.245-1.786.378-3.694-.018-5.723-1.19l-.178-.103c-1.286-.742-2.269-1.665-2.951-2.769a6.333 6.333 0 01-.938-3.62c.043-1.306.453-2.631 1.23-3.976 1.172-2.029 2.758-3.273 4.759-3.73 1.995-.449 4.135-.015 6.418 1.304l.406.234c3.12 1.824 5.283 3.76 6.49 5.81 1.207 2.051 1.44 4.254.699 6.612-.33 1.061-.481 1.791-.453 2.191.032.413.26.742.682.986l-1.984 3.438c-1.058-.611-1.766-1.239-2.125-1.887-.364-.638-.523-1.418-.477-2.338.05-.907.326-2.068.826-3.482.395-1.113.447-2.121.155-3.022-.288-.888-.917-1.742-1.887-2.561.381 1.742.14 3.361-.725 4.858zm-2.837-2.703c.904-1.565.273-2.972-1.892-4.222l-.203-.117c-2.123-1.226-3.641-1.048-4.554.534-.884 1.53-.321 2.899 1.69 4.104l.406.235c2.122 1.225 3.64 1.047 4.553-.534zm-11.816 11.97l6.42 6.751-2.644 4.58-12.792-14.845-.444-.578c-1.317-1.82-1.395-3.737-.233-5.75a7.7 7.7 0 011.272-1.617l3.057 1.765-.322.559c-.347.6-.522 1.108-.525 1.523-.016.419.156.834.516 1.246l.716.869 16.607 3.229-2.637 4.566-8.991-2.298zm-11.194 21.176c-2.131-1.231-3.557-2.697-4.277-4.398-.717-1.688-.604-3.349.338-4.981.728-1.26 1.787-2.03 3.177-2.31l-6.406-3.698 2.468-4.275 19.004 10.971-2.307 3.996-1.342-.605c.541 1.406.426 2.777-.346 4.114-.976 1.691-2.361 2.645-4.155 2.861-1.785.221-3.769-.299-5.951-1.558l-.203-.117zm2.735-4.122c2.436 1.406 4.064 1.399 4.884-.022.586-1.015.613-1.901.081-2.659l-5.404-3.12c-.976-.068-1.752.398-2.329 1.396-.786 1.361-.015 2.742 2.311 4.142l.457.263zm-5.711 17.744l3.12-5.404-10.428-6.02 2.475-4.288 13.727 7.925-5.596 9.692-3.298-1.905zm187.876-515.092v5.112h-8.906v7.574h8.906v5.141h-21.328v-5.141h8.467v-7.574h-8.467v-5.112h21.328zm-8.071-2.417c-1.582 0-2.988-.308-4.219-.923-1.24-.615-2.192-1.499-2.856-2.651-.664-1.153-.996-2.505-.996-4.058 0-2.373.737-4.243 2.211-5.61 1.465-1.367 3.462-2.051 5.992-2.051h.175c2.471 0 4.434.688 5.889 2.065 1.445 1.368 2.168 3.223 2.168 5.567 0 2.256-.674 4.067-2.021 5.434-1.358 1.368-3.194 2.105-5.508 2.212l-.835.015zm.307-4.937c1.465 0 2.539-.229 3.223-.688.684-.459 1.025-1.138 1.025-2.036 0-1.758-1.352-2.656-4.057-2.695h-.498c-2.842 0-4.263.908-4.263 2.724 0 1.651 1.226 2.544 3.677 2.681l.893.014zm7.764-12.861h-15.85v-6.797c0-2.177.381-3.843 1.143-4.995.762-1.162 1.86-1.743 3.296-1.743.732 0 1.392.254 1.978.762.576.507 1.02 1.25 1.333 2.226.214-1.26.634-2.231 1.259-2.915.616-.683 1.387-1.025 2.315-1.025 1.494 0 2.622.566 3.384 1.699.751 1.123 1.132 2.744 1.142 4.863v7.925zm-6.46-4.951h2.681v-2.886c0-.615-.108-1.054-.322-1.318-.215-.264-.542-.396-.982-.396-.879 0-1.338.508-1.377 1.524v3.076zm-3.047 0v-2.036c0-.596-.097-1.011-.293-1.245-.205-.244-.503-.367-.893-.367-.508 0-.865.147-1.07.44-.205.293-.307.747-.307 1.362v1.846h2.563zm1.436-10.942c-1.582 0-2.988-.308-4.219-.923-1.24-.616-2.192-1.499-2.856-2.652-.664-1.152-.996-2.505-.996-4.057 0-2.373.737-4.243 2.211-5.611 1.465-1.367 3.462-2.05 5.992-2.05h.175c2.471 0 4.434.688 5.889 2.065 1.445 1.367 2.168 3.223 2.168 5.566 0 2.256-.674 4.068-2.021 5.435-1.358 1.367-3.194 2.104-5.508 2.212l-.835.015zm.307-4.937c1.465 0 2.539-.229 3.223-.688.684-.459 1.025-1.138 1.025-2.037 0-1.757-1.352-2.656-4.057-2.695h-.498c-2.842 0-4.263.908-4.263 2.725 0 1.65 1.226 2.544 3.677 2.68l.893.015zm4.248-19.233c0-.694-.185-1.231-.556-1.612-.381-.381-.908-.566-1.582-.556v-4.629c1.738 0 3.164.625 4.277 1.875 1.113 1.24 1.67 2.842 1.67 4.804 0 2.305-.723 4.122-2.168 5.45-1.445 1.328-3.447 1.992-6.006 1.992h-.205c-1.601 0-3.013-.293-4.233-.879-1.231-.596-2.173-1.45-2.827-2.564-.664-1.113-.996-2.431-.996-3.955 0-2.06.571-3.696 1.713-4.907 1.143-1.211 2.691-1.816 4.644-1.816v4.629c-.82 0-1.45.2-1.89.6-.439.401-.659.938-.659 1.612 0 1.279.816 2.026 2.446 2.241.518.068 1.231.102 2.139.102 1.592 0 2.695-.19 3.311-.571.615-.381.922-.986.922-1.816zm-12.334-18.106v-4.951h15.85v4.951h-9.228l9.228 4.351v4.966h-15.85v-4.966h9.2l-9.2-4.351zm.879-15.923c0-2.07.679-3.711 2.037-4.922 1.357-1.22 3.208-1.831 5.551-1.831h.205c1.485 0 2.798.308 3.941.923a6.332 6.332 0 012.622 2.666c.615 1.153.923 2.505.923 4.058 0 2.344-.752 4.214-2.256 5.61-1.504 1.387-3.574 2.08-6.211 2.08h-.469c-3.613-.019-6.455-.615-8.525-1.787-2.071-1.172-3.374-2.964-3.911-5.376-.244-1.084-.479-1.792-.703-2.124-.235-.342-.596-.513-1.084-.513v-3.969c1.22 0 2.148.19 2.783.571.635.371 1.162.967 1.582 1.787.41.811.752 1.953 1.025 3.428.215 1.162.674 2.06 1.377 2.695.693.625 1.665 1.05 2.915 1.275-1.201-1.319-1.802-2.842-1.802-4.571zm3.809.923c0 1.807 1.25 2.71 3.75 2.71h.234c2.452 0 3.677-.913 3.677-2.739 0-1.768-1.172-2.671-3.516-2.71h-.468c-2.451 0-3.677.913-3.677 2.739zm-4.688-18.896v-4.951h15.85v4.951h-9.228l9.228 4.35v4.966h-15.85v-4.966h9.2l-9.2-4.35zm8.042-22.31c2.461 0 4.429.557 5.904 1.67 1.465 1.104 2.197 2.598 2.197 4.482 0 1.456-.532 2.652-1.597 3.589h7.398v4.937h-21.944v-4.614l1.465-.147c-1.172-.947-1.757-2.192-1.757-3.735 0-1.953.722-3.472 2.167-4.556 1.436-1.084 3.414-1.626 5.933-1.626h.234zm-.307 4.937c-2.813 0-4.219.82-4.219 2.461 0 1.171.42 1.953 1.26 2.343h6.24c.879-.429 1.318-1.22 1.318-2.373 0-1.572-1.357-2.383-4.072-2.431h-.527zm4.599-13.828c0-.694-.185-1.231-.556-1.612-.381-.381-.908-.566-1.582-.556v-4.629c1.738 0 3.164.625 4.277 1.875 1.113 1.24 1.67 2.841 1.67 4.804 0 2.305-.723 4.121-2.168 5.45-1.445 1.328-3.447 1.992-6.006 1.992h-.205c-1.601 0-3.013-.293-4.233-.879-1.231-.596-2.173-1.45-2.827-2.564-.664-1.113-.996-2.431-.996-3.955 0-2.06.571-3.696 1.713-4.907 1.143-1.211 2.691-1.816 4.644-1.816v4.629c-.82 0-1.45.2-1.89.6-.439.401-.659.938-.659 1.611 0 1.28.816 2.027 2.446 2.242.518.068 1.231.102 2.139.102 1.592 0 2.695-.19 3.311-.571.615-.381.922-.986.922-1.816zm-2.021-15.645v1.479h5.537v4.952h-15.85v-4.952h5.699v-1.42l-5.699-2.52v-6.328l7.325 4.629v-.015l8.525-5.083v6.695l-5.537 2.563zm-10.678 533.83v-5.112h8.906v-7.574h-8.906v-5.141h21.328v5.141h-8.467v7.574h8.467v5.112H511.01zm8.071 2.417c1.582 0 2.988.307 4.219.923 1.24.615 2.192 1.499 2.856 2.651.664 1.152.996 2.505.996 4.058 0 2.373-.737 4.243-2.212 5.61-1.464 1.367-3.461 2.051-5.991 2.051h-.176c-2.47 0-4.433-.689-5.888-2.066-1.446-1.367-2.168-3.222-2.168-5.566 0-2.256.674-4.067 2.021-5.435 1.358-1.367 3.194-2.104 5.508-2.212l.835-.014zm-.308 4.936c-1.464 0-2.539.23-3.222.689-.684.459-1.026 1.137-1.026 2.036 0 1.758 1.353 2.656 4.058 2.695h.498c2.842 0 4.263-.908 4.263-2.724 0-1.651-1.226-2.544-3.677-2.681l-.894-.015zm-7.763 12.862h15.849v6.797c0 2.177-.38 3.842-1.142 4.995-.762 1.162-1.861 1.743-3.296 1.743-.733 0-1.392-.254-1.978-.762-.576-.508-1.02-1.25-1.333-2.226-.214 1.259-.634 2.231-1.259 2.915-.616.683-1.387 1.025-2.315 1.025-1.494 0-2.622-.566-3.384-1.699-.752-1.123-1.132-2.744-1.142-4.864v-7.924zm6.46 4.951h-2.681v2.886c0 .615.107 1.054.322 1.318.215.264.542.395.982.395.879 0 1.338-.507 1.377-1.523v-3.076zm3.047 0v2.036c0 .596.097 1.011.293 1.245.205.244.502.366.893.366.508 0 .864-.146 1.069-.439.206-.293.308-.747.308-1.362v-1.846h-2.563zm-1.436 10.942c1.582 0 2.988.308 4.219.923 1.24.615 2.192 1.499 2.856 2.651.664 1.153.996 2.505.996 4.058 0 2.373-.737 4.243-2.212 5.61-1.464 1.368-3.461 2.051-5.991 2.051h-.176c-2.47 0-4.433-.688-5.888-2.065-1.446-1.367-2.168-3.223-2.168-5.567 0-2.256.674-4.067 2.021-5.434 1.358-1.367 3.194-2.105 5.508-2.212l.835-.015zm-.308 4.937c-1.464 0-2.539.229-3.222.688-.684.459-1.026 1.138-1.026 2.036 0 1.758 1.353 2.657 4.058 2.696h.498c2.842 0 4.263-.909 4.263-2.725 0-1.65-1.226-2.544-3.677-2.681l-.894-.014zm-4.248 19.233c0 .693.186 1.231.557 1.611.381.381.908.567 1.582.557v4.629c-1.738 0-3.164-.625-4.277-1.875-1.114-1.24-1.67-2.842-1.67-4.805 0-2.304.722-4.121 2.168-5.449 1.445-1.328 3.447-1.992 6.006-1.992h.205c1.601 0 3.012.293 4.233.879 1.231.596 2.173 1.45 2.827 2.563.664 1.114.996 2.432.996 3.955 0 2.061-.571 3.697-1.714 4.908-1.142 1.211-2.69 1.816-4.643 1.816v-4.629c.82 0 1.45-.2 1.89-.6.439-.401.659-.938.659-1.612 0-1.279-.816-2.026-2.447-2.241-.517-.068-1.23-.103-2.138-.103-1.592 0-2.696.191-3.311.572-.615.381-.923.986-.923 1.816zm12.334 18.106v4.951H511.01v-4.951h9.228l-9.228-4.351v-4.966h15.849v4.966h-9.199l9.199 4.351zm-.879 15.922c0 2.071-.678 3.711-2.036 4.922-1.357 1.221-3.208 1.831-5.551 1.831h-.206c-1.484 0-2.797-.307-3.94-.922a6.337 6.337 0 01-2.622-2.666c-.615-1.153-.923-2.505-.923-4.058 0-2.344.752-4.214 2.256-5.61 1.504-1.387 3.574-2.081 6.211-2.081h.469c3.613.02 6.455.616 8.525 1.788 2.07 1.171 3.374 2.963 3.911 5.376.244 1.084.479 1.792.703 2.124.235.341.596.512 1.084.512v3.97c-1.22 0-2.148-.19-2.783-.571-.635-.371-1.162-.967-1.582-1.787-.41-.811-.752-1.954-1.025-3.428-.215-1.162-.674-2.061-1.377-2.695-.694-.625-1.665-1.05-2.915-1.275 1.201 1.318 1.801 2.842 1.801 4.57zm-3.808-.922c0-1.807-1.25-2.71-3.75-2.71h-.235c-2.451 0-3.676.913-3.676 2.739 0 1.767 1.172 2.671 3.515 2.71h.469c2.451 0 3.677-.913 3.677-2.739zm4.687 18.896v4.951H511.01v-4.951h9.228l-9.228-4.351v-4.965h15.849v4.965h-9.199l9.199 4.351zm-8.042 22.31c-2.461 0-4.428-.557-5.903-1.67-1.465-1.104-2.197-2.598-2.197-4.483 0-1.455.532-2.651 1.596-3.589h-7.397v-4.936h21.943v4.614l-1.464.147c1.171.947 1.757 2.192 1.757 3.735 0 1.953-.722 3.472-2.168 4.556-1.435 1.084-3.413 1.626-5.932 1.626h-.235zm.308-4.937c2.812 0 4.219-.82 4.219-2.461 0-1.172-.42-1.953-1.26-2.344h-6.24c-.879.43-1.319 1.221-1.319 2.373 0 1.573 1.358 2.383 4.073 2.432h.527zm-4.6 13.828c0 .694.186 1.231.557 1.612.381.38.908.566 1.582.556v4.629c-1.738 0-3.164-.625-4.277-1.875-1.114-1.24-1.67-2.842-1.67-4.805 0-2.304.722-4.121 2.168-5.449 1.445-1.328 3.447-1.992 6.006-1.992h.205c1.601 0 3.012.293 4.233.879 1.231.596 2.173 1.45 2.827 2.563.664 1.114.996 2.432.996 3.955 0 2.061-.571 3.697-1.714 4.908-1.142 1.211-2.69 1.816-4.643 1.816v-4.629c.82 0 1.45-.2 1.89-.6.439-.401.659-.938.659-1.612 0-1.279-.816-2.026-2.447-2.241-.517-.068-1.23-.102-2.138-.102-1.592 0-2.696.19-3.311.571-.615.381-.923.986-.923 1.816zm2.022 15.645v-1.48h-5.537v-4.951h15.849v4.951h-5.698v1.421l5.698 2.52v6.328l-7.324-4.629v.015l-8.525 5.083V862.4l5.537-2.563zM372.663 266.081c1.801-1.04 3.588-1.627 5.361-1.759 1.773-.133 3.392.201 4.858 1.001 1.452.796 2.632 1.981 3.54 3.554.909 1.573 1.355 3.176 1.339 4.809-.024 1.638-.511 3.188-1.46 4.649-.954 1.453-2.293 2.699-4.015 3.739l-1.04.601c-1.81 1.044-3.595 1.635-5.354 1.771-1.773.133-3.392-.201-4.858-1.001-1.47-.809-2.662-2.004-3.575-3.585-.903-1.565-1.337-3.175-1.301-4.831.036-1.656.549-3.22 1.536-4.693.975-1.476 2.348-2.731 4.119-3.765l.85-.49zm1.841 4.975c-1.835 1.06-3.048 2.172-3.639 3.336-.604 1.161-.577 2.312.082 3.454 1.29 2.232 3.645 2.445 7.068.639l1.364-.771c1.81-1.045 3.028-2.149 3.654-3.311.626-1.162.597-2.335-.087-3.519-.649-1.125-1.627-1.716-2.935-1.773-1.307-.057-2.859.428-4.657 1.454l-.85.491zm-3.88-18.057l-10.801 2.092-3.106-5.379 13.727-7.925 2.475 4.288-7.611 4.395 9.208-1.629 1.64 2.841-5.696 6.774 7.205-4.161 2.476 4.288-13.726 7.925-3.033-5.252 7.242-8.257zm-8.228-18.119c-.346-.6-.775-.972-1.287-1.117-.521-.139-1.07-.036-1.649.309l-2.314-4.008c1.505-.87 3.053-1.041 4.642-.515 1.584.517 2.867 1.626 3.848 3.326 1.153 1.996 1.435 3.93.847 5.803-.587 1.873-1.989 3.449-4.205 4.728l-.177.103c-1.387.8-2.756 1.252-4.106 1.355-1.364.099-2.607-.169-3.73-.806-1.132-.632-2.079-1.608-2.84-2.927-1.031-1.785-1.354-3.487-.97-5.107.384-1.62 1.422-2.918 3.113-3.895l2.315 4.009c-.71.41-1.156.898-1.336 1.465-.181.566-.102 1.141.235 1.725.639 1.108 1.719 1.347 3.239.718.482-.2 1.117-.527 1.903-.981 1.379-.796 2.239-1.513 2.581-2.15.343-.638.307-1.316-.109-2.035zm-9.572-12.537l.739 1.281 4.796-2.769 2.475 4.288-13.726 7.925-2.476-4.288 4.935-2.849-.71-1.23-6.195.667-3.164-5.481 8.658.347-.008-.013 4.842-8.664 3.347 5.797-3.513 4.989zm318.382 554.86c-1.801 1.04-3.588 1.626-5.361 1.759-1.773.133-3.392-.201-4.858-1.001-1.452-.797-2.632-1.982-3.54-3.555-.908-1.573-1.355-3.176-1.339-4.809.024-1.637.511-3.187 1.46-4.648.954-1.453 2.293-2.7 4.015-3.739l1.041-.601c1.809-1.045 3.594-1.635 5.353-1.772 1.773-.132 3.392.201 4.858 1.002 1.47.808 2.662 2.003 3.575 3.585.904 1.565 1.337 3.175 1.301 4.831-.036 1.656-.548 3.22-1.536 4.693-.975 1.476-2.348 2.731-4.119 3.764l-.85.491zm-1.841-4.976c1.835-1.059 3.048-2.171 3.639-3.335.604-1.161.577-2.312-.082-3.454-1.289-2.233-3.645-2.446-7.067-.639l-1.365.771c-1.81 1.045-3.028 2.148-3.654 3.31-.626 1.162-.597 2.335.087 3.519.649 1.125 1.627 1.716 2.935 1.773 1.307.058 2.859-.427 4.657-1.454l.85-.491zm3.88 18.058l10.801-2.092 3.106 5.379-13.726 7.924-2.476-4.287 7.612-4.395-9.209 1.629-1.64-2.842 5.697-6.773-7.206 4.16-2.476-4.288 13.727-7.924 3.032 5.252-7.242 8.257zm8.228 18.118c.346.601.776.973 1.287 1.117.521.14 1.07.037 1.649-.309l2.314 4.009c-1.505.869-3.052 1.041-4.642.515-1.584-.517-2.867-1.626-3.848-3.326-1.152-1.996-1.435-3.93-.847-5.803.587-1.873 1.989-3.449 4.205-4.728l.178-.103c1.387-.801 2.755-1.253 4.105-1.355 1.364-.1 2.607.169 3.73.806 1.132.632 2.079 1.608 2.841 2.927 1.03 1.785 1.353 3.487.969 5.107s-1.422 2.918-3.113 3.895l-2.315-4.009c.711-.41 1.156-.899 1.336-1.465.181-.567.103-1.142-.234-1.725-.64-1.108-1.72-1.347-3.24-.718-.482.2-1.116.527-1.903.981-1.378.796-2.239 1.512-2.581 2.15-.343.637-.306 1.315.109 2.034zm9.573 12.538l-.74-1.281-4.795 2.768-2.476-4.288 13.726-7.924 2.476 4.287-4.935 2.85.71 1.23 6.195-.667 3.164 5.48-8.657-.346.007.012-4.842 8.665-3.347-5.797 3.514-4.989zM337.459 421.192l-6.565 4.397-5.087-2.937 10.452-6.179.073-12.373 5.138 2.967-.503 8.048 6.719-4.459 5.125 2.959-10.666 6.257-.138 12.133-5.074-2.93.526-7.883zm-10.122-22.284c-.008.367-.11.855-.304 1.464 1.358-.535 2.743-.395 4.155.42 1.294.748 2.169 1.771 2.625 3.072.451 1.309.334 2.555-.349 3.739-.86 1.489-2.059 2.296-3.598 2.423-1.539.126-3.357-.416-5.454-1.627l-1.32-.762-.417.723c-.728 1.26-.546 2.205.545 2.835 1.015.586 1.811.38 2.387-.618l4.275 2.469c-.767 1.327-1.952 2.081-3.555 2.26-1.612.175-3.293-.243-5.044-1.254-1.75-1.011-2.887-2.236-3.408-3.676-.522-1.44-.366-2.912.468-4.415l3.508-6.077c.711-1.27 1.073-2.346 1.087-3.229l.124-.216 4.275 2.469zm1.066 4.336c-.533-.308-1.039-.448-1.517-.419-.487.023-.89.134-1.208.334l-1.267 2.195 1.243.717c1.488.86 2.618.621 3.39-.715.225-.389.277-.782.156-1.178-.125-.389-.391-.7-.797-.934zm-21.833.96c-1.793-1.035-2.874-2.443-3.244-4.224-.379-1.786.018-3.694 1.19-5.724l.102-.177c.742-1.286 1.666-2.269 2.77-2.951a6.333 6.333 0 013.62-.938c1.305.043 2.63.453 3.975 1.229 2.03 1.172 3.273 2.759 3.731 4.759.449 1.996.014 4.136-1.304 6.419l-.235.406c-1.823 3.12-3.76 5.283-5.81 6.49-2.05 1.207-4.254 1.44-6.611.699-1.061-.331-1.792-.482-2.191-.453-.414.032-.742.259-.986.682l-3.438-1.985c.61-1.057 1.239-1.765 1.886-2.124.639-.365 1.418-.523 2.339-.477.907.05 2.067.325 3.481.826 1.114.395 2.121.447 3.023.155.888-.288 1.741-.917 2.561-1.887-1.742.381-3.362.139-4.859-.725zm2.703-2.837c1.565.903 2.972.273 4.222-1.892l.118-.203c1.225-2.123 1.047-3.641-.534-4.554-1.531-.884-2.899-.321-4.105 1.689l-.234.406c-1.226 2.123-1.048 3.641.533 4.554zm-10.758-19.1c-.009.367-.11.855-.304 1.465 1.357-.536 2.742-.396 4.155.42 1.294.747 2.169 1.771 2.624 3.071.451 1.309.335 2.556-.349 3.74-.859 1.488-2.058 2.296-3.597 2.422-1.539.126-3.357-.416-5.455-1.627l-1.319-.761-.417.723c-.728 1.26-.546 2.205.545 2.835 1.015.586 1.81.38 2.386-.618l4.275 2.468c-.766 1.328-1.951 2.081-3.554 2.261-1.612.174-3.293-.244-5.044-1.255-1.751-1.01-2.887-2.236-3.409-3.676-.521-1.44-.365-2.912.469-4.415l3.508-6.076c.711-1.27 1.073-2.347 1.086-3.23l.125-.215 4.275 2.468zm1.065 4.336c-.532-.307-1.038-.447-1.517-.419-.487.023-.889.135-1.208.334l-1.267 2.195 1.244.718c1.488.859 2.618.621 3.39-.715.224-.389.276-.782.156-1.179-.126-.388-.392-.699-.798-.934zm-23.782-8.436c1.231-2.132 2.696-3.557 4.398-4.278 1.688-.717 3.348-.604 4.98.339 1.261.727 2.03 1.786 2.31 3.177l3.699-6.407 4.275 2.469-10.972 19.003-3.996-2.307.606-1.342c-1.406.541-2.778.426-4.114-.345-1.691-.977-2.645-2.362-2.861-4.156-.221-1.785.298-3.768 1.558-5.95l.117-.203zm4.121 2.734c-1.406 2.436-1.399 4.064.022 4.884 1.015.586 1.902.613 2.66.081l3.12-5.404c.067-.976-.398-1.752-1.396-2.328-1.362-.786-2.742-.016-4.142 2.311l-.264.456zm-5.61-3.29c-.791 1.37-1.761 2.434-2.909 3.192-1.153.767-2.394 1.15-3.724 1.149-1.33-.002-2.667-.39-4.012-1.167-2.055-1.186-3.306-2.76-3.753-4.72-.452-1.953-.045-4.024 1.22-6.214l.088-.153c1.235-2.139 2.813-3.495 4.733-4.067 1.906-.568 3.874-.266 5.904.906 1.954 1.128 3.186 2.617 3.696 4.468.505 1.859.226 3.818-.838 5.876l-.405.73zm-4.122-2.734c.733-1.269 1.071-2.314 1.016-3.135-.056-.822-.473-1.457-1.251-1.907-1.522-.878-2.977-.156-4.363 2.167l-.249.431c-1.421 2.461-1.345 4.146.228 5.054 1.429.825 2.816.211 4.16-1.844l.459-.766zm-7.256-13.155l-7.925 13.727-5.886-3.399c-1.886-1.089-3.138-2.251-3.755-3.487-.625-1.241-.579-2.483.139-3.726.366-.634.915-1.078 1.648-1.332.728-.245 1.593-.258 2.595-.041-.984-.816-1.615-1.665-1.895-2.548-.284-.875-.194-1.714.27-2.517.747-1.294 1.801-1.988 3.163-2.081 1.349-.09 2.943.391 4.783 1.442l6.863 3.962zm-7.518 3.119l1.341-2.321-2.5-1.443c-.532-.308-.967-.434-1.302-.38-.336.054-.614.272-.834.652-.439.761-.229 1.413.631 1.954l2.664 1.538zm-1.523 2.639l-1.764-1.018c-.515-.298-.924-.421-1.224-.369-.314.056-.569.253-.764.591-.254.44-.306.822-.154 1.146.151.324.493.64 1.026.947l1.598.923 1.282-2.22zm-12.824-14.322c-.6-.346-1.158-.454-1.674-.323-.52.139-.944.503-1.273 1.091l-4.009-2.314c.87-1.505 2.124-2.428 3.763-2.767 1.631-.344 3.296-.025 4.996.956 1.996 1.153 3.208 2.687 3.635 4.602.428 1.916.002 3.982-1.278 6.198l-.102.177c-.801 1.387-1.76 2.463-2.878 3.227-1.131.768-2.342 1.157-3.634 1.167-1.296.018-2.603-.353-3.923-1.115-1.784-1.03-2.915-2.343-3.393-3.938-.477-1.595-.228-3.238.749-4.93l4.009 2.315c-.41.71-.552 1.356-.425 1.937.127.58.482 1.039 1.066 1.376 1.108.64 2.163.307 3.164-.998.318-.414.704-1.014 1.158-1.801.796-1.378 1.183-2.429 1.161-3.152-.023-.724-.393-1.293-1.112-1.708zm-14.559-6.071l1.281.739 2.769-4.795 4.287 2.476-7.924 13.726-4.288-2.476 2.849-4.935-1.231-.71-5.031 3.675-5.48-3.164 7.671-4.029-.013-.007-.139-9.925 5.797 3.348-.548 6.077zm485.631 277.391l6.564-4.397 5.087 2.937-10.451 6.178-.074 12.373-5.137-2.966.502-8.049-6.719 4.46-5.125-2.959 10.666-6.257.138-12.133 5.074 2.929-.525 7.884zm10.121 22.284c.009-.367.11-.855.304-1.465-1.358.535-2.743.395-4.155-.42-1.294-.747-2.169-1.771-2.625-3.071-.45-1.309-.334-2.556.35-3.74.859-1.488 2.058-2.296 3.597-2.422 1.539-.127 3.357.416 5.454 1.627l1.32.761.417-.723c.728-1.26.546-2.205-.545-2.835-1.015-.586-1.81-.38-2.386.618l-4.276-2.468c.767-1.328 1.952-2.081 3.555-2.261 1.612-.174 3.293.244 5.044 1.254 1.751 1.011 2.887 2.237 3.408 3.677.522 1.44.366 2.912-.468 4.415l-3.508 6.076c-.711 1.27-1.073 2.347-1.087 3.23l-.124.215-4.275-2.468zm-1.066-4.336c.533.307 1.039.447 1.517.419.487-.023.89-.135 1.208-.335l1.267-2.194-1.243-.718c-1.488-.859-2.618-.621-3.39.715-.224.389-.276.782-.156 1.179.126.388.391.699.797.934zm21.833-.961c1.793 1.036 2.875 2.444 3.245 4.225.378 1.786-.019 3.693-1.191 5.723l-.102.178c-.742 1.285-1.665 2.269-2.769 2.951a6.343 6.343 0 01-3.62.938c-1.306-.044-2.631-.454-3.976-1.23-2.03-1.172-3.273-2.758-3.731-4.759-.449-1.996-.014-4.135 1.305-6.419l.234-.406c1.823-3.119 3.76-5.282 5.81-6.489 2.05-1.207 4.254-1.44 6.612-.699 1.06.33 1.791.481 2.191.453.413-.032.741-.26.986-.683l3.437 1.985c-.61 1.057-1.239 1.765-1.886 2.125-.639.364-1.418.523-2.339.476-.907-.05-2.067-.325-3.481-.826-1.114-.395-2.121-.446-3.022-.155-.888.288-1.742.917-2.562 1.888 1.743-.382 3.362-.14 4.859.724zm-2.703 2.837c-1.565-.903-2.972-.272-4.222 1.893l-.117.203c-1.226 2.123-1.048 3.641.534 4.554 1.53.883 2.899.32 4.104-1.69l.235-.406c1.225-2.123 1.047-3.641-.534-4.554zm10.758 19.101c.009-.367.111-.856.305-1.465-1.358.535-2.743.395-4.156-.42-1.294-.747-2.168-1.771-2.624-3.072-.451-1.309-.335-2.555.349-3.739.859-1.489 2.058-2.296 3.597-2.423 1.539-.126 3.357.416 5.455 1.627l1.319.762.418-.723c.727-1.26.545-2.205-.546-2.835-1.014-.586-1.81-.38-2.386.618l-4.275-2.468c.766-1.328 1.951-2.082 3.555-2.261 1.611-.175 3.293.243 5.043 1.254 1.751 1.011 2.887 2.236 3.409 3.676.522 1.441.365 2.912-.469 4.415l-3.508 6.077c-.71 1.27-1.073 2.346-1.086 3.229l-.125.216-4.275-2.468zm-1.065-4.337c.533.308 1.038.448 1.517.419.487-.023.889-.134 1.208-.334l1.267-2.195-1.243-.717c-1.489-.86-2.619-.621-3.39.715-.225.389-.277.782-.156 1.178.125.389.391.7.797.934zm23.782 8.437c-1.23 2.131-2.696 3.557-4.398 4.277-1.688.717-3.348.604-4.98-.338-1.26-.728-2.03-1.787-2.31-3.177l-3.699 6.406-4.275-2.468 10.972-19.004 3.996 2.307-.606 1.342c1.407-.541 2.778-.426 4.114.346 1.692.976 2.645 2.361 2.861 4.155.221 1.785-.298 3.769-1.558 5.951l-.117.203zm-4.121-2.735c1.406-2.436 1.399-4.064-.022-4.884-1.015-.586-1.901-.613-2.66-.081l-3.12 5.404c-.067.976.398 1.752 1.396 2.329 1.362.786 2.742.015 4.142-2.311l.264-.457zm5.61 3.29c.791-1.37 1.761-2.434 2.909-3.192 1.153-.766 2.394-1.149 3.724-1.148 1.33.001 2.668.39 4.012 1.166 2.055 1.187 3.306 2.76 3.753 4.721.452 1.952.045 4.023-1.219 6.214l-.088.152c-1.236 2.14-2.813 3.495-4.733 4.067-1.907.568-3.875.266-5.905-.906-1.954-1.128-3.186-2.617-3.696-4.468-.505-1.859-.226-3.817.839-5.875l.404-.731zm4.122 2.735c-.733 1.268-1.071 2.313-1.015 3.135.055.821.472 1.457 1.25 1.906 1.523.879 2.977.157 4.363-2.166l.249-.432c1.421-2.461 1.345-4.145-.228-5.054-1.429-.825-2.816-.21-4.16 1.844l-.459.767zm7.256 13.154l7.925-13.726 5.886 3.398c1.886 1.089 3.138 2.251 3.755 3.487.625 1.241.579 2.483-.139 3.726-.366.635-.915 1.078-1.648 1.332-.728.245-1.593.259-2.595.041.984.816 1.615 1.666 1.895 2.549.284.874.195 1.713-.269 2.517-.747 1.294-1.802 1.987-3.164 2.081-1.348.089-2.943-.392-4.783-1.443l-6.863-3.962zm7.518-3.119l-1.34 2.322 2.499 1.442c.533.308.967.435 1.303.381.335-.055.613-.272.833-.653.439-.761.229-1.412-.631-1.954l-2.664-1.538zm1.523-2.639l1.764 1.018c.516.298.924.421 1.224.369.314-.055.569-.252.764-.59.254-.44.306-.822.155-1.146-.152-.324-.494-.64-1.026-.948l-1.599-.923-1.282 2.22zm12.824 14.322c.601.347 1.158.455 1.674.324.52-.14.944-.503 1.273-1.092l4.009 2.315c-.869 1.505-2.124 2.427-3.763 2.766-1.63.344-3.296.026-4.996-.956-1.996-1.152-3.207-2.686-3.635-4.602-.427-1.916-.002-3.981 1.278-6.197l.102-.178c.801-1.387 1.76-2.462 2.878-3.227 1.131-.767 2.342-1.156 3.634-1.166 1.296-.019 2.604.353 3.923 1.115 1.784 1.03 2.915 2.342 3.393 3.937.477 1.595.228 3.239-.749 4.93l-4.009-2.314c.411-.711.552-1.356.425-1.937-.127-.581-.482-1.04-1.066-1.377-1.108-.639-2.162-.307-3.164.998-.318.414-.704 1.015-1.158 1.801-.796 1.379-1.183 2.43-1.161 3.153.023.723.393 1.292 1.112 1.707zm14.559 6.072l-1.281-.74-2.768 4.795-4.288-2.475 7.925-13.726 4.287 2.475-2.849 4.935 1.231.71 5.031-3.675 5.48 3.164-7.671 4.029.013.007.139 9.925-5.797-3.347.548-6.077zm-45.004-334.278l-8.005 4.622 1.685 2.917 2.296-1.325c1.463-.845 2.901-1.343 4.314-1.493 1.413-.15 2.683.058 3.811.624 1.131.554 2.036 1.418 2.715 2.594 1.05 1.818 1.225 3.685.526 5.599-.69 1.91-2.173 3.521-4.448 4.835l-6.698 3.867-10.664-18.471 12.483-7.207 1.985 3.438zm-4.343 10.965l3.04 5.264 2.283-1.318c.905-.522 1.473-1.189 1.705-1.999.239-.815.127-1.624-.336-2.428-.44-.761-1.056-1.223-1.849-1.385-.793-.162-1.654.025-2.585.562l-2.258 1.304zm20.917-18.792l7.924 13.727-4.275 2.468-6.02-10.428-2.563 1.48 2.196 4.33c1.041 2.174 1.47 4.001 1.287 5.482-.182 1.481-1.036 2.667-2.562 3.56l-1.345.776-1.94-3.244.415-.307c.527-.394.728-1.013.604-1.854-.122-.854-.547-2.001-1.277-3.441l-3.278-6.294 10.834-6.255zm10.313-5.954l4.288-2.476 7.925 13.726-4.288 2.476-4.614-7.992.846 10.167-4.3 2.483-7.925-13.726 4.3-2.483 4.6 7.967-.832-10.142zm6.495-3.75l4.276-2.468 6.02 10.427 3.78-2.182-6.02-10.428 4.3-2.483 6.036 10.453 2.258-1.303 3.987 7.491-4.034 2.329-2.351-4.072-10.327 5.962-7.925-13.726zM308.449 653.423l-11.543-10.471 3.309 15.224-5.861 3.384-10.664-18.471 4.466-2.578 2.49 4.314 4.666 9.078-3.122-15.721 2.943-1.699 12.073 10.57-5.536-8.593-2.49-4.313 4.453-2.571 10.664 18.47-5.848 3.377zm-22.829-2.128c.791 1.37 1.228 2.742 1.31 4.115.088 1.382-.202 2.648-.868 3.8-.665 1.151-1.671 2.115-3.016 2.891-2.055 1.187-4.043 1.483-5.964.89-1.917-.585-3.507-1.973-4.772-4.164l-.088-.152c-1.235-2.139-1.62-4.184-1.155-6.132.461-1.935 1.707-3.489 3.736-4.661 1.954-1.128 3.86-1.45 5.718-.967 1.862.492 3.419 1.714 4.669 3.664l.43.716zm-4.429 2.202c-.732-1.269-1.468-2.084-2.207-2.447-.74-.362-1.498-.319-2.276.13-1.523.879-1.624 2.5-.306 4.862l.249.431c1.421 2.461 2.918 3.238 4.491 2.33 1.429-.825 1.591-2.334.483-4.525l-.434-.781zm-18.78 5.938c-.601.346-.973.776-1.118 1.288-.139.52-.036 1.069.309 1.648l-4.008 2.314c-.869-1.505-1.041-3.052-.515-4.641.517-1.585 1.626-2.867 3.326-3.849 1.996-1.152 3.93-1.435 5.803-.847 1.873.588 3.449 1.989 4.728 4.205l.103.178c.801 1.387 1.252 2.755 1.355 4.105.1 1.364-.169 2.607-.806 3.731-.632 1.131-1.608 2.078-2.927 2.84-1.785 1.03-3.487 1.353-5.107.969s-2.918-1.422-3.895-3.113l4.009-2.315c.41.711.898 1.156 1.465 1.337.566.18 1.141.102 1.725-.235 1.108-.64 1.347-1.72.718-3.239-.2-.483-.527-1.117-.981-1.904-.796-1.378-1.512-2.239-2.15-2.581-.637-.343-1.316-.306-2.034.109zm-12.538 9.573l1.281-.74-2.768-4.795 4.287-2.476 7.925 13.726-4.288 2.476-2.849-4.935-1.23.711.667 6.194-5.481 3.164.347-8.657-.013.007-8.664-4.842 5.797-3.347 4.989 3.514zm-12.093.588l7.925 13.726-5.886 3.398c-1.886 1.089-3.519 1.592-4.898 1.508-1.387-.078-2.439-.739-3.157-1.982-.366-.635-.476-1.332-.329-2.094.151-.753.572-1.509 1.262-2.267-1.199.443-2.25.566-3.155.366-.899-.191-1.581-.688-2.045-1.492-.747-1.294-.821-2.554-.22-3.78.596-1.212 1.81-2.353 3.64-3.421l6.863-3.962zm-1.058 8.07l-1.34-2.322-2.499 1.443c-.533.308-.86.621-.981.938-.121.318-.071.668.148 1.048.44.761 1.109.905 2.008.431l2.664-1.538zm1.524 2.639l-1.764 1.018c-.516.297-.826.59-.932.876-.108.3-.065.619.13.957.254.44.559.675.915.706.357.031.801-.107 1.334-.415l1.598-.922-1.281-2.22zm-22.501 2.013c.313.191.685.523 1.116.996.215-1.444 1.029-2.573 2.441-3.388 1.294-.748 2.618-.993 3.973-.738 1.359.264 2.38.988 3.064 2.172.859 1.489.959 2.931.299 4.327-.66 1.396-2.039 2.699-4.136 3.91l-1.32.762.418.723c.727 1.26 1.636 1.575 2.727.946 1.015-.586 1.235-1.378.659-2.376l4.275-2.469c.766 1.328.826 2.731.18 4.209-.655 1.484-1.857 2.731-3.608 3.741-1.751 1.011-3.38 1.382-4.888 1.114-1.508-.268-2.704-1.139-3.589-2.613l-3.509-6.077c-.744-1.25-1.495-2.102-2.253-2.555l-.125-.216 4.276-2.468zm4.288 1.245c-.533.308-.907.676-1.122 1.105-.223.433-.328.838-.314 1.213l1.267 2.195 1.243-.718c1.489-.86 1.847-1.957 1.076-3.294-.225-.389-.539-.63-.943-.724-.399-.085-.801-.011-1.207.223zm478.549-163.225h-8.086v5.083h9.55v3.955h-14.692v-21.328h14.722v3.97h-9.58v4.497h8.086v3.823zm10.092 3.501h-1.479v5.537h-4.951v-15.85h4.951v5.699h1.421l2.519-5.699h6.328l-4.629 7.325h.015l5.083 8.525h-6.694l-2.564-5.537zm19.366 5.537c-.176-.322-.332-.796-.469-1.421-.908 1.143-2.178 1.714-3.809 1.714-1.494 0-2.763-.449-3.808-1.348-1.045-.908-1.568-2.046-1.568-3.413 0-1.719.635-3.017 1.905-3.896 1.269-.879 3.115-1.319 5.537-1.319h1.523v-.835c0-1.455-.63-2.182-1.89-2.182-1.171 0-1.757.576-1.757 1.728h-4.937c0-1.533.65-2.778 1.948-3.735 1.309-.957 2.974-1.436 4.995-1.436 2.022 0 3.619.494 4.79 1.48 1.172.986 1.773 2.339 1.802 4.058v7.016c.02 1.455.244 2.568.674 3.34v.249h-4.936zm-3.091-3.223c.615 0 1.123-.132 1.523-.395.41-.264.703-.562.879-.894v-2.534h-1.435c-1.719 0-2.579.772-2.579 2.315 0 .449.152.815.455 1.098.302.274.688.41 1.157.41zm23.745-8.847h-4.995v12.07h-4.966v-12.07h-4.922v-3.78h14.883v3.78zm8.584 12.363c-2.432 0-4.4-.723-5.903-2.168-1.504-1.455-2.256-3.345-2.256-5.669v-.41c0-1.621.298-3.052.893-4.292.606-1.24 1.485-2.197 2.637-2.871 1.152-.684 2.519-1.026 4.101-1.026 2.227 0 3.985.694 5.274 2.08 1.289 1.377 1.934 3.301 1.934 5.772v1.919h-9.815c.176.889.562 1.587 1.157 2.095.596.507 1.367.761 2.315.761 1.562 0 2.783-.547 3.662-1.64l2.256 2.666c-.616.849-1.49 1.528-2.622 2.036-1.123.498-2.334.747-3.633.747zm-.557-12.627c-1.445 0-2.304.957-2.578 2.871h4.981v-.381c.019-.791-.181-1.401-.601-1.831-.42-.439-1.021-.659-1.802-.659zm23.95 4.526c0 2.461-.556 4.429-1.67 5.904-1.103 1.465-2.597 2.197-4.482 2.197-1.455 0-2.651-.532-3.589-1.597v7.398h-4.936v-21.944h4.614l.146 1.465c.948-1.172 2.193-1.758 3.736-1.758 1.953 0 3.471.723 4.555 2.168 1.084 1.436 1.626 3.413 1.626 5.933v.234zm-4.936-.307c0-2.813-.82-4.219-2.461-4.219-1.172 0-1.953.42-2.344 1.26v6.24c.43.879 1.221 1.318 2.373 1.318 1.572 0 2.383-1.357 2.432-4.072v-.527zm16.348-7.735h4.951v15.85h-4.951v-9.229l-4.351 9.229h-4.966v-15.85h4.966v9.2l4.351-9.2zm21.709 15.85h-4.952v-5.874h-4.321v5.874h-4.936v-15.85h4.936v6.182h4.321v-6.182h4.952v15.85zm11.03-14.971c2.07 0 3.711.679 4.922 2.036 1.22 1.358 1.831 3.208 1.831 5.552v.205c0 1.485-.308 2.798-.923 3.941a6.337 6.337 0 01-2.666 2.622c-1.153.615-2.505.923-4.058.923-2.344 0-4.214-.752-5.61-2.256-1.387-1.504-2.08-3.574-2.08-6.211v-.469c.019-3.613.615-6.455 1.787-8.525 1.172-2.071 2.964-3.374 5.376-3.911 1.084-.245 1.792-.479 2.124-.704.342-.234.513-.595.513-1.084h3.969c0 1.221-.19 2.149-.571 2.784-.371.634-.967 1.162-1.787 1.582-.811.41-1.953.752-3.428 1.025-1.162.215-2.06.674-2.695 1.377-.625.693-1.05 1.665-1.275 2.915 1.319-1.201 2.842-1.802 4.571-1.802zm-.923 3.809c-1.807 0-2.71 1.25-2.71 3.75v.234c0 2.451.913 3.677 2.739 3.677 1.768 0 2.671-1.172 2.71-3.516v-.468c0-2.452-.913-3.677-2.739-3.677zm16.274 4.248l2.637-8.936h5.288l-6.46 18.501-.278.674c-.918 2.051-2.539 3.076-4.863 3.076a7.685 7.685 0 01-2.037-.293v-3.53h.645c.693 0 1.221-.102 1.582-.308.371-.195.645-.551.82-1.069l.396-1.055-5.508-15.996h5.273l2.505 8.936zm23.936-.894c0 2.461-.557 4.429-1.67 5.904-1.104 1.465-2.598 2.197-4.482 2.197-1.456 0-2.652-.532-3.589-1.597v7.398h-4.937v-21.944h4.614l.147 1.465c.947-1.172 2.192-1.758 3.735-1.758 1.953 0 3.472.723 4.556 2.168 1.084 1.436 1.626 3.413 1.626 5.933v.234zm-4.937-.307c0-2.813-.82-4.219-2.461-4.219-1.171 0-1.953.42-2.343 1.26v6.24c.429.879 1.22 1.318 2.373 1.318 1.572 0 2.383-1.357 2.431-4.072v-.527zm18.223-3.926h-6.24v12.041h-4.951v-15.85h11.191v3.809zm-531.848 1.355h8.086v-5.083h-9.551v-3.955h14.692v21.328h-14.721v-3.97h9.58v-4.497h-8.086v-3.823zm-10.093-3.501h1.48v-5.537h4.951v15.85h-4.951v-5.699h-1.421l-2.52 5.699h-6.328l4.629-7.325h-.015l-5.083-8.525h6.695l2.563 5.537zm-19.365-5.537c.176.322.332.796.469 1.421.908-1.143 2.177-1.714 3.808-1.714 1.494 0 2.764.449 3.809 1.348 1.045.908 1.567 2.046 1.567 3.413 0 1.719-.635 3.017-1.904 3.896-1.27.879-3.115 1.319-5.537 1.319h-1.524v.835c0 1.455.63 2.182 1.89 2.182 1.172 0 1.758-.576 1.758-1.728h4.936c0 1.533-.649 2.778-1.948 3.735-1.309.957-2.974 1.436-4.995 1.436-2.022 0-3.618-.493-4.79-1.48-1.172-.986-1.773-2.339-1.802-4.057v-7.017c-.019-1.455-.244-2.568-.674-3.34v-.249h4.937zm3.091 3.223c-.616 0-1.123.132-1.524.395-.41.264-.703.562-.879.894v2.534h1.436c1.719 0 2.578-.771 2.578-2.314 0-.45-.151-.816-.454-1.099-.303-.274-.689-.41-1.157-.41zm-23.745 8.847h4.995v-12.07h4.966v12.07h4.921v3.78h-14.882v-3.78zm-8.584-12.363c2.431 0 4.399.723 5.903 2.168 1.504 1.455 2.256 3.345 2.256 5.669v.41c0 1.621-.298 3.052-.894 4.292-.605 1.24-1.484 2.197-2.637 2.871-1.152.684-2.519 1.026-4.101 1.026-2.227 0-3.984-.694-5.274-2.08-1.289-1.377-1.933-3.301-1.933-5.772v-1.919h9.814c-.175-.889-.561-1.587-1.157-2.095-.596-.507-1.367-.761-2.314-.761-1.563 0-2.784.547-3.662 1.64l-2.256-2.666c.615-.849 1.489-1.528 2.622-2.036 1.123-.498 2.334-.747 3.633-.747zm.556 12.627c1.446 0 2.305-.957 2.578-2.871h-4.98v.381c-.02.791.181 1.401.6 1.831.42.439 1.021.659 1.802.659zm-23.95-4.526c0-2.461.557-4.429 1.67-5.904 1.103-1.464 2.598-2.197 4.482-2.197 1.455 0 2.652.532 3.589 1.597v-7.398h4.937v21.944h-4.614l-.147-1.465c-.947 1.172-2.192 1.758-3.735 1.758-1.953 0-3.472-.723-4.556-2.168-1.084-1.436-1.626-3.413-1.626-5.933v-.234zm4.937.307c0 2.813.82 4.219 2.46 4.219 1.172 0 1.954-.42 2.344-1.26v-6.24c-.429-.879-1.22-1.318-2.373-1.318-1.572 0-2.383 1.357-2.431 4.072v.527zm-16.348 7.735h-4.951v-15.85h4.951v9.229l4.35-9.229h4.966v15.85h-4.966v-9.2l-4.35 9.2zm-21.709-15.85h4.951v5.874h4.321v-5.874h4.937v15.85h-4.937v-6.182h-4.321v6.182h-4.951v-15.85zm-11.03 14.971c-2.071 0-3.711-.679-4.922-2.036-1.221-1.358-1.831-3.208-1.831-5.552v-.205c0-1.485.307-2.798.923-3.941a6.338 6.338 0 012.666-2.622c1.152-.615 2.504-.923 4.057-.923 2.344 0 4.214.752 5.611 2.256 1.386 1.504 2.08 3.575 2.08 6.211v.469c-.02 3.613-.616 6.455-1.787 8.525-1.172 2.071-2.964 3.374-5.376 3.912-1.084.244-1.792.478-2.124.703-.342.234-.513.595-.513 1.084h-3.97c0-1.221.191-2.149.571-2.784.371-.634.967-1.162 1.788-1.582.81-.41 1.953-.752 3.427-1.025 1.162-.215 2.061-.674 2.696-1.377.625-.693 1.049-1.665 1.274-2.915-1.318 1.201-2.842 1.802-4.57 1.802zm.923-3.809c1.806 0 2.709-1.25 2.709-3.75v-.234c0-2.451-.913-3.677-2.739-3.677-1.767 0-2.671 1.172-2.71 3.516v.468c0 2.452.913 3.677 2.74 3.677zm-16.275-4.248l-2.637 8.936h-5.288l6.46-18.501.279-.674c.918-2.051 2.539-3.076 4.863-3.076.644 0 1.323.097 2.036.293v3.53h-.645c-.693 0-1.22.103-1.582.308-.371.195-.644.551-.82 1.069l-.395 1.055 5.507 15.996h-5.273l-2.505-8.936zm-23.935.894c0-2.461.556-4.429 1.669-5.904 1.104-1.464 2.598-2.197 4.483-2.197 1.455 0 2.651.532 3.589 1.597v-7.398h4.936v21.944h-4.614l-.146-1.465c-.948 1.172-2.193 1.758-3.736 1.758-1.953 0-3.471-.723-4.555-2.168-1.084-1.436-1.626-3.413-1.626-5.933v-.234zm4.936.307c0 2.813.82 4.219 2.461 4.219 1.172 0 1.953-.42 2.344-1.26v-6.24c-.43-.879-1.221-1.318-2.373-1.318-1.573 0-2.383 1.357-2.432 4.072v.527zm-18.223 3.926h6.241v-12.041h4.951v15.85h-11.192v-3.809z" fill="#fff"/></svg>