<svg width="1043" height="1043" viewBox="0 0 1043 1043" fill="none" xmlns="http://www.w3.org/2000/svg">
<path d="M656.84 17.7916C745.178 41.4618 825.729 87.9681 890.398 152.636L521.995 521.039L656.84 17.7916Z" fill="#842828"/>
<path d="M153.592 152.637C218.26 87.9684 298.812 41.462 387.15 17.7918L521.995 521.039L153.592 152.637Z" fill="#842828"/>
<path d="M18.457 655.806C-5.21325 567.468 -5.21327 474.455 18.4569 386.117L521.704 520.961L18.457 655.806Z" fill="#842828"/>
<path d="M387.15 1024.29C298.812 1000.62 218.168 954.168 153.5 889.5L521.995 521.039L387.15 1024.29Z" fill="#842828"/>
<path d="M890.397 889.442C825.729 954.11 745.178 1000.62 656.839 1024.29L521.995 521.039L890.397 889.442Z" fill="#842828"/>
<path d="M1024.95 386.116C1048.62 474.455 1048.62 567.468 1024.95 655.806L521.704 520.961L1024.95 386.116Z" fill="#842828"/>
<path d="M656.84 17.7916C568.501 -5.8786 475.489 -5.87861 387.15 17.7916L521.995 521.039L656.84 17.7916Z" fill="#AA432D"/>
<path d="M153.593 152.636C88.9244 217.305 42.418 297.856 18.7478 386.194L521.995 521.039L153.593 152.636Z" fill="#AA432D"/>
<path d="M18.4571 655.806C42.1273 744.144 88.6337 824.696 153.302 889.364L521.704 520.961L18.4571 655.806Z" fill="#AA432D"/>
<path d="M387.15 1024.29C475.489 1047.96 568.501 1047.96 656.84 1024.29L521.995 521.039L387.15 1024.29Z" fill="#AA432D"/>
<path d="M890.397 889.442C955.065 824.773 1001.57 744.222 1025.24 655.884L521.995 521.039L890.397 889.442Z" fill="#AA432D"/>
<path d="M1024.95 386.116C1001.28 297.778 954.775 217.227 890.107 152.559L521.704 520.961L1024.95 386.116Z" fill="#AA2D69"/>
<circle cx="521.995" cy="521.039" r="386" fill="black" fill-opacity="0.32"/>
<path d="M740.434 171.332L699.19 147.52L704.346 138.589L734.876 129.585C742.636 126.957 747.422 124.073 749.235 120.933C750.703 118.389 751.266 116.134 750.922 114.167C750.578 112.201 749.35 110.608 747.24 109.389C745.156 108.186 742.949 108.103 740.618 109.139C738.304 110.148 736.381 111.978 734.849 114.631L721.128 106.709C723.222 103.082 726.058 100.263 729.637 98.2522C733.232 96.2138 737.139 95.2583 741.36 95.3857C745.58 95.513 749.68 96.7251 753.658 99.022C760.045 102.709 764.105 107.02 765.839 111.955C767.6 116.905 766.887 122.14 763.7 127.661C762.356 129.988 760.61 132.012 758.463 133.731C756.331 135.423 753.642 136.956 750.396 138.329C747.192 139.691 742.388 141.229 735.985 142.945L723.267 147.348L746.528 160.778L740.434 171.332Z" fill="white"/>
<path d="M275.637 912.082C277.293 909.214 279.471 907.097 282.171 905.733C284.844 904.354 287.808 903.72 291.064 903.831C289.046 900.826 287.907 897.642 287.647 894.281C287.371 890.946 288.178 887.641 290.069 884.366C293.116 879.089 297.349 875.976 302.768 875.027C308.16 874.063 314.05 875.424 320.437 879.112C326.851 882.815 331.029 887.266 332.971 892.465C334.897 897.691 334.345 902.929 331.313 908.179C329.485 911.345 327.056 913.678 324.026 915.176C320.996 916.674 317.586 917.267 313.797 916.956C315.548 919.735 316.508 922.635 316.677 925.655C316.846 928.675 316.102 931.62 314.446 934.489C311.477 939.631 307.387 942.682 302.178 943.644C296.968 944.605 291.399 943.375 285.472 939.953C279.491 936.5 275.615 932.277 273.842 927.284C272.07 922.292 272.668 917.224 275.637 912.082ZM303.157 893.384C301.751 895.82 301.309 898.055 301.831 900.088C302.31 902.133 303.578 903.749 305.635 904.937C307.692 906.124 309.739 906.422 311.777 905.83C313.798 905.266 315.513 903.765 316.919 901.33C318.278 898.975 318.72 896.741 318.245 894.626C317.727 892.523 316.427 890.87 314.343 889.667C312.313 888.495 310.285 888.226 308.259 888.86C306.233 889.495 304.532 891.003 303.157 893.384ZM291.566 929.398C293.406 930.461 295.165 930.664 296.843 930.009C298.477 929.365 299.912 927.974 301.146 925.836C302.365 923.725 302.862 921.739 302.638 919.877C302.414 918.016 301.354 916.538 299.46 915.444C297.593 914.366 295.824 914.211 294.154 914.979C292.456 915.731 290.998 917.163 289.78 919.274C288.561 921.385 288.087 923.33 288.358 925.111C288.602 926.875 289.672 928.304 291.566 929.398Z" fill="white"/>
<path d="M530.526 114.922L514.682 114.922L514.682 64.4844L499.12 69.0313L499.12 57.0313L529.073 46.6719L530.526 46.6719L530.526 114.922Z" fill="white"/>
<path d="M496.751 984.194L522.251 924.381L538.939 924.381L513.392 980.444L545.923 980.444L545.923 992.631L496.751 992.631L496.751 984.194Z" fill="white"/>
<path d="M293.959 170.196L280.238 178.118L255.019 134.437L243.815 146.156L237.815 135.764L258.576 111.816L259.834 111.089L293.959 170.196ZM353.025 136.094L311.78 159.907L306.624 150.976L314.091 120.034C315.695 112 315.591 106.413 313.778 103.273C312.309 100.729 310.637 99.1147 308.762 98.4293C306.887 97.7438 304.894 98.0104 302.783 99.2292C300.699 100.432 299.523 102.302 299.256 104.838C298.972 107.347 299.596 109.928 301.127 112.58L287.406 120.502C285.312 116.875 284.289 113.01 284.337 108.905C284.369 104.773 285.495 100.911 287.716 97.3194C289.936 93.728 293.036 90.7839 297.014 88.487C303.401 84.7995 309.165 83.4385 314.305 84.404C319.472 85.3539 323.649 88.5893 326.837 94.1102C328.181 96.4377 329.06 98.961 329.475 101.68C329.875 104.372 329.858 107.467 329.424 110.966C329.001 114.421 327.932 119.351 326.216 125.754L323.67 138.969L346.931 125.539L353.025 136.094Z" fill="white"/>
<path d="M753.564 944.535L747.353 933.777L747.962 933.425C753.077 930.472 756.574 926.811 758.454 922.442C760.323 918.116 760.378 913.555 758.62 908.761C757.285 913.573 754.263 917.339 749.554 920.057C744.439 923.01 739.288 923.495 734.1 921.51C728.913 919.525 724.569 915.502 721.069 909.44C718.897 905.678 717.798 901.712 717.772 897.541C717.719 893.386 718.773 889.494 720.935 885.864C723.086 882.276 726.097 879.366 729.967 877.131C734.161 874.709 738.457 873.493 742.852 873.481C747.263 873.496 751.412 874.745 755.299 877.228C759.187 879.711 762.493 883.25 765.219 887.847L768.383 893.327C771.899 899.416 773.756 905.633 773.955 911.977C774.142 918.364 772.611 924.337 769.36 929.894C766.109 935.451 761.534 939.933 755.634 943.339L753.564 944.535ZM748.257 906.842C750.07 905.795 751.343 904.5 752.077 902.958C752.81 901.416 753.123 899.864 753.015 898.303L750.648 894.203C746.336 886.733 741.595 884.491 736.426 887.475C734.342 888.678 733.149 890.612 732.847 893.276C732.518 895.956 733.165 898.703 734.79 901.518C736.462 904.413 738.539 906.354 741.02 907.339C743.49 908.367 745.902 908.201 748.257 906.842Z" fill="white"/>
<path d="M907.543 286.049L911.269 292.504C914.222 297.619 918.202 298.731 923.209 295.84C925.157 294.715 926.389 293.192 926.904 291.271C927.446 289.335 927.076 287.257 925.795 285.038C924.748 283.225 923.306 281.946 921.469 281.202C919.648 280.485 917.953 280.58 916.383 281.487L908.485 267.806C911.597 266.009 914.871 265.274 918.307 265.599C921.742 265.925 925.02 267.227 928.138 269.503C931.3 271.792 933.943 274.776 936.068 278.457C939.865 285.033 941.347 291.07 940.515 296.566C939.683 302.062 936.642 306.326 931.391 309.357C928.848 310.826 925.986 311.431 922.806 311.174C919.669 310.928 916.538 309.723 913.412 307.559C914.088 311.355 913.777 314.817 912.481 317.947C911.212 321.061 908.873 323.603 905.463 325.572C900.185 328.619 894.792 329.026 889.281 326.795C883.771 324.564 879.11 320.146 875.297 313.543C873.063 309.673 871.716 305.651 871.255 301.479C870.837 297.318 871.435 293.635 873.049 290.43C874.69 287.209 877.175 284.638 880.503 282.716L888.449 296.478C886.635 297.525 885.488 299.162 885.005 301.389C884.523 303.616 884.899 305.798 886.133 307.936C887.524 310.345 889.296 311.884 891.451 312.552C893.632 313.205 895.764 312.93 897.848 311.727C900.825 310.008 902.507 308.045 902.892 305.838C903.278 303.631 902.713 301.215 901.197 298.59L897.353 291.932L907.543 286.049Z" fill="white"/>
<path d="M136.235 731.63C140.59 733.049 143.823 735.585 145.932 739.238C149.026 744.597 149.666 749.893 147.852 755.126C146.038 760.359 142.1 764.725 136.037 768.225C132.249 770.413 128.223 771.564 123.959 771.68C119.696 771.796 115.703 770.818 111.981 768.745C108.242 766.646 105.264 763.674 103.045 759.831C100.795 755.934 99.7518 751.846 99.915 747.566C100.035 743.274 101.387 739.21 103.971 735.373C106.528 731.551 110.132 728.262 114.782 725.504L120.019 722.481C126.541 718.715 132.94 716.735 139.214 716.54C145.473 716.319 151.256 717.834 156.561 721.086C161.866 724.337 166.339 729.116 169.98 735.422L170.472 736.274L159.512 742.602L157.971 740.028C152.073 730.875 144.828 728.076 136.235 731.63ZM133.935 741.239C132.216 738.262 129.696 736.867 126.375 737.052L120.692 740.333C116.903 742.521 114.469 744.774 113.39 747.093C112.311 749.412 112.397 751.654 113.647 753.819C114.756 755.74 116.714 756.757 119.521 756.868C122.328 756.98 125.193 756.192 128.116 754.504C131.201 752.723 133.281 750.638 134.355 748.249C135.403 745.876 135.263 743.54 133.935 741.239Z" fill="white"/>
<path d="M953.502 533.859L953.502 540.796L941.314 540.796L941.314 533.859L926.83 533.859L926.83 518.062L941.314 518.062L941.314 491.671L950.971 490.734L994.939 518.062L995.08 518.062L995.08 533.859L953.502 533.859ZM953.502 505.781L953.502 518.062L974.502 518.062L972.908 517.078L953.502 505.781Z" fill="white"/>
<path d="M112.869 539.944L112.869 555.788L62.4312 555.788L66.978 571.35L54.978 571.35L44.6187 541.397L44.6187 539.944L112.869 539.944ZM84.978 471.975C94.1968 471.975 101.306 474.053 106.306 478.21C111.306 482.335 113.806 488.163 113.806 495.694C113.806 503.288 111.291 509.163 106.259 513.319C101.228 517.475 94.1343 519.553 84.978 519.553L72.5093 519.553C63.2905 519.553 56.1812 517.491 51.1812 513.366C46.1812 509.21 43.6812 503.35 43.6812 495.788C43.6812 488.225 46.1968 482.366 51.228 478.21C56.2593 474.053 63.3687 471.975 72.5562 471.975L84.978 471.975ZM70.4937 487.772C65.5874 487.772 61.9312 488.413 59.5249 489.694C57.0874 490.975 55.8687 493.007 55.8687 495.788C55.8687 498.507 56.9937 500.491 59.2437 501.741C61.4937 502.96 64.8999 503.616 69.4624 503.71L86.8999 503.71C91.9937 503.71 95.728 503.069 98.103 501.788C100.447 500.507 101.619 498.475 101.619 495.694C101.619 493.007 100.478 491.022 98.1968 489.741C95.8843 488.46 92.2749 487.803 87.3687 487.772L70.4937 487.772Z" fill="white"/>
<path d="M154.423 336.593L146.502 350.315L102.821 325.096L98.9779 340.847L88.5856 334.847L94.5906 303.727L95.3172 302.468L154.423 336.593ZM182.22 288.448L174.298 302.169L130.618 276.95L126.775 292.701L116.382 286.701L122.388 255.581L123.114 254.323L182.22 288.448Z" fill="white"/>
<path d="M917.32 713.957L945.437 735.008L925.491 769.554L914.856 763.413L928.379 739.99L917.42 731.877C917.426 733.179 917.193 734.74 916.719 736.56C916.23 738.407 915.549 740.088 914.674 741.604C911.283 747.476 906.936 750.975 901.632 752.098C896.34 753.265 890.554 752.035 884.276 748.41C880.487 746.223 877.542 743.386 875.441 739.9C873.352 736.456 872.364 732.729 872.479 728.717C872.594 724.706 873.855 720.617 876.261 716.449C878.401 712.741 881.167 709.701 884.558 707.329C887.975 704.972 891.541 703.639 895.256 703.33C898.998 703.036 902.539 703.872 905.879 705.836L897.957 719.557C895.714 718.443 893.597 718.141 891.606 718.651C889.616 719.162 888.034 720.432 886.862 722.462C884.206 727.062 886.288 731.331 893.108 735.269C899.414 738.91 904.191 737.915 907.441 732.286C909.285 729.093 909.632 726.117 908.481 723.36L917.32 713.957Z" fill="white"/>
<path d="M592.651 401.824C593.903 402.626 594.84 403.629 595.463 404.835C596.078 406.036 596.324 407.367 596.201 408.83C596.083 410.284 595.6 411.747 594.75 413.219C593.349 415.646 591.454 417.101 589.067 417.583C586.68 418.065 584.044 417.474 581.161 415.809L580.247 415.282C578.437 414.237 577.036 413.011 576.045 411.604C575.049 410.183 574.525 408.669 574.473 407.06C574.413 405.446 574.831 403.861 575.73 402.305C577.024 400.064 578.656 398.604 580.626 397.926C582.588 397.243 584.658 397.407 586.838 398.417L584.274 402.857C583.13 402.242 582.159 402.059 581.361 402.308C580.562 402.558 579.848 403.228 579.218 404.319C578.579 405.427 578.525 406.478 579.055 407.473C579.586 408.467 580.754 409.502 582.557 410.577L583.864 411.331C585.835 412.469 587.384 413.037 588.513 413.035C589.647 413.024 590.563 412.414 591.261 411.204C591.852 410.181 592.063 409.26 591.893 408.44C591.724 407.62 591.124 406.891 590.095 406.252L592.651 401.824ZM604.472 395.794C604.105 395.785 603.617 395.683 603.007 395.489C603.542 396.847 603.402 398.232 602.587 399.645C601.84 400.939 600.816 401.813 599.516 402.269C598.207 402.72 596.96 402.604 595.776 401.92C594.288 401.061 593.48 399.862 593.354 398.323C593.227 396.784 593.77 394.966 594.981 392.868L595.742 391.549L595.019 391.131C593.759 390.404 592.814 390.586 592.184 391.677C591.598 392.691 591.804 393.487 592.802 394.063L590.334 398.338C589.006 397.572 588.252 396.387 588.073 394.783C587.899 393.172 588.317 391.49 589.327 389.74C590.338 387.989 591.564 386.853 593.004 386.331C594.444 385.809 595.915 385.966 597.419 386.8L603.495 390.308C604.765 391.018 605.841 391.381 606.724 391.394L606.94 391.519L604.472 395.794ZM600.136 396.859C600.443 396.326 600.583 395.821 600.555 395.342C600.531 394.855 600.42 394.453 600.22 394.134L598.026 392.867L597.308 394.11C596.449 395.599 596.687 396.729 598.023 397.5C598.412 397.725 598.805 397.777 599.202 397.656C599.59 397.531 599.901 397.265 600.136 396.859ZM615.033 377.501L612.558 381.789L607.471 378.852L605.31 382.594L610.397 385.531L607.929 389.806L594.203 381.881L596.671 377.606L602.024 380.697L604.185 376.955L598.832 373.864L601.307 369.576L615.033 377.501ZM614.97 366.537L614.23 367.818L619.025 370.587L616.549 374.875L602.823 366.95L605.299 362.662L610.234 365.511L610.944 364.281L607.269 359.25L610.433 353.769L614.462 361.44L614.469 361.428L624.394 361.288L621.047 367.086L614.97 366.537ZM621.47 342.212L618.972 346.538L629.425 352.573L626.943 356.874L616.489 350.838L614.028 355.101L610.755 353.211L618.197 340.322L621.47 342.212ZM631.368 334.648L626.966 342.273L623.655 340.361L628.057 332.737L631.368 334.648ZM648.674 319.234L646.103 323.687L631.07 315.008L627.239 321.643L642.272 330.322L639.701 334.775L621.231 324.111L630.203 308.57L648.674 319.234ZM654.252 310.158C653.036 312.264 651.426 313.607 649.423 314.187C647.411 314.762 645.398 314.468 643.385 313.306L643.03 313.101C641.626 312.29 640.536 311.317 639.76 310.181C638.989 309.036 638.599 307.797 638.592 306.462C638.576 305.122 638.964 303.767 639.755 302.397C640.868 300.469 642.347 299.293 644.193 298.87C646.03 298.442 648.018 298.846 650.158 300.081L651.82 301.041L646.912 309.54C647.77 309.833 648.568 309.848 649.305 309.586C650.043 309.324 650.648 308.782 651.122 307.962C651.903 306.609 652.04 305.278 651.532 303.97L654.969 303.35C655.397 304.307 655.548 305.404 655.421 306.639C655.291 307.86 654.901 309.033 654.252 310.158ZM643.038 304.327C642.316 305.578 642.715 306.801 644.236 307.995L646.726 303.682L646.396 303.491C645.721 303.079 645.092 302.947 644.51 303.096C643.92 303.24 643.429 303.65 643.038 304.327ZM654.736 284.592L652.239 288.918L662.692 294.954L660.209 299.254L649.756 293.219L647.295 297.481L644.022 295.592L651.463 282.703L654.736 284.592ZM669.735 283.34C668.52 285.446 666.91 286.789 664.906 287.369C662.894 287.943 660.882 287.65 658.869 286.488L658.514 286.283C657.11 285.472 656.02 284.499 655.243 283.363C654.472 282.218 654.083 280.979 654.075 279.644C654.059 278.304 654.447 276.949 655.238 275.579C656.351 273.651 657.831 272.475 659.676 272.052C661.513 271.624 663.502 272.028 665.641 273.263L667.303 274.223L662.396 282.722C663.253 283.015 664.051 283.03 664.789 282.768C665.526 282.506 666.132 281.964 666.605 281.144C667.387 279.791 667.523 278.46 667.016 277.152L670.452 276.532C670.881 277.489 671.031 278.586 670.905 279.821C670.775 281.042 670.385 282.215 669.735 283.34ZM658.522 277.509C657.799 278.76 658.198 279.983 659.719 281.177L662.209 276.864L661.88 276.673C661.204 276.261 660.576 276.129 659.994 276.278C659.403 276.422 658.912 276.832 658.522 277.509ZM674.417 259.03C676.548 260.261 677.974 261.727 678.694 263.428C679.411 265.116 679.298 266.777 678.356 268.409C677.628 269.669 676.569 270.439 675.179 270.719L681.585 274.417L679.117 278.692L660.113 267.721L662.421 263.725L663.762 264.33C663.221 262.924 663.336 261.553 664.108 260.216C665.084 258.525 666.469 257.571 668.263 257.355C670.048 257.134 672.032 257.654 674.214 258.913L674.417 259.03ZM671.682 263.152C669.246 261.746 667.618 261.753 666.798 263.174C666.212 264.189 666.185 265.075 666.717 265.833L672.121 268.953C673.097 269.021 673.874 268.555 674.45 267.557C675.236 266.196 674.466 264.815 672.139 263.415L671.682 263.152ZM673.472 246.34C674.507 244.547 675.915 243.466 677.696 243.096C679.482 242.718 681.39 243.114 683.42 244.286L683.598 244.389C684.883 245.131 685.867 246.054 686.549 247.158C687.222 248.257 687.535 249.464 687.486 250.778C687.443 252.084 687.033 253.409 686.257 254.753C685.085 256.783 683.499 258.027 681.498 258.484C679.502 258.933 677.363 258.499 675.079 257.18L674.673 256.946C671.554 255.122 669.391 253.185 668.184 251.135C666.977 249.085 666.743 246.882 667.484 244.524C667.815 243.463 667.966 242.733 667.937 242.333C667.905 241.92 667.678 241.591 667.255 241.347L669.24 237.909C670.297 238.52 671.005 239.148 671.365 239.796C671.729 240.434 671.888 241.214 671.841 242.134C671.791 243.041 671.516 244.202 671.015 245.615C670.62 246.729 670.569 247.737 670.86 248.638C671.148 249.526 671.777 250.38 672.747 251.199C672.366 249.457 672.608 247.837 673.472 246.34ZM676.309 249.044C675.406 250.609 676.037 252.016 678.202 253.266L678.405 253.383C680.527 254.609 682.045 254.431 682.958 252.849C683.842 251.318 683.279 249.95 681.269 248.744L680.863 248.51C678.74 247.284 677.222 247.462 676.309 249.044ZM688.125 237.074L681.705 230.323L684.349 225.743L697.142 240.588L697.586 241.166C698.903 242.986 698.98 244.903 697.818 246.916C697.496 247.474 697.072 248.013 696.547 248.533L693.489 246.768L693.812 246.209C694.158 245.609 694.333 245.101 694.336 244.685C694.353 244.266 694.181 243.851 693.82 243.44L693.105 242.57L676.498 239.342L679.134 234.775L688.125 237.074ZM699.319 215.898C701.45 217.129 702.876 218.595 703.597 220.296C704.313 221.984 704.201 223.644 703.258 225.277C702.531 226.537 701.472 227.307 700.081 227.586L706.487 231.285L704.019 235.56L685.016 224.589L687.323 220.593L688.665 221.198C688.123 219.792 688.239 218.421 689.01 217.084C689.987 215.393 691.372 214.439 693.165 214.223C694.951 214.002 696.934 214.521 699.116 215.781L699.319 215.898ZM696.584 220.02C694.149 218.613 692.521 218.621 691.7 220.042C691.115 221.056 691.088 221.943 691.62 222.701L697.024 225.821C698 225.889 698.776 225.423 699.352 224.425C700.138 223.064 699.368 221.683 697.041 220.283L696.584 220.02ZM702.296 202.276L699.176 207.68L709.604 213.7L707.128 217.988L693.402 210.063L698.998 200.371L702.296 202.276Z" fill="white"/>
<path d="M448.993 641.551C447.742 640.749 446.805 639.746 446.181 638.54C445.566 637.339 445.32 636.008 445.443 634.545C445.561 633.091 446.045 631.628 446.895 630.156C448.296 627.729 450.19 626.274 452.577 625.792C454.965 625.309 457.6 625.901 460.484 627.566L461.397 628.093C463.207 629.138 464.608 630.364 465.6 631.771C466.595 633.192 467.119 634.706 467.171 636.315C467.232 637.929 466.813 639.514 465.915 641.07C464.621 643.311 462.989 644.771 461.019 645.449C459.057 646.132 456.986 645.968 454.807 644.958L457.37 640.518C458.515 641.133 459.486 641.316 460.284 641.067C461.082 640.817 461.796 640.147 462.426 639.056C463.066 637.948 463.12 636.897 462.589 635.902C462.058 634.908 460.891 633.873 459.087 632.798L457.78 632.043C455.81 630.906 454.26 630.338 453.131 630.34C451.997 630.351 451.081 630.961 450.383 632.17C449.792 633.194 449.582 634.115 449.751 634.935C449.921 635.754 450.52 636.484 451.549 637.123L448.993 641.551ZM437.173 647.581C437.54 647.59 438.028 647.691 438.638 647.885C438.102 646.528 438.242 645.143 439.058 643.73C439.805 642.436 440.828 641.561 442.129 641.106C443.438 640.655 444.685 640.771 445.869 641.455C447.357 642.314 448.164 643.513 448.291 645.052C448.417 646.591 447.875 648.409 446.664 650.507L445.902 651.826L446.625 652.244C447.886 652.971 448.831 652.789 449.46 651.698C450.046 650.683 449.84 649.888 448.842 649.312L451.311 645.037C452.638 645.803 453.392 646.988 453.571 648.592C453.746 650.203 453.328 651.885 452.317 653.635C451.306 655.386 450.081 656.522 448.641 657.044C447.201 657.565 445.729 657.409 444.226 656.575L438.149 653.067C436.879 652.356 435.803 651.994 434.92 651.981L434.704 651.856L437.173 647.581ZM441.509 646.516C441.201 647.048 441.062 647.554 441.09 648.033C441.113 648.52 441.225 648.922 441.424 649.241L443.619 650.508L444.337 649.264C445.196 647.776 444.958 646.646 443.621 645.875C443.232 645.65 442.839 645.598 442.443 645.718C442.055 645.844 441.743 646.11 441.509 646.516ZM426.611 665.874L429.087 661.586L434.174 664.523L436.334 660.781L431.247 657.844L433.716 653.569L447.442 661.494L444.974 665.769L439.62 662.678L437.459 666.42L442.813 669.511L440.337 673.799L426.611 665.874ZM426.675 676.838L427.415 675.556L422.619 672.788L425.095 668.5L438.821 676.425L436.346 680.713L431.411 677.864L430.7 679.094L434.375 684.125L431.211 689.606L427.183 681.935L427.176 681.947L417.251 682.087L420.598 676.289L426.675 676.838ZM420.175 701.163L422.672 696.837L412.219 690.802L414.702 686.501L425.155 692.537L427.616 688.274L430.889 690.164L423.448 703.053L420.175 701.163ZM410.277 708.726L414.679 701.102L417.99 703.014L413.588 710.638L410.277 708.726ZM392.971 724.14L395.542 719.688L410.575 728.367L414.405 721.732L399.372 713.053L401.943 708.6L420.414 719.264L411.442 734.805L392.971 724.14ZM387.393 733.217C388.608 731.111 390.218 729.768 392.222 729.188C394.234 728.613 396.246 728.907 398.259 730.069L398.614 730.274C400.018 731.085 401.108 732.058 401.885 733.194C402.656 734.338 403.045 735.578 403.053 736.913C403.068 738.253 402.681 739.608 401.89 740.978C400.777 742.906 399.297 744.082 397.452 744.505C395.615 744.933 393.626 744.529 391.487 743.293L389.825 742.334L394.732 733.834C393.875 733.542 393.077 733.527 392.339 733.789C391.602 734.051 390.996 734.592 390.522 735.413C389.741 736.766 389.604 738.097 390.112 739.405L386.675 740.025C386.247 739.068 386.097 737.971 386.223 736.736C386.353 735.515 386.743 734.341 387.393 733.217ZM398.606 739.048C399.329 737.796 398.93 736.574 397.409 735.38L394.919 739.693L395.248 739.883C395.924 740.296 396.552 740.428 397.134 740.279C397.725 740.135 398.216 739.725 398.606 739.048ZM386.908 758.782L389.406 754.456L378.952 748.421L381.435 744.121L391.889 750.156L394.349 745.893L397.622 747.783L390.181 760.672L386.908 758.782ZM371.909 760.035C373.125 757.929 374.735 756.586 376.738 756.006C378.75 755.431 380.763 755.725 382.776 756.887L383.131 757.092C384.535 757.903 385.625 758.876 386.401 760.012C387.172 761.156 387.562 762.396 387.569 763.731C387.585 765.071 387.197 766.426 386.406 767.796C385.293 769.724 383.814 770.9 381.968 771.323C380.131 771.751 378.143 771.347 376.003 770.111L374.341 769.152L379.249 760.652C378.391 760.36 377.594 760.345 376.856 760.607C376.118 760.869 375.513 761.41 375.039 762.231C374.258 763.584 374.121 764.915 374.629 766.223L371.192 766.843C370.764 765.886 370.613 764.789 370.74 763.554C370.87 762.333 371.26 761.16 371.909 760.035ZM383.123 765.866C383.845 764.614 383.446 763.392 381.925 762.198L379.435 766.511L379.765 766.701C380.44 767.114 381.069 767.246 381.651 767.097C382.242 766.953 382.732 766.543 383.123 765.866ZM367.228 784.344C365.096 783.114 363.671 781.648 362.95 779.947C362.233 778.258 362.346 776.598 363.289 774.966C364.016 773.706 365.075 772.936 366.466 772.656L360.059 768.958L362.528 764.682L381.531 775.654L379.224 779.65L377.882 779.045C378.423 780.451 378.308 781.822 377.537 783.158C376.56 784.85 375.175 785.804 373.381 786.02C371.596 786.241 369.613 785.721 367.431 784.462L367.228 784.344ZM369.962 780.223C372.398 781.629 374.026 781.622 374.846 780.201C375.432 779.186 375.459 778.3 374.927 777.542L369.523 774.421C368.547 774.354 367.771 774.819 367.195 775.817C366.409 777.179 367.179 778.56 369.506 779.959L369.962 780.223ZM368.172 797.034C367.137 798.827 365.729 799.909 363.948 800.279C362.162 800.657 360.254 800.261 358.225 799.089L358.047 798.986C356.761 798.244 355.778 797.321 355.096 796.217C354.422 795.118 354.11 793.911 354.158 792.597C354.201 791.291 354.611 789.966 355.388 788.621C356.56 786.592 358.146 785.348 360.147 784.891C362.142 784.442 364.282 784.876 366.565 786.195L366.971 786.429C370.091 788.253 372.254 790.189 373.461 792.239C374.668 794.29 374.901 796.493 374.16 798.851C373.83 799.912 373.679 800.642 373.707 801.042C373.739 801.455 373.967 801.784 374.389 802.028L372.405 805.466C371.347 804.855 370.639 804.227 370.28 803.579C369.916 802.941 369.757 802.161 369.803 801.241C369.853 800.334 370.129 799.173 370.629 797.759C371.024 796.646 371.076 795.638 370.784 794.737C370.496 793.849 369.867 792.995 368.897 792.176C369.278 793.918 369.037 795.537 368.172 797.034ZM365.335 794.331C366.239 792.766 365.608 791.359 363.443 790.109L363.24 789.992C361.117 788.766 359.599 788.944 358.686 790.526C357.802 792.056 358.365 793.425 360.376 794.63L360.782 794.865C362.904 796.09 364.422 795.912 365.335 794.331ZM353.519 806.301L359.939 813.052L357.295 817.632L344.503 802.787L344.059 802.209C342.742 800.389 342.664 798.472 343.826 796.459C344.148 795.901 344.572 795.362 345.098 794.842L348.155 796.607L347.833 797.166C347.486 797.766 347.311 798.274 347.308 798.689C347.292 799.108 347.464 799.523 347.824 799.935L348.54 800.804L365.147 804.033L362.51 808.599L353.519 806.301ZM342.325 827.477C340.194 826.246 338.768 824.78 338.048 823.079C337.331 821.391 337.444 819.73 338.386 818.098C339.114 816.838 340.173 816.068 341.563 815.788L335.157 812.09L337.625 807.815L356.629 818.786L354.322 822.782L352.98 822.177C353.521 823.583 353.406 824.954 352.634 826.291C351.658 827.982 350.273 828.936 348.479 829.152C346.694 829.373 344.71 828.853 342.528 827.594L342.325 827.477ZM345.06 823.355C347.496 824.761 349.124 824.754 349.944 823.333C350.53 822.318 350.557 821.432 350.025 820.674L344.621 817.554C343.645 817.486 342.869 817.952 342.292 818.95C341.506 820.311 342.277 821.692 344.603 823.092L345.06 823.355ZM339.349 841.099L342.469 835.695L332.041 829.675L334.516 825.387L348.243 833.312L342.647 843.004L339.349 841.099Z" fill="white"/>
<path d="M527.225 326.007L527.225 331.119L518.319 331.119L518.319 338.693L527.225 338.693L527.225 343.834L505.897 343.834L505.897 338.693L514.364 338.693L514.364 331.119L505.897 331.119L505.897 326.007L527.225 326.007ZM519.154 323.59C517.572 323.59 516.166 323.282 514.935 322.667C513.695 322.052 512.743 321.168 512.079 320.016C511.415 318.863 511.083 317.511 511.083 315.958C511.083 313.585 511.82 311.715 513.294 310.348C514.759 308.981 516.756 308.297 519.286 308.297L519.461 308.297C521.932 308.297 523.895 308.985 525.35 310.362C526.795 311.73 527.518 313.585 527.518 315.929C527.518 318.185 526.844 319.996 525.497 321.363C524.139 322.731 522.303 323.468 519.989 323.575L519.154 323.59ZM519.461 318.653C520.926 318.653 522 318.424 522.684 317.965C523.368 317.506 523.709 316.827 523.709 315.929C523.709 314.171 522.357 313.273 519.652 313.234L519.154 313.234C516.312 313.234 514.891 314.142 514.891 315.958C514.891 317.609 516.117 318.502 518.568 318.639L519.461 318.653ZM527.225 305.792L511.375 305.792L511.375 298.995C511.375 296.818 511.756 295.152 512.518 294C513.28 292.838 514.378 292.257 515.814 292.257C516.546 292.257 517.206 292.511 517.792 293.019C518.368 293.526 518.812 294.269 519.125 295.245C519.339 293.985 519.759 293.014 520.384 292.33C521 291.647 521.771 291.305 522.699 291.305C524.193 291.305 525.321 291.871 526.083 293.004C526.834 294.127 527.215 295.748 527.225 297.867L527.225 305.792ZM520.765 300.841L523.446 300.841L523.446 297.955C523.446 297.34 523.338 296.901 523.124 296.637C522.909 296.373 522.582 296.241 522.142 296.241C521.263 296.241 520.804 296.749 520.765 297.765L520.765 300.841ZM517.718 300.841L517.718 298.805C517.718 298.209 517.621 297.794 517.425 297.56C517.22 297.316 516.922 297.193 516.532 297.193C516.024 297.193 515.667 297.34 515.462 297.633C515.257 297.926 515.155 298.38 515.155 298.995L515.155 300.841L517.718 300.841ZM519.154 289.899C517.572 289.899 516.166 289.591 514.935 288.976C513.695 288.36 512.743 287.477 512.079 286.324C511.415 285.172 511.083 283.819 511.083 282.267C511.083 279.894 511.82 278.024 513.294 276.656C514.759 275.289 516.756 274.606 519.286 274.606L519.461 274.606C521.932 274.606 523.895 275.294 525.35 276.671C526.795 278.038 527.518 279.894 527.518 282.237C527.518 284.493 526.844 286.305 525.497 287.672C524.139 289.039 522.303 289.776 519.989 289.884L519.154 289.899ZM519.461 284.962C520.926 284.962 522 284.733 522.684 284.274C523.368 283.815 523.709 283.136 523.709 282.237C523.709 280.48 522.357 279.581 519.652 279.542L519.154 279.542C516.312 279.542 514.891 280.45 514.891 282.267C514.891 283.917 516.117 284.811 518.568 284.947L519.461 284.962ZM523.709 265.729C523.709 265.035 523.524 264.498 523.153 264.117C522.772 263.736 522.245 263.551 521.571 263.561L521.571 258.932C523.309 258.932 524.735 259.557 525.848 260.807C526.961 262.047 527.518 263.649 527.518 265.611C527.518 267.916 526.795 269.733 525.35 271.061C523.905 272.389 521.903 273.053 519.344 273.053L519.139 273.053C517.538 273.053 516.126 272.76 514.906 272.174C513.675 271.578 512.733 270.724 512.079 269.61C511.415 268.497 511.083 267.179 511.083 265.655C511.083 263.595 511.654 261.959 512.796 260.748C513.939 259.537 515.487 258.932 517.44 258.932L517.44 263.561C516.62 263.561 515.99 263.761 515.55 264.161C515.111 264.562 514.891 265.099 514.891 265.773C514.891 267.052 515.707 267.799 517.337 268.014C517.855 268.082 518.568 268.116 519.476 268.116C521.068 268.116 522.171 267.926 522.787 267.545C523.402 267.164 523.709 266.559 523.709 265.729ZM511.375 247.623L511.375 242.672L527.225 242.672L527.225 247.623L517.997 247.623L527.225 251.974L527.225 256.94L511.375 256.94L511.375 251.974L520.575 251.974L511.375 247.623ZM512.254 231.7C512.254 229.63 512.933 227.989 514.291 226.778C515.648 225.558 517.499 224.947 519.842 224.947L520.047 224.947C521.532 224.947 522.845 225.255 523.988 225.87C525.121 226.485 525.995 227.374 526.61 228.536C527.225 229.689 527.533 231.041 527.533 232.594C527.533 234.938 526.781 236.808 525.277 238.204C523.773 239.591 521.703 240.284 519.066 240.284L518.597 240.284C514.984 240.265 512.142 239.669 510.072 238.497C508.001 237.325 506.698 235.533 506.161 233.121C505.917 232.037 505.682 231.329 505.458 230.997C505.223 230.655 504.862 230.484 504.374 230.484L504.374 226.515C505.594 226.515 506.522 226.705 507.157 227.086C507.792 227.457 508.319 228.053 508.739 228.873C509.149 229.684 509.491 230.826 509.764 232.301C509.979 233.463 510.438 234.361 511.141 234.996C511.834 235.621 512.806 236.046 514.056 236.271C512.855 234.952 512.254 233.429 512.254 231.7ZM516.063 232.623C516.063 234.43 517.313 235.333 519.813 235.333L520.047 235.333C522.499 235.333 523.724 234.42 523.724 232.594C523.724 230.826 522.552 229.923 520.208 229.884L519.74 229.884C517.289 229.884 516.063 230.797 516.063 232.623ZM511.375 213.727L511.375 208.776L527.225 208.776L527.225 213.727L517.997 213.727L527.225 218.077L527.225 223.043L511.375 223.043L511.375 218.077L520.575 218.077L511.375 213.727ZM519.417 191.417C521.878 191.417 523.846 191.974 525.321 193.087C526.786 194.191 527.518 195.685 527.518 197.569C527.518 199.025 526.986 200.221 525.921 201.158L533.319 201.158L533.319 206.095L511.375 206.095L511.375 201.481L512.84 201.334C511.668 200.387 511.083 199.142 511.083 197.599C511.083 195.646 511.805 194.127 513.25 193.043C514.686 191.959 516.664 191.417 519.183 191.417L519.417 191.417ZM519.11 196.354C516.297 196.354 514.891 197.174 514.891 198.815C514.891 199.986 515.311 200.768 516.151 201.158L522.391 201.158C523.27 200.729 523.709 199.938 523.709 198.785C523.709 197.213 522.352 196.402 519.637 196.354L519.11 196.354ZM523.709 182.526C523.709 181.832 523.524 181.295 523.153 180.914C522.772 180.533 522.245 180.348 521.571 180.358L521.571 175.729C523.309 175.729 524.735 176.354 525.848 177.604C526.961 178.844 527.518 180.445 527.518 182.408C527.518 184.713 526.795 186.529 525.35 187.858C523.905 189.186 521.903 189.85 519.344 189.85L519.139 189.85C517.538 189.85 516.126 189.557 514.906 188.971C513.675 188.375 512.733 187.521 512.079 186.407C511.415 185.294 511.083 183.976 511.083 182.452C511.083 180.392 511.654 178.756 512.796 177.545C513.939 176.334 515.487 175.729 517.44 175.729L517.44 180.358C516.62 180.358 515.99 180.558 515.55 180.958C515.111 181.359 514.891 181.896 514.891 182.569C514.891 183.849 515.707 184.596 517.337 184.811C517.855 184.879 518.568 184.913 519.476 184.913C521.068 184.913 522.171 184.723 522.787 184.342C523.402 183.961 523.709 183.356 523.709 182.526ZM521.688 166.881L521.688 168.36L527.225 168.36L527.225 173.312L511.375 173.312L511.375 168.36L517.074 168.36L517.074 166.94L511.375 164.42L511.375 158.092L518.7 162.721L518.7 162.706L527.225 157.623L527.225 164.318L521.688 166.881Z" fill="white"/>
<path d="M511.01 700.711L511.01 695.599L519.916 695.599L519.916 688.025L511.01 688.025L511.01 682.884L532.338 682.884L532.338 688.025L523.871 688.025L523.871 695.599L532.338 695.599L532.338 700.711L511.01 700.711ZM519.081 703.128C520.663 703.128 522.069 703.435 523.3 704.051C524.54 704.666 525.492 705.55 526.156 706.702C526.82 707.854 527.152 709.207 527.152 710.76C527.152 713.133 526.415 715.003 524.94 716.37C523.476 717.737 521.479 718.421 518.949 718.421L518.773 718.421C516.303 718.421 514.34 717.732 512.885 716.355C511.439 714.988 510.717 713.133 510.717 710.789C510.717 708.533 511.391 706.722 512.738 705.354C514.096 703.987 515.932 703.25 518.246 703.142L519.081 703.128ZM518.773 708.064C517.309 708.064 516.234 708.294 515.551 708.753C514.867 709.212 514.525 709.89 514.525 710.789C514.525 712.547 515.878 713.445 518.583 713.484L519.081 713.484C521.923 713.484 523.344 712.576 523.344 710.76C523.344 709.109 522.118 708.216 519.667 708.079L518.773 708.064ZM511.01 720.926L526.859 720.926L526.859 727.723C526.859 729.9 526.479 731.565 525.717 732.718C524.955 733.88 523.856 734.461 522.421 734.461C521.688 734.461 521.029 734.207 520.443 733.699C519.867 733.191 519.423 732.449 519.11 731.473C518.896 732.732 518.476 733.704 517.851 734.388C517.235 735.071 516.464 735.413 515.536 735.413C514.042 735.413 512.914 734.847 512.152 733.714C511.4 732.591 511.02 730.97 511.01 728.85L511.01 720.926ZM517.47 725.877L514.789 725.877L514.789 728.763C514.789 729.378 514.896 729.817 515.111 730.081C515.326 730.345 515.653 730.476 516.093 730.476C516.972 730.476 517.431 729.969 517.47 728.953L517.47 725.877ZM520.517 725.877L520.517 727.913C520.517 728.509 520.614 728.924 520.81 729.158C521.015 729.402 521.312 729.524 521.703 729.524C522.211 729.524 522.567 729.378 522.772 729.085C522.978 728.792 523.08 728.338 523.08 727.723L523.08 725.877L520.517 725.877ZM519.081 736.819C520.663 736.819 522.069 737.127 523.3 737.742C524.54 738.357 525.492 739.241 526.156 740.393C526.82 741.546 527.152 742.898 527.152 744.451C527.152 746.824 526.415 748.694 524.94 750.061C523.476 751.429 521.479 752.112 518.949 752.112L518.773 752.112C516.303 752.112 514.34 751.424 512.885 750.047C511.439 748.68 510.717 746.824 510.717 744.48C510.717 742.224 511.391 740.413 512.738 739.046C514.096 737.679 515.932 736.941 518.246 736.834L519.081 736.819ZM518.773 741.756C517.309 741.756 516.234 741.985 515.551 742.444C514.867 742.903 514.525 743.582 514.525 744.48C514.525 746.238 515.878 747.137 518.583 747.176L519.081 747.176C521.923 747.176 523.344 746.267 523.344 744.451C523.344 742.801 522.118 741.907 519.667 741.77L518.773 741.756ZM514.525 760.989C514.525 761.682 514.711 762.22 515.082 762.6C515.463 762.981 515.99 763.167 516.664 763.157L516.664 767.786C514.926 767.786 513.5 767.161 512.387 765.911C511.273 764.671 510.717 763.069 510.717 761.106C510.717 758.802 511.439 756.985 512.885 755.657C514.33 754.329 516.332 753.665 518.891 753.665L519.096 753.665C520.697 753.665 522.108 753.958 523.329 754.544C524.56 755.14 525.502 755.994 526.156 757.107C526.82 758.221 527.152 759.539 527.152 761.062C527.152 763.123 526.581 764.759 525.438 765.97C524.296 767.181 522.748 767.786 520.795 767.786L520.795 763.157C521.615 763.157 522.245 762.957 522.685 762.557C523.124 762.156 523.344 761.619 523.344 760.945C523.344 759.666 522.528 758.919 520.897 758.704C520.38 758.636 519.667 758.601 518.759 758.601C517.167 758.601 516.063 758.792 515.448 759.173C514.833 759.554 514.525 760.159 514.525 760.989ZM526.859 779.095L526.859 784.046L511.01 784.046L511.01 779.095L520.238 779.095L511.01 774.744L511.01 769.778L526.859 769.778L526.859 774.744L517.66 774.744L526.859 779.095ZM525.98 795.017C525.98 797.088 525.302 798.728 523.944 799.939C522.587 801.16 520.736 801.77 518.393 801.77L518.187 801.77C516.703 801.77 515.39 801.463 514.247 800.848C513.114 800.232 512.24 799.344 511.625 798.182C511.01 797.029 510.702 795.677 510.702 794.124C510.702 791.78 511.454 789.91 512.958 788.514C514.462 787.127 516.532 786.433 519.169 786.433L519.638 786.433C523.251 786.453 526.093 787.049 528.163 788.221C530.233 789.392 531.537 791.184 532.074 793.597C532.318 794.681 532.553 795.389 532.777 795.721C533.012 796.062 533.373 796.233 533.861 796.233L533.861 800.203C532.641 800.203 531.713 800.013 531.078 799.632C530.443 799.261 529.916 798.665 529.496 797.845C529.086 797.034 528.744 795.891 528.471 794.417C528.256 793.255 527.797 792.356 527.094 791.722C526.4 791.097 525.429 790.672 524.179 790.447C525.38 791.765 525.98 793.289 525.98 795.017ZM522.172 794.095C522.172 792.288 520.922 791.385 518.422 791.385L518.187 791.385C515.736 791.385 514.511 792.298 514.511 794.124C514.511 795.891 515.683 796.795 518.026 796.834L518.495 796.834C520.946 796.834 522.172 795.921 522.172 794.095ZM526.859 812.991L526.859 817.942L511.01 817.942L511.01 812.991L520.238 812.991L511.01 808.64L511.01 803.675L526.859 803.675L526.859 808.64L517.66 808.64L526.859 812.991ZM518.817 835.301C516.356 835.301 514.389 834.744 512.914 833.631C511.449 832.527 510.717 831.033 510.717 829.148C510.717 827.693 511.249 826.497 512.313 825.559L504.916 825.559L504.916 820.623L526.859 820.623L526.859 825.237L525.395 825.384C526.566 826.331 527.152 827.576 527.152 829.119C527.152 831.072 526.43 832.591 524.984 833.675C523.549 834.759 521.571 835.301 519.052 835.301L518.817 835.301ZM519.125 830.364C521.937 830.364 523.344 829.544 523.344 827.903C523.344 826.731 522.924 825.95 522.084 825.559L515.844 825.559C514.965 825.989 514.525 826.78 514.525 827.932C514.525 829.505 515.883 830.315 518.598 830.364L519.125 830.364ZM514.525 844.192C514.525 844.886 514.711 845.423 515.082 845.804C515.463 846.184 515.99 846.37 516.664 846.36L516.664 850.989C514.926 850.989 513.5 850.364 512.387 849.114C511.273 847.874 510.717 846.272 510.717 844.309C510.717 842.005 511.439 840.188 512.885 838.86C514.33 837.532 516.332 836.868 518.891 836.868L519.096 836.868C520.697 836.868 522.108 837.161 523.329 837.747C524.56 838.343 525.502 839.197 526.156 840.31C526.82 841.424 527.152 842.742 527.152 844.265C527.152 846.326 526.581 847.962 525.438 849.173C524.296 850.384 522.748 850.989 520.795 850.989L520.795 846.36C521.615 846.36 522.245 846.16 522.685 845.76C523.124 845.359 523.344 844.822 523.344 844.148C523.344 842.869 522.528 842.122 520.897 841.907C520.38 841.839 519.667 841.805 518.759 841.805C517.167 841.805 516.063 841.995 515.448 842.376C514.833 842.757 514.525 843.362 514.525 844.192ZM516.547 859.837L516.547 858.357L511.01 858.357L511.01 853.406L526.859 853.406L526.859 858.357L521.161 858.357L521.161 859.778L526.859 862.298L526.859 868.626L519.535 863.997L519.535 864.012L511.01 869.095L511.01 862.4L516.547 859.837Z" fill="white"/>
<path d="M372.663 266.081C374.464 265.041 376.251 264.454 378.024 264.322C379.797 264.189 381.416 264.523 382.882 265.323C384.334 266.119 385.514 267.304 386.422 268.877C387.331 270.45 387.777 272.053 387.761 273.686C387.737 275.324 387.25 276.874 386.301 278.335C385.347 279.788 384.008 281.034 382.286 282.074L381.246 282.675C379.436 283.719 377.651 284.31 375.892 284.446C374.119 284.579 372.5 284.245 371.034 283.445C369.564 282.636 368.372 281.441 367.459 279.86C366.556 278.295 366.122 276.685 366.158 275.029C366.194 273.373 366.707 271.809 367.694 270.336C368.669 268.86 370.042 267.605 371.813 266.571L372.663 266.081ZM374.504 271.056C372.669 272.116 371.456 273.228 370.865 274.392C370.261 275.553 370.288 276.704 370.947 277.846C372.237 280.078 374.592 280.291 378.015 278.485L379.379 277.714C381.189 276.669 382.407 275.565 383.033 274.403C383.659 273.241 383.63 272.068 382.946 270.884C382.297 269.759 381.319 269.168 380.011 269.111C378.704 269.054 377.152 269.539 375.354 270.565L374.504 271.056ZM370.624 252.999L359.823 255.091L356.717 249.712L370.444 241.787L372.919 246.075L365.308 250.47L374.516 248.841L376.156 251.682L370.46 258.456L377.665 254.295L380.141 258.583L366.415 266.508L363.382 261.256L370.624 252.999ZM362.396 234.88C362.05 234.28 361.621 233.908 361.109 233.763C360.588 233.624 360.039 233.727 359.46 234.072L357.146 230.064C358.651 229.194 360.199 229.023 361.788 229.549C363.372 230.066 364.655 231.175 365.636 232.875C366.789 234.871 367.071 236.805 366.483 238.678C365.896 240.551 364.494 242.127 362.278 243.406L362.101 243.509C360.714 244.309 359.345 244.761 357.995 244.864C356.631 244.963 355.388 244.695 354.265 244.058C353.133 243.426 352.186 242.45 351.425 241.131C350.394 239.346 350.071 237.644 350.455 236.024C350.839 234.404 351.877 233.106 353.568 232.129L355.883 236.138C355.173 236.548 354.727 237.036 354.547 237.603C354.366 238.169 354.445 238.744 354.782 239.328C355.421 240.436 356.501 240.675 358.021 240.046C358.503 239.846 359.138 239.519 359.924 239.065C361.303 238.269 362.163 237.552 362.505 236.915C362.848 236.277 362.812 235.599 362.396 234.88ZM352.824 222.343L353.563 223.624L358.359 220.855L360.834 225.143L347.108 233.068L344.632 228.78L349.567 225.931L348.857 224.701L342.662 225.368L339.498 219.887L348.156 220.234L348.148 220.221L352.99 211.557L356.337 217.354L352.824 222.343Z" fill="white"/>
<path d="M671.206 777.203C669.405 778.243 667.618 778.829 665.845 778.962C664.072 779.095 662.453 778.761 660.987 777.961C659.535 777.164 658.355 775.979 657.447 774.406C656.539 772.833 656.092 771.23 656.108 769.597C656.132 767.96 656.619 766.41 657.568 764.949C658.522 763.496 659.861 762.249 661.583 761.21L662.624 760.609C664.433 759.564 666.218 758.974 667.977 758.837C669.75 758.705 671.369 759.038 672.835 759.839C674.305 760.647 675.497 761.842 676.41 763.424C677.314 764.989 677.747 766.599 677.711 768.255C677.675 769.911 677.163 771.475 676.175 772.948C675.2 774.424 673.827 775.679 672.056 776.712L671.206 777.203ZM669.365 772.227C671.2 771.168 672.413 770.056 673.004 768.892C673.608 767.731 673.581 766.58 672.922 765.438C671.633 763.205 669.277 762.992 665.855 764.799L664.49 765.57C662.68 766.615 661.462 767.718 660.836 768.88C660.21 770.042 660.239 771.215 660.923 772.399C661.572 773.524 662.55 774.115 663.858 774.172C665.165 774.23 666.717 773.745 668.515 772.718L669.365 772.227ZM673.245 790.285L684.046 788.193L687.152 793.572L673.426 801.496L670.95 797.209L678.562 792.814L669.353 794.443L667.713 791.601L673.41 784.828L666.204 788.988L663.728 784.7L677.455 776.776L680.487 782.028L673.245 790.285ZM681.473 808.403C681.819 809.004 682.249 809.376 682.76 809.52C683.281 809.66 683.83 809.557 684.409 809.211L686.723 813.22C685.218 814.089 683.671 814.261 682.081 813.735C680.497 813.218 679.214 812.109 678.233 810.409C677.081 808.413 676.798 806.479 677.386 804.606C677.973 802.733 679.375 801.157 681.591 799.878L681.769 799.775C683.156 798.974 684.524 798.522 685.874 798.42C687.238 798.32 688.481 798.589 689.604 799.226C690.736 799.858 691.683 800.834 692.445 802.153C693.475 803.938 693.798 805.64 693.414 807.26C693.03 808.88 691.992 810.178 690.301 811.155L687.986 807.146C688.697 806.736 689.142 806.247 689.322 805.681C689.503 805.114 689.425 804.539 689.088 803.956C688.448 802.848 687.368 802.609 685.848 803.238C685.366 803.438 684.732 803.765 683.945 804.219C682.567 805.015 681.706 805.731 681.364 806.369C681.021 807.006 681.058 807.684 681.473 808.403ZM691.046 820.941L690.306 819.66L685.511 822.428L683.035 818.14L696.761 810.216L699.237 814.503L694.302 817.353L695.012 818.583L701.207 817.916L704.371 823.396L695.714 823.05L695.721 823.062L690.879 831.727L687.532 825.93L691.046 820.941Z" fill="white"/>
<path d="M337.459 421.192L330.894 425.589L325.807 422.652L336.259 416.473L336.332 404.1L341.47 407.067L340.967 415.115L347.686 410.656L352.811 413.615L342.145 419.872L342.007 432.005L336.933 429.075L337.459 421.192ZM327.337 398.908C327.329 399.275 327.227 399.763 327.033 400.372C328.391 399.837 329.776 399.977 331.188 400.792C332.482 401.54 333.357 402.563 333.813 403.864C334.264 405.173 334.147 406.419 333.464 407.603C332.604 409.092 331.405 409.899 329.866 410.026C328.327 410.152 326.509 409.61 324.412 408.399L323.092 407.637L322.675 408.36C321.947 409.62 322.129 410.565 323.22 411.195C324.235 411.781 325.031 411.575 325.607 410.577L329.882 413.046C329.115 414.373 327.93 415.127 326.327 415.306C324.715 415.481 323.034 415.063 321.283 414.052C319.533 413.041 318.396 411.816 317.875 410.376C317.353 408.936 317.509 407.464 318.343 405.961L321.851 399.884C322.562 398.614 322.924 397.538 322.938 396.655L323.062 396.439L327.337 398.908ZM328.403 403.244C327.87 402.936 327.364 402.796 326.886 402.825C326.399 402.848 325.996 402.959 325.678 403.159L324.411 405.354L325.654 406.071C327.142 406.931 328.272 406.692 329.044 405.356C329.269 404.967 329.321 404.574 329.2 404.178C329.075 403.789 328.809 403.478 328.403 403.244ZM306.57 404.204C304.777 403.169 303.696 401.761 303.326 399.98C302.947 398.194 303.344 396.286 304.516 394.256L304.618 394.079C305.36 392.793 306.284 391.81 307.388 391.128C308.487 390.454 309.694 390.142 311.008 390.19C312.313 390.233 313.638 390.643 314.983 391.419C317.013 392.591 318.256 394.178 318.714 396.178C319.163 398.174 318.728 400.314 317.41 402.597L317.175 403.003C315.352 406.123 313.415 408.286 311.365 409.493C309.315 410.7 307.111 410.933 304.754 410.192C303.693 409.861 302.962 409.71 302.563 409.739C302.149 409.771 301.821 409.998 301.577 410.421L298.139 408.436C298.749 407.379 299.378 406.671 300.025 406.312C300.664 405.947 301.443 405.789 302.364 405.835C303.271 405.885 304.431 406.16 305.845 406.661C306.959 407.056 307.966 407.108 308.868 406.816C309.756 406.528 310.609 405.899 311.429 404.929C309.687 405.31 308.067 405.068 306.57 404.204ZM309.273 401.367C310.838 402.27 312.245 401.64 313.495 399.475L313.613 399.272C314.838 397.149 314.66 395.631 313.079 394.718C311.548 393.834 310.18 394.397 308.974 396.407L308.74 396.813C307.514 398.936 307.692 400.454 309.273 401.367ZM298.515 382.267C298.506 382.634 298.405 383.122 298.211 383.732C299.568 383.196 300.953 383.336 302.366 384.152C303.66 384.899 304.535 385.923 304.99 387.223C305.441 388.532 305.325 389.779 304.641 390.963C303.782 392.451 302.583 393.259 301.044 393.385C299.505 393.511 297.687 392.969 295.589 391.758L294.27 390.997L293.853 391.72C293.125 392.98 293.307 393.925 294.398 394.555C295.413 395.141 296.208 394.935 296.784 393.937L301.059 396.405C300.293 397.733 299.108 398.486 297.505 398.666C295.893 398.84 294.212 398.422 292.461 397.411C290.71 396.401 289.574 395.175 289.052 393.735C288.531 392.295 288.687 390.823 289.521 389.32L293.029 383.244C293.74 381.974 294.102 380.897 294.115 380.014L294.24 379.799L298.515 382.267ZM299.58 386.603C299.048 386.296 298.542 386.156 298.063 386.184C297.576 386.207 297.174 386.319 296.855 386.518L295.588 388.713L296.832 389.431C298.32 390.29 299.45 390.052 300.222 388.716C300.446 388.327 300.498 387.934 300.378 387.537C300.252 387.149 299.986 386.838 299.58 386.603ZM275.798 378.167C277.029 376.035 278.494 374.61 280.196 373.889C281.884 373.172 283.544 373.285 285.176 374.228C286.437 374.955 287.206 376.014 287.486 377.405L291.185 370.998L295.46 373.467L284.488 392.47L280.492 390.163L281.098 388.821C279.692 389.362 278.32 389.247 276.984 388.476C275.293 387.499 274.339 386.114 274.123 384.32C273.902 382.535 274.421 380.552 275.681 378.37L275.798 378.167ZM279.919 380.901C278.513 383.337 278.52 384.965 279.941 385.785C280.956 386.371 281.843 386.398 282.601 385.866L285.721 380.462C285.788 379.486 285.323 378.71 284.325 378.134C282.963 377.348 281.583 378.118 280.183 380.445L279.919 380.901ZM274.309 377.611C273.518 378.981 272.548 380.045 271.4 380.803C270.247 381.57 269.006 381.953 267.676 381.952C266.346 381.95 265.009 381.562 263.664 380.785C261.609 379.599 260.358 378.025 259.911 376.065C259.459 374.112 259.866 372.041 261.131 369.851L261.219 369.698C262.454 367.559 264.032 366.203 265.952 365.631C267.858 365.063 269.826 365.365 271.856 366.537C273.81 367.665 275.042 369.154 275.552 371.005C276.057 372.864 275.778 374.823 274.714 376.881L274.309 377.611ZM270.187 374.877C270.92 373.608 271.258 372.563 271.203 371.742C271.147 370.92 270.73 370.285 269.952 369.835C268.43 368.957 266.975 369.679 265.589 372.002L265.34 372.433C263.919 374.894 263.995 376.579 265.568 377.487C266.997 378.312 268.384 377.698 269.728 375.643L270.187 374.877ZM262.931 361.722L255.006 375.449L249.12 372.05C247.234 370.961 245.982 369.799 245.365 368.563C244.74 367.322 244.786 366.08 245.504 364.837C245.87 364.203 246.419 363.759 247.152 363.505C247.88 363.26 248.745 363.247 249.747 363.464C248.763 362.648 248.132 361.799 247.852 360.916C247.568 360.041 247.658 359.202 248.122 358.399C248.869 357.105 249.923 356.411 251.285 356.318C252.634 356.228 254.228 356.709 256.068 357.76L262.931 361.722ZM255.413 364.841L256.754 362.52L254.254 361.077C253.722 360.769 253.287 360.643 252.952 360.697C252.616 360.751 252.338 360.969 252.118 361.349C251.679 362.11 251.889 362.762 252.749 363.303L255.413 364.841ZM253.89 367.48L252.126 366.462C251.611 366.164 251.202 366.041 250.902 366.093C250.588 366.149 250.333 366.346 250.138 366.684C249.884 367.124 249.832 367.506 249.984 367.83C250.135 368.154 250.477 368.47 251.01 368.777L252.608 369.7L253.89 367.48ZM241.066 353.158C240.466 352.812 239.908 352.704 239.392 352.835C238.872 352.974 238.448 353.338 238.119 353.926L234.11 351.612C234.98 350.107 236.234 349.184 237.873 348.845C239.504 348.501 241.169 348.82 242.869 349.801C244.865 350.954 246.077 352.488 246.504 354.403C246.932 356.319 246.506 358.385 245.226 360.601L245.124 360.778C244.323 362.165 243.364 363.241 242.246 364.005C241.115 364.773 239.904 365.162 238.612 365.172C237.316 365.19 236.009 364.819 234.689 364.057C232.905 363.027 231.774 361.714 231.296 360.119C230.819 358.524 231.068 356.881 232.045 355.189L236.054 357.504C235.644 358.214 235.502 358.86 235.629 359.441C235.756 360.021 236.111 360.48 236.695 360.817C237.803 361.457 238.858 361.124 239.859 359.819C240.177 359.405 240.563 358.805 241.017 358.018C241.813 356.64 242.2 355.589 242.178 354.866C242.155 354.142 241.785 353.573 241.066 353.158ZM226.507 347.087L227.788 347.826L230.557 343.031L234.844 345.507L226.92 359.233L222.632 356.757L225.481 351.822L224.25 351.112L219.219 354.787L213.739 351.623L221.41 347.594L221.397 347.587L221.258 337.662L227.055 341.01L226.507 347.087Z" fill="white"/>
<path d="M712.138 624.478L718.702 620.081L723.789 623.018L713.338 629.196L713.264 641.569L708.127 638.603L708.629 630.554L701.91 635.014L696.785 632.055L707.451 625.798L707.589 613.665L712.663 616.594L712.138 624.478ZM722.259 646.762C722.268 646.395 722.369 645.907 722.563 645.297C721.205 645.832 719.82 645.692 718.408 644.877C717.114 644.13 716.239 643.106 715.783 641.806C715.333 640.497 715.449 639.25 716.133 638.066C716.992 636.578 718.191 635.77 719.73 635.644C721.269 635.517 723.087 636.06 725.184 637.271L726.504 638.032L726.921 637.309C727.649 636.049 727.467 635.104 726.376 634.474C725.361 633.888 724.566 634.094 723.99 635.092L719.714 632.624C720.481 631.296 721.666 630.543 723.269 630.363C724.881 630.189 726.562 630.607 728.313 631.617C730.064 632.628 731.2 633.854 731.721 635.294C732.243 636.734 732.087 638.206 731.253 639.709L727.745 645.785C727.034 647.055 726.672 648.132 726.658 649.015L726.534 649.23L722.259 646.762ZM721.193 642.426C721.726 642.733 722.232 642.873 722.71 642.845C723.197 642.822 723.6 642.71 723.918 642.51L725.185 640.316L723.942 639.598C722.454 638.739 721.324 638.977 720.552 640.313C720.328 640.702 720.276 641.095 720.396 641.492C720.522 641.88 720.787 642.191 721.193 642.426ZM743.026 641.465C744.819 642.501 745.901 643.909 746.271 645.69C746.649 647.476 746.252 649.383 745.08 651.413L744.978 651.591C744.236 652.876 743.313 653.86 742.209 654.542C741.109 655.215 739.903 655.528 738.589 655.48C737.283 655.436 735.958 655.026 734.613 654.25C732.583 653.078 731.34 651.492 730.882 649.491C730.433 647.495 730.868 645.356 732.187 643.072L732.421 642.666C734.244 639.547 736.181 637.384 738.231 636.177C740.281 634.97 742.485 634.737 744.843 635.478C745.903 635.808 746.634 635.959 747.034 635.931C747.447 635.899 747.775 635.671 748.02 635.248L751.457 637.233C750.847 638.29 750.218 638.998 749.571 639.358C748.932 639.722 748.153 639.881 747.232 639.834C746.325 639.784 745.165 639.509 743.751 639.008C742.637 638.613 741.63 638.562 740.729 638.853C739.841 639.141 738.987 639.77 738.167 640.741C739.91 640.359 741.529 640.601 743.026 641.465ZM740.323 644.302C738.758 643.399 737.351 644.03 736.101 646.195L735.984 646.398C734.758 648.521 734.936 650.039 736.518 650.952C738.048 651.835 739.417 651.272 740.622 649.262L740.857 648.856C742.082 646.733 741.904 645.215 740.323 644.302ZM751.081 663.403C751.09 663.036 751.192 662.547 751.386 661.938C750.028 662.473 748.643 662.333 747.23 661.518C745.936 660.771 745.062 659.747 744.606 658.446C744.155 657.137 744.271 655.891 744.955 654.707C745.814 653.218 747.013 652.411 748.552 652.284C750.091 652.158 751.909 652.7 754.007 653.911L755.326 654.673L755.744 653.95C756.471 652.69 756.289 651.745 755.198 651.115C754.184 650.529 753.388 650.735 752.812 651.733L748.537 649.265C749.303 647.937 750.488 647.183 752.092 647.004C753.703 646.829 755.385 647.247 757.135 648.258C758.886 649.269 760.022 650.494 760.544 651.934C761.066 653.375 760.909 654.846 760.075 656.349L756.567 662.426C755.857 663.696 755.494 664.772 755.481 665.655L755.356 665.871L751.081 663.403ZM750.016 659.066C750.549 659.374 751.054 659.514 751.533 659.485C752.02 659.462 752.422 659.351 752.741 659.151L754.008 656.956L752.765 656.239C751.276 655.379 750.146 655.618 749.375 656.954C749.15 657.343 749.098 657.736 749.219 658.132C749.344 658.521 749.61 658.832 750.016 659.066ZM773.798 667.503C772.568 669.634 771.102 671.06 769.4 671.78C767.712 672.497 766.052 672.384 764.42 671.442C763.16 670.714 762.39 669.655 762.11 668.265L758.411 674.671L754.136 672.203L765.108 653.199L769.104 655.506L768.498 656.848C769.905 656.307 771.276 656.422 772.612 657.194C774.304 658.17 775.257 659.555 775.473 661.349C775.694 663.134 775.175 665.118 773.915 667.3L773.798 667.503ZM769.677 664.768C771.083 662.332 771.076 660.704 769.655 659.884C768.64 659.298 767.754 659.271 766.995 659.803L763.875 665.207C763.808 666.183 764.273 666.959 765.271 667.536C766.633 668.322 768.013 667.551 769.413 665.225L769.677 664.768ZM775.287 668.058C776.078 666.688 777.048 665.624 778.196 664.866C779.349 664.1 780.59 663.717 781.92 663.718C783.25 663.719 784.588 664.108 785.932 664.884C787.987 666.071 789.238 667.644 789.685 669.605C790.137 671.557 789.73 673.628 788.466 675.819L788.378 675.971C787.142 678.111 785.565 679.466 783.645 680.038C781.738 680.606 779.77 680.304 777.74 679.132C775.786 678.004 774.554 676.515 774.044 674.664C773.539 672.805 773.818 670.847 774.883 668.789L775.287 668.058ZM779.409 670.793C778.676 672.061 778.338 673.106 778.394 673.928C778.449 674.749 778.866 675.385 779.644 675.834C781.167 676.713 782.621 675.991 784.007 673.668L784.256 673.236C785.677 670.775 785.601 669.091 784.028 668.182C782.599 667.357 781.212 667.972 779.868 670.026L779.409 670.793ZM786.665 683.947L794.59 670.221L800.476 673.619C802.362 674.708 803.614 675.87 804.231 677.106C804.856 678.347 804.81 679.589 804.092 680.832C803.726 681.467 803.177 681.91 802.444 682.164C801.716 682.409 800.851 682.423 799.849 682.205C800.833 683.021 801.464 683.871 801.744 684.754C802.028 685.628 801.939 686.467 801.475 687.271C800.728 688.565 799.673 689.258 798.311 689.352C796.963 689.441 795.368 688.96 793.528 687.909L786.665 683.947ZM794.183 680.828L792.843 683.15L795.342 684.592C795.875 684.9 796.309 685.027 796.645 684.973C796.98 684.918 797.258 684.701 797.478 684.32C797.917 683.559 797.707 682.908 796.847 682.366L794.183 680.828ZM795.706 678.189L797.47 679.207C797.986 679.505 798.394 679.628 798.694 679.576C799.008 679.521 799.263 679.324 799.458 678.986C799.712 678.546 799.764 678.164 799.613 677.84C799.461 677.516 799.119 677.2 798.587 676.892L796.988 675.969L795.706 678.189ZM808.53 692.511C809.131 692.858 809.688 692.966 810.204 692.835C810.724 692.695 811.148 692.332 811.477 691.743L815.486 694.058C814.617 695.563 813.362 696.485 811.723 696.824C810.093 697.168 808.427 696.85 806.727 695.868C804.731 694.716 803.52 693.182 803.092 691.266C802.665 689.35 803.09 687.285 804.37 685.069L804.472 684.891C805.273 683.504 806.232 682.429 807.35 681.664C808.481 680.897 809.692 680.508 810.984 680.498C812.28 680.479 813.588 680.851 814.907 681.613C816.691 682.643 817.822 683.955 818.3 685.55C818.777 687.145 818.528 688.789 817.551 690.48L813.542 688.166C813.953 687.455 814.094 686.81 813.967 686.229C813.84 685.648 813.485 685.189 812.901 684.852C811.793 684.213 810.739 684.545 809.737 685.85C809.419 686.264 809.033 686.865 808.579 687.651C807.783 689.03 807.396 690.081 807.418 690.804C807.441 691.527 807.811 692.096 808.53 692.511ZM823.089 698.583L821.808 697.843L819.04 702.638L814.752 700.163L822.677 686.437L826.964 688.912L824.115 693.847L825.346 694.557L830.377 690.882L835.857 694.046L828.186 698.075L828.199 698.082L828.338 708.007L822.541 704.66L823.089 698.583Z" fill="white"/>
<path d="M778.085 364.305L770.08 368.927L771.765 371.844L774.061 370.519C775.524 369.674 776.962 369.176 778.375 369.026C779.788 368.876 781.058 369.084 782.186 369.65C783.317 370.204 784.222 371.068 784.901 372.244C785.951 374.062 786.126 375.929 785.427 377.843C784.737 379.753 783.254 381.364 780.979 382.678L774.281 386.545L763.617 368.074L776.1 360.867L778.085 364.305ZM773.742 375.27L776.782 380.534L779.065 379.216C779.97 378.694 780.538 378.027 780.77 377.217C781.009 376.402 780.897 375.593 780.434 374.789C779.994 374.028 779.378 373.566 778.585 373.404C777.792 373.242 776.931 373.429 776 373.966L773.742 375.27ZM794.659 356.478L802.583 370.205L798.308 372.673L792.288 362.245L789.725 363.725L791.921 368.055C792.962 370.229 793.391 372.056 793.208 373.537C793.026 375.018 792.172 376.204 790.646 377.097L789.301 377.873L787.361 374.629L787.776 374.322C788.303 373.928 788.504 373.309 788.38 372.468C788.258 371.614 787.833 370.467 787.103 369.027L783.825 362.733L794.659 356.478ZM804.972 350.524L809.26 348.048L817.185 361.774L812.897 364.25L808.283 356.258L809.129 366.425L804.829 368.908L796.904 355.182L801.204 352.699L805.804 360.666L804.972 350.524ZM811.467 346.774L815.743 344.306L821.763 354.733L825.543 352.551L819.523 342.123L823.823 339.64L829.859 350.093L832.117 348.79L836.104 356.281L832.07 358.61L829.719 354.538L819.392 360.5L811.467 346.774Z" fill="white"/>
<path d="M308.449 653.423L296.906 642.952L300.215 658.176L294.354 661.56L283.69 643.089L288.156 640.511L290.646 644.825L295.312 653.903L292.19 638.182L295.133 636.483L307.206 647.053L301.67 638.46L299.18 634.147L303.633 631.576L314.297 650.046L308.449 653.423ZM285.62 651.295C286.411 652.665 286.848 654.037 286.93 655.41C287.018 656.792 286.728 658.058 286.062 659.21C285.397 660.361 284.391 661.325 283.046 662.101C280.991 663.288 279.003 663.584 277.082 662.991C275.165 662.406 273.575 661.018 272.31 658.827L272.222 658.675C270.987 656.536 270.602 654.491 271.067 652.543C271.528 650.608 272.774 649.054 274.803 647.882C276.757 646.754 278.663 646.432 280.521 646.915C282.383 647.407 283.94 648.629 285.19 650.579L285.62 651.295ZM281.191 653.497C280.459 652.228 279.723 651.413 278.984 651.05C278.244 650.688 277.486 650.731 276.708 651.18C275.185 652.059 275.084 653.68 276.402 656.042L276.651 656.473C278.072 658.934 279.569 659.711 281.142 658.803C282.571 657.978 282.733 656.469 281.625 654.278L281.191 653.497ZM262.411 659.435C261.81 659.781 261.438 660.211 261.293 660.723C261.154 661.243 261.257 661.792 261.602 662.371L257.594 664.685C256.725 663.18 256.553 661.633 257.079 660.044C257.596 658.459 258.705 657.177 260.405 656.195C262.401 655.043 264.335 654.76 266.208 655.348C268.081 655.936 269.657 657.337 270.936 659.553L271.039 659.731C271.84 661.118 272.291 662.486 272.394 663.836C272.494 665.2 272.225 666.443 271.588 667.567C270.956 668.698 269.98 669.645 268.661 670.407C266.876 671.437 265.174 671.76 263.554 671.376C261.934 670.992 260.636 669.954 259.659 668.263L263.668 665.948C264.078 666.659 264.566 667.104 265.133 667.285C265.699 667.465 266.274 667.387 266.858 667.05C267.966 666.41 268.205 665.33 267.576 663.811C267.376 663.328 267.049 662.694 266.595 661.907C265.799 660.529 265.083 659.668 264.445 659.326C263.808 658.983 263.129 659.02 262.411 659.435ZM249.873 669.008L251.154 668.268L248.386 663.473L252.673 660.997L260.598 674.723L256.31 677.199L253.461 672.264L252.231 672.975L252.898 679.169L247.417 682.333L247.764 673.676L247.751 673.683L239.087 668.841L244.884 665.494L249.873 669.008ZM237.78 669.596L245.705 683.322L239.819 686.72C237.933 687.809 236.3 688.312 234.921 688.228C233.534 688.15 232.482 687.489 231.764 686.246C231.398 685.611 231.288 684.914 231.435 684.152C231.586 683.399 232.007 682.643 232.697 681.885C231.498 682.328 230.447 682.451 229.542 682.251C228.643 682.06 227.961 681.563 227.497 680.759C226.75 679.465 226.676 678.205 227.277 676.979C227.873 675.767 229.087 674.626 230.917 673.558L237.78 669.596ZM236.722 677.666L235.382 675.344L232.883 676.787C232.35 677.095 232.023 677.408 231.902 677.725C231.781 678.043 231.831 678.393 232.05 678.773C232.49 679.534 233.159 679.678 234.058 679.204L236.722 677.666ZM238.246 680.305L236.482 681.323C235.966 681.62 235.656 681.913 235.55 682.199C235.442 682.499 235.485 682.818 235.68 683.156C235.934 683.596 236.239 683.831 236.595 683.862C236.952 683.893 237.396 683.755 237.929 683.447L239.527 682.525L238.246 680.305ZM215.745 682.318C216.058 682.509 216.43 682.841 216.861 683.314C217.076 681.87 217.89 680.741 219.302 679.926C220.596 679.178 221.92 678.933 223.275 679.188C224.634 679.452 225.655 680.176 226.339 681.36C227.198 682.849 227.298 684.291 226.638 685.687C225.978 687.083 224.599 688.386 222.502 689.597L221.182 690.359L221.6 691.082C222.327 692.342 223.236 692.657 224.327 692.028C225.342 691.442 225.562 690.65 224.986 689.652L229.261 687.183C230.027 688.511 230.087 689.914 229.441 691.392C228.786 692.876 227.584 694.123 225.833 695.133C224.082 696.144 222.453 696.515 220.945 696.247C219.437 695.979 218.241 695.108 217.356 693.634L213.847 687.557C213.103 686.307 212.352 685.455 211.594 685.002L211.469 684.786L215.745 682.318ZM220.033 683.563C219.5 683.871 219.126 684.239 218.911 684.668C218.688 685.101 218.583 685.506 218.597 685.881L219.864 688.076L221.107 687.358C222.596 686.498 222.954 685.401 222.183 684.064C221.958 683.675 221.644 683.434 221.24 683.34C220.841 683.255 220.439 683.329 220.033 683.563Z" fill="white"/>
<path d="M698.582 520.338L690.496 520.338L690.496 525.421L700.046 525.421L700.046 529.376L685.354 529.376L685.354 508.048L700.076 508.048L700.076 512.018L690.496 512.018L690.496 516.515L698.582 516.515L698.582 520.338ZM708.674 523.839L707.195 523.839L707.195 529.376L702.244 529.376L702.244 513.526L707.195 513.526L707.195 519.225L708.616 519.225L711.135 513.526L717.463 513.526L712.834 520.851L712.849 520.851L717.932 529.376L711.238 529.376L708.674 523.839ZM728.04 529.376C727.864 529.054 727.708 528.58 727.571 527.955C726.663 529.098 725.393 529.669 723.762 529.669C722.268 529.669 720.999 529.22 719.954 528.321C718.909 527.413 718.386 526.275 718.386 524.908C718.386 523.189 719.021 521.891 720.291 521.012C721.56 520.133 723.406 519.693 725.828 519.693L727.351 519.693L727.351 518.858C727.351 517.403 726.721 516.676 725.461 516.676C724.29 516.676 723.704 517.252 723.704 518.404L718.767 518.404C718.767 516.871 719.417 515.626 720.715 514.669C722.024 513.712 723.689 513.233 725.71 513.233C727.732 513.233 729.329 513.727 730.5 514.713C731.672 515.699 732.273 517.052 732.302 518.771L732.302 525.787C732.322 527.242 732.546 528.355 732.976 529.127L732.976 529.376L728.04 529.376ZM724.949 526.153C725.564 526.153 726.072 526.021 726.472 525.758C726.882 525.494 727.175 525.196 727.351 524.864L727.351 522.33L725.916 522.33C724.197 522.33 723.337 523.102 723.337 524.645C723.337 525.094 723.489 525.46 723.792 525.743C724.094 526.017 724.48 526.153 724.949 526.153ZM748.694 517.306L743.699 517.306L743.699 529.376L738.733 529.376L738.733 517.306L733.811 517.306L733.811 513.526L748.694 513.526L748.694 517.306ZM757.278 529.669C754.846 529.669 752.878 528.946 751.375 527.501C749.871 526.046 749.119 524.156 749.119 521.832L749.119 521.422C749.119 519.801 749.417 518.37 750.012 517.13C750.618 515.89 751.497 514.933 752.649 514.259C753.801 513.575 755.168 513.233 756.75 513.233C758.977 513.233 760.735 513.927 762.024 515.313C763.313 516.69 763.958 518.614 763.958 521.085L763.958 523.004L754.143 523.004C754.319 523.893 754.705 524.591 755.3 525.099C755.896 525.606 756.667 525.86 757.615 525.86C759.177 525.86 760.398 525.313 761.277 524.22L763.533 526.886C762.917 527.735 762.043 528.414 760.911 528.922C759.788 529.42 758.577 529.669 757.278 529.669ZM756.721 517.042C755.276 517.042 754.417 517.999 754.143 519.913L759.124 519.913L759.124 519.532C759.143 518.741 758.943 518.131 758.523 517.701C758.103 517.262 757.502 517.042 756.721 517.042ZM780.671 521.568C780.671 524.029 780.115 525.997 779.001 527.472C777.898 528.937 776.404 529.669 774.519 529.669C773.064 529.669 771.868 529.137 770.93 528.072L770.93 535.47L765.994 535.47L765.994 513.526L770.608 513.526L770.754 514.991C771.702 513.819 772.947 513.233 774.49 513.233C776.443 513.233 777.961 513.956 779.045 515.401C780.129 516.837 780.671 518.814 780.671 521.334L780.671 521.568ZM775.735 521.261C775.735 518.448 774.915 517.042 773.274 517.042C772.102 517.042 771.321 517.462 770.93 518.302L770.93 524.542C771.36 525.421 772.151 525.86 773.303 525.86C774.875 525.86 775.686 524.503 775.735 521.788L775.735 521.261ZM792.083 513.526L797.034 513.526L797.034 529.376L792.083 529.376L792.083 520.147L787.732 529.376L782.766 529.376L782.766 513.526L787.732 513.526L787.732 522.726L792.083 513.526ZM813.792 529.376L808.84 529.376L808.84 523.502L804.519 523.502L804.519 529.376L799.583 529.376L799.583 513.526L804.519 513.526L804.519 519.708L808.84 519.708L808.84 513.526L813.792 513.526L813.792 529.376ZM824.822 514.405C826.892 514.405 828.533 515.084 829.744 516.441C830.964 517.799 831.575 519.649 831.575 521.993L831.575 522.198C831.575 523.683 831.267 524.996 830.652 526.139C830.037 527.271 829.148 528.146 827.986 528.761C826.833 529.376 825.481 529.684 823.928 529.684C821.584 529.684 819.714 528.932 818.318 527.428C816.931 525.924 816.238 523.854 816.238 521.217L816.238 520.748C816.257 517.135 816.853 514.293 818.025 512.223C819.197 510.152 820.989 508.849 823.401 508.312C824.485 508.067 825.193 507.833 825.525 507.608C825.867 507.374 826.038 507.013 826.038 506.524L830.007 506.524C830.007 507.745 829.817 508.673 829.436 509.308C829.065 509.942 828.469 510.47 827.649 510.89C826.838 511.3 825.696 511.642 824.221 511.915C823.059 512.13 822.161 512.589 821.526 513.292C820.901 513.985 820.476 514.957 820.251 516.207C821.57 515.006 823.093 514.405 824.822 514.405ZM823.899 518.214C822.092 518.214 821.189 519.464 821.189 521.964L821.189 522.198C821.189 524.649 822.102 525.875 823.928 525.875C825.696 525.875 826.599 524.703 826.638 522.359L826.638 521.891C826.638 519.439 825.725 518.214 823.899 518.214ZM840.173 522.462L842.81 513.526L848.098 513.526L841.638 532.027L841.36 532.701C840.442 534.752 838.821 535.777 836.497 535.777C835.852 535.777 835.173 535.68 834.46 535.484L834.46 531.954L835.105 531.954C835.798 531.954 836.326 531.852 836.687 531.646C837.058 531.451 837.332 531.095 837.507 530.577L837.903 529.522L832.395 513.526L837.668 513.526L840.173 522.462ZM864.109 521.568C864.109 524.029 863.552 525.997 862.439 527.472C861.335 528.937 859.841 529.669 857.957 529.669C856.501 529.669 855.305 529.137 854.368 528.072L854.368 535.47L849.431 535.47L849.431 513.526L854.045 513.526L854.192 514.991C855.139 513.819 856.384 513.233 857.927 513.233C859.88 513.233 861.399 513.956 862.483 515.401C863.567 516.837 864.109 518.814 864.109 521.334L864.109 521.568ZM859.172 521.261C859.172 518.448 858.352 517.042 856.711 517.042C855.54 517.042 854.758 517.462 854.368 518.302L854.368 524.542C854.797 525.421 855.588 525.86 856.741 525.86C858.313 525.86 859.124 524.503 859.172 521.788L859.172 521.261ZM877.395 517.335L871.155 517.335L871.155 529.376L866.204 529.376L866.204 513.526L877.395 513.526L877.395 517.335Z" fill="white"/>
<path d="M345.547 518.69L353.633 518.69L353.633 513.607L344.082 513.607L344.082 509.652L358.774 509.652L358.774 530.98L344.053 530.98L344.053 527.01L353.633 527.01L353.633 522.513L345.547 522.513L345.547 518.69ZM335.454 515.189L336.934 515.189L336.934 509.652L341.885 509.652L341.885 525.502L336.934 525.502L336.934 519.803L335.513 519.803L332.993 525.502L326.665 525.502L331.294 518.177L331.279 518.177L326.196 509.652L332.891 509.652L335.454 515.189ZM316.089 509.652C316.265 509.974 316.421 510.448 316.558 511.073C317.466 509.93 318.735 509.359 320.366 509.359C321.86 509.359 323.13 509.808 324.175 510.707C325.22 511.615 325.742 512.753 325.742 514.12C325.742 515.839 325.107 517.137 323.838 518.016C322.568 518.895 320.723 519.335 318.301 519.335L316.777 519.335L316.777 520.17C316.777 521.625 317.407 522.352 318.667 522.352C319.839 522.352 320.425 521.776 320.425 520.624L325.361 520.624C325.361 522.157 324.712 523.402 323.413 524.359C322.104 525.316 320.439 525.795 318.418 525.795C316.396 525.795 314.8 525.302 313.628 524.315C312.456 523.329 311.855 521.976 311.826 520.258L311.826 513.241C311.807 511.786 311.582 510.673 311.152 509.901L311.152 509.652L316.089 509.652ZM319.18 512.875C318.564 512.875 318.057 513.007 317.656 513.27C317.246 513.534 316.953 513.832 316.777 514.164L316.777 516.698L318.213 516.698C319.932 516.698 320.791 515.927 320.791 514.384C320.791 513.934 320.64 513.568 320.337 513.285C320.034 513.011 319.648 512.875 319.18 512.875ZM295.435 521.722L300.43 521.722L300.43 509.652L305.396 509.652L305.396 521.722L310.317 521.722L310.317 525.502L295.435 525.502L295.435 521.722ZM286.851 509.359C289.282 509.359 291.25 510.082 292.754 511.527C294.258 512.982 295.01 514.872 295.01 517.196L295.01 517.606C295.01 519.227 294.712 520.658 294.116 521.898C293.511 523.138 292.632 524.095 291.479 524.769C290.327 525.453 288.96 525.795 287.378 525.795C285.151 525.795 283.394 525.101 282.104 523.715C280.815 522.338 280.171 520.414 280.171 517.943L280.171 516.024L289.985 516.024C289.81 515.135 289.424 514.437 288.828 513.929C288.232 513.422 287.461 513.168 286.514 513.168C284.951 513.168 283.73 513.715 282.852 514.808L280.596 512.142C281.211 511.293 282.085 510.614 283.218 510.106C284.341 509.608 285.552 509.359 286.851 509.359ZM287.407 521.986C288.853 521.986 289.712 521.029 289.985 519.115L285.005 519.115L285.005 519.496C284.985 520.287 285.186 520.897 285.605 521.327C286.025 521.766 286.626 521.986 287.407 521.986ZM263.457 517.46C263.457 514.999 264.014 513.031 265.127 511.556C266.23 510.092 267.725 509.359 269.609 509.359C271.064 509.359 272.261 509.891 273.198 510.956L273.198 503.558L278.135 503.558L278.135 525.502L273.521 525.502L273.374 524.037C272.427 525.209 271.182 525.795 269.639 525.795C267.686 525.795 266.167 525.072 265.083 523.627C263.999 522.191 263.457 520.214 263.457 517.694L263.457 517.46ZM268.394 517.767C268.394 520.58 269.214 521.986 270.854 521.986C272.026 521.986 272.808 521.566 273.198 520.726L273.198 514.486C272.769 513.607 271.978 513.168 270.825 513.168C269.253 513.168 268.442 514.525 268.394 517.24L268.394 517.767ZM252.046 525.502L247.095 525.502L247.095 509.652L252.046 509.652L252.046 518.881L256.396 509.652L261.362 509.652L261.362 525.502L256.396 525.502L256.396 516.302L252.046 525.502ZM230.337 509.652L235.288 509.652L235.288 515.526L239.609 515.526L239.609 509.652L244.546 509.652L244.546 525.502L239.609 525.502L239.609 519.32L235.288 519.32L235.288 525.502L230.337 525.502L230.337 509.652ZM219.307 524.623C217.236 524.623 215.596 523.944 214.385 522.587C213.164 521.229 212.554 519.379 212.554 517.035L212.554 516.83C212.554 515.345 212.861 514.032 213.477 512.889C214.092 511.757 214.98 510.883 216.143 510.267C217.295 509.652 218.647 509.344 220.2 509.344C222.544 509.344 224.414 510.096 225.811 511.6C227.197 513.104 227.891 515.175 227.891 517.811L227.891 518.28C227.871 521.893 227.275 524.735 226.104 526.805C224.932 528.876 223.14 530.179 220.728 530.717C219.644 530.961 218.936 531.195 218.604 531.42C218.262 531.654 218.091 532.015 218.091 532.504L214.121 532.504C214.121 531.283 214.312 530.355 214.692 529.72C215.063 529.086 215.659 528.558 216.48 528.138C217.29 527.728 218.433 527.386 219.907 527.113C221.069 526.898 221.968 526.439 222.603 525.736C223.228 525.043 223.652 524.071 223.877 522.821C222.559 524.022 221.035 524.623 219.307 524.623ZM220.23 520.814C222.036 520.814 222.939 519.564 222.939 517.064L222.939 516.83C222.939 514.379 222.026 513.153 220.2 513.153C218.433 513.153 217.529 514.325 217.49 516.669L217.49 517.137C217.49 519.589 218.403 520.814 220.23 520.814ZM203.955 516.566L201.318 525.502L196.03 525.502L202.49 507.001L202.769 506.327C203.687 504.276 205.308 503.251 207.632 503.251C208.276 503.251 208.955 503.348 209.668 503.544L209.668 507.074L209.023 507.074C208.33 507.074 207.803 507.177 207.441 507.382C207.07 507.577 206.797 507.933 206.621 508.451L206.226 509.506L211.733 525.502L206.46 525.502L203.955 516.566ZM180.02 517.46C180.02 514.999 180.576 513.031 181.689 511.556C182.793 510.092 184.287 509.359 186.172 509.359C187.627 509.359 188.823 509.891 189.761 510.956L189.761 503.558L194.697 503.558L194.697 525.502L190.083 525.502L189.937 524.037C188.989 525.209 187.744 525.795 186.201 525.795C184.248 525.795 182.73 525.072 181.646 523.627C180.562 522.191 180.02 520.214 180.02 517.694L180.02 517.46ZM184.956 517.767C184.956 520.58 185.776 521.986 187.417 521.986C188.589 521.986 189.37 521.566 189.761 520.726L189.761 514.486C189.331 513.607 188.54 513.168 187.388 513.168C185.815 513.168 185.005 514.525 184.956 517.24L184.956 517.767ZM166.733 521.693L172.974 521.693L172.974 509.652L177.925 509.652L177.925 525.502L166.733 525.502L166.733 521.693Z" fill="white"/>
</svg>
